STARTFONT 2.1
FONT -Milkjf-Fixed-Medium-R-Normal--16-150-75-75-C-160-JISX0208.1990-0
SIZE 16 75 75
FONTBOUNDINGBOX 16 16 0 -2
STARTPROPERTIES 22
COPYRIGHT "Public Domain"
FONTNAME_REGISTRY ""
FOUNDRY "Milkjf"
FAMILY_NAME "Fixed"
WEIGHT_NAME "Medium"
SLANT "R"
SETWIDTH_NAME "Normal"
ADD_STYLE_NAME ""
PIXEL_SIZE 16
POINT_SIZE 150
RESOLUTION_X 75
RESOLUTION_Y 75
SPACING "C"
AVERAGE_WIDTH 160
CHARSET_REGISTRY "JISX0208.1990"
CHARSET_ENCODING "0"
WEIGHT 10
X_HEIGHT -1
QUAD_WIDTH 16
DEFAULT_CHAR 8481
FONT_DESCENT 2
FONT_ASCENT 14
ENDPROPERTIES
CHARS 6971
STARTCHAR 2121
ENCODING 8481
SWIDTH 960 0
DWIDTH 16 0
BBX 16 16 0 -2
BITMAP
0000
0000
0000
0000
0000
0000
0000
0000
0000
0000
0000
0000
0000
0000
0000
0000
ENDCHAR
STARTCHAR 2122
ENCODING 8482
SWIDTH 960 0
DWIDTH 16 0
BBX 16 16 0 -2
BITMAP
0000
0000
0000
0000
0000
0000
0000
0000
0000
0000
0000
4000
3000
1800
0c00
0000
ENDCHAR
STARTCHAR 2123
ENCODING 8483
SWIDTH 960 0
DWIDTH 16 0
BBX 16 16 0 -2
BITMAP
0000
0000
0000
0000
0000
0000
0000
0000
0000
0000
3800
4400
4400
4400
3800
0000
ENDCHAR
STARTCHAR 2124
ENCODING 8484
SWIDTH 960 0
DWIDTH 16 0
BBX 16 16 0 -2
BITMAP
0000
0000
0000
0000
0000
0000
0000
0000
0000
0000
0000
0000
3000
1000
1000
2000
ENDCHAR
STARTCHAR 2125
ENCODING 8485
SWIDTH 960 0
DWIDTH 16 0
BBX 16 16 0 -2
BITMAP
0000
0000
0000
0000
0000
0000
0000
0000
0000
0000
0000
0000
3000
3000
0000
0000
ENDCHAR
STARTCHAR 2126
ENCODING 8486
SWIDTH 960 0
DWIDTH 16 0
BBX 16 16 0 -2
BITMAP
0000
0000
0000
0000
0000
0000
0000
0180
0180
0000
0000
0000
0000
0000
0000
0000
ENDCHAR
STARTCHAR 2127
ENCODING 8487
SWIDTH 960 0
DWIDTH 16 0
BBX 16 16 0 -2
BITMAP
0000
0000
0000
0000
0180
0180
0000
0000
0000
0000
0180
0180
0000
0000
0000
0000
ENDCHAR
STARTCHAR 2128
ENCODING 8488
SWIDTH 960 0
DWIDTH 16 0
BBX 16 16 0 -2
BITMAP
0000
0000
0000
0000
0180
0180
0000
0000
0000
0000
0180
0080
0080
0100
0000
0000
ENDCHAR
STARTCHAR 2129
ENCODING 8489
SWIDTH 960 0
DWIDTH 16 0
BBX 16 16 0 -2
BITMAP
0000
07c0
0820
1010
1010
0020
0040
0080
0100
0100
0000
0000
0100
0380
0100
0000
ENDCHAR
STARTCHAR 212a
ENCODING 8490
SWIDTH 960 0
DWIDTH 16 0
BBX 16 16 0 -2
BITMAP
0000
0100
0380
0380
0380
0380
0380
0100
0100
0100
0000
0000
0100
0380
0100
0000
ENDCHAR
STARTCHAR 212b
ENCODING 8491
SWIDTH 960 0
DWIDTH 16 0
BBX 16 16 0 -2
BITMAP
1000
0800
4400
2000
1000
0000
0000
0000
0000
0000
0000
0000
0000
0000
0000
0000
ENDCHAR
STARTCHAR 212c
ENCODING 8492
SWIDTH 960 0
DWIDTH 16 0
BBX 16 16 0 -2
BITMAP
3800
4400
4400
4400
3800
0000
0000
0000
0000
0000
0000
0000
0000
0000
0000
0000
ENDCHAR
STARTCHAR 212d
ENCODING 8493
SWIDTH 960 0
DWIDTH 16 0
BBX 16 16 0 -2
BITMAP
0000
0180
0080
0080
0100
0000
0000
0000
0000
0000
0000
0000
0000
0000
0000
0000
ENDCHAR
STARTCHAR 212e
ENCODING 8494
SWIDTH 960 0
DWIDTH 16 0
BBX 16 16 0 -2
BITMAP
0000
0300
0200
0200
0100
0000
0000
0000
0000
0000
0000
0000
0000
0000
0000
0000
ENDCHAR
STARTCHAR 212f
ENCODING 8495
SWIDTH 960 0
DWIDTH 16 0
BBX 16 16 0 -2
BITMAP
0000
0c30
0c30
0000
0000
0000
0000
0000
0000
0000
0000
0000
0000
0000
0000
0000
ENDCHAR
STARTCHAR 2130
ENCODING 8496
SWIDTH 960 0
DWIDTH 16 0
BBX 16 16 0 -2
BITMAP
0300
0480
0840
1020
0000
0000
0000
0000
0000
0000
0000
0000
0000
0000
0000
0000
ENDCHAR
STARTCHAR 2131
ENCODING 8497
SWIDTH 960 0
DWIDTH 16 0
BBX 16 16 0 -2
BITMAP
7ffe
0000
0000
0000
0000
0000
0000
0000
0000
0000
0000
0000
0000
0000
0000
0000
ENDCHAR
STARTCHAR 2132
ENCODING 8498
SWIDTH 960 0
DWIDTH 16 0
BBX 16 16 0 -2
BITMAP
0000
0000
0000
0000
0000
0000
0000
0000
0000
0000
0000
0000
0000
0000
0000
7ffe
ENDCHAR
STARTCHAR 2133
ENCODING 8499
SWIDTH 960 0
DWIDTH 16 0
BBX 16 16 0 -2
BITMAP
0000
0000
0000
0000
0000
0800
0400
0200
0100
0180
0080
00c0
0040
0000
0000
0000
ENDCHAR
STARTCHAR 2134
ENCODING 8500
SWIDTH 960 0
DWIDTH 16 0
BBX 16 16 0 -2
BITMAP
0000
0000
0040
0020
0110
0880
0440
0200
0100
0180
0080
00c0
0040
0000
0000
0000
ENDCHAR
STARTCHAR 2135
ENCODING 8501
SWIDTH 960 0
DWIDTH 16 0
BBX 16 16 0 -2
BITMAP
0000
0000
0000
0000
0400
0200
0100
0080
0040
0040
0020
00e0
0300
0000
0000
0000
ENDCHAR
STARTCHAR 2136
ENCODING 8502
SWIDTH 960 0
DWIDTH 16 0
BBX 16 16 0 -2
BITMAP
0000
0080
0040
0220
0100
1080
0800
0400
0200
0100
0100
0080
0380
0c00
0000
0000
ENDCHAR
STARTCHAR 2137
ENCODING 8503
SWIDTH 960 0
DWIDTH 16 0
BBX 16 16 0 -2
BITMAP
0000
0000
0000
0000
0300
0300
0630
0430
0860
1040
0080
0100
0000
0000
0000
0000
ENDCHAR
STARTCHAR 2138
ENCODING 8504
SWIDTH 960 0
DWIDTH 16 0
BBX 16 16 0 -2
BITMAP
0100
0280
0440
0820
1010
2008
4004
8002
1ff0
0100
0100
0100
0100
0100
7ffc
0000
ENDCHAR
STARTCHAR 2139
ENCODING 8505
SWIDTH 960 0
DWIDTH 16 0
BBX 16 16 0 -2
BITMAP
0000
0000
0100
0100
0100
03f8
0208
0410
0810
1020
2140
0080
0040
0040
0000
0000
ENDCHAR
STARTCHAR 213a
ENCODING 8506
SWIDTH 960 0
DWIDTH 16 0
BBX 16 16 0 -2
BITMAP
0000
0000
0004
0008
0010
0620
0940
1080
1080
2140
2220
2420
2800
1000
0000
0000
ENDCHAR
STARTCHAR 213b
ENCODING 8507
SWIDTH 960 0
DWIDTH 16 0
BBX 16 16 0 -2
BITMAP
0000
03c0
0c30
1008
2004
2004
4002
4002
4002
4002
2004
2004
1008
0c30
03c0
0000
ENDCHAR
STARTCHAR 213c
ENCODING 8508
SWIDTH 960 0
DWIDTH 16 0
BBX 16 16 0 -2
BITMAP
0000
0000
0000
0000
0000
0000
4000
3ffc
0000
0000
0000
0000
0000
0000
0000
0000
ENDCHAR
STARTCHAR 213d
ENCODING 8509
SWIDTH 960 0
DWIDTH 16 0
BBX 16 16 0 -2
BITMAP
0000
0000
0000
0000
0000
0000
0000
0000
ffff
0000
0000
0000
0000
0000
0000
0000
ENDCHAR
STARTCHAR 213e
ENCODING 8510
SWIDTH 960 0
DWIDTH 16 0
BBX 16 16 0 -2
BITMAP
0000
0000
0000
0000
0000
0000
0000
0000
07c0
0000
0000
0000
0000
0000
0000
0000
ENDCHAR
STARTCHAR 213f
ENCODING 8511
SWIDTH 960 0
DWIDTH 16 0
BBX 16 16 0 -2
BITMAP
0000
0002
0004
0008
0010
0020
0040
0080
0100
0200
0400
0800
1000
2000
4000
0000
ENDCHAR
STARTCHAR 2140
ENCODING 8512
SWIDTH 960 0
DWIDTH 16 0
BBX 16 16 0 -2
BITMAP
0000
4000
2000
1000
0800
0400
0200
0100
0080
0040
0020
0010
0008
0004
0002
0000
ENDCHAR
STARTCHAR 2141
ENCODING 8513
SWIDTH 960 0
DWIDTH 16 0
BBX 16 16 0 -2
BITMAP
0000
0000
0000
0000
0000
0000
0000
1c00
638c
0070
0000
0000
0000
0000
0000
0000
ENDCHAR
STARTCHAR 2142
ENCODING 8514
SWIDTH 960 0
DWIDTH 16 0
BBX 16 16 0 -2
BITMAP
0440
0440
0440
0440
0440
0440
0440
0440
0440
0440
0440
0440
0440
0440
0440
0440
ENDCHAR
STARTCHAR 2143
ENCODING 8515
SWIDTH 960 0
DWIDTH 16 0
BBX 16 16 0 -2
BITMAP
0100
0100
0100
0100
0100
0100
0100
0100
0100
0100
0100
0100
0100
0100
0100
0100
ENDCHAR
STARTCHAR 2144
ENCODING 8516
SWIDTH 960 0
DWIDTH 16 0
BBX 16 16 0 -2
BITMAP
0000
0000
0000
0000
0000
0000
0000
318c
318c
0000
0000
0000
0000
0000
0000
0000
ENDCHAR
STARTCHAR 2145
ENCODING 8517
SWIDTH 960 0
DWIDTH 16 0
BBX 16 16 0 -2
BITMAP
0000
0000
0000
0000
0000
0000
0000
1818
1818
0000
0000
0000
0000
0000
0000
0000
ENDCHAR
STARTCHAR 2146
ENCODING 8518
SWIDTH 960 0
DWIDTH 16 0
BBX 16 16 0 -2
BITMAP
0000
0008
0010
0018
0018
0000
0000
0000
0000
0000
0000
0000
0000
0000
0000
0000
ENDCHAR
STARTCHAR 2147
ENCODING 8519
SWIDTH 960 0
DWIDTH 16 0
BBX 16 16 0 -2
BITMAP
0000
1800
1800
0800
1000
0000
0000
0000
0000
0000
0000
0000
0000
0000
0000
0000
ENDCHAR
STARTCHAR 2148
ENCODING 8520
SWIDTH 960 0
DWIDTH 16 0
BBX 16 16 0 -2
BITMAP
0000
0044
0088
00cc
00cc
0000
0000
0000
0000
0000
0000
0000
0000
0000
0000
0000
ENDCHAR
STARTCHAR 2149
ENCODING 8521
SWIDTH 960 0
DWIDTH 16 0
BBX 16 16 0 -2
BITMAP
0000
3300
3300
1100
2200
0000
0000
0000
0000
0000
0000
0000
0000
0000
0000
0000
ENDCHAR
STARTCHAR 214a
ENCODING 8522
SWIDTH 960 0
DWIDTH 16 0
BBX 16 16 0 -2
BITMAP
0010
0020
0040
0080
0080
0100
0100
0100
0100
0100
0100
0080
0080
0040
0020
0010
ENDCHAR
STARTCHAR 214b
ENCODING 8523
SWIDTH 960 0
DWIDTH 16 0
BBX 16 16 0 -2
BITMAP
1000
0800
0400
0200
0200
0100
0100
0100
0100
0100
0100
0200
0200
0400
0800
1000
ENDCHAR
STARTCHAR 214c
ENCODING 8524
SWIDTH 960 0
DWIDTH 16 0
BBX 16 16 0 -2
BITMAP
0010
0020
0040
0080
0080
0080
0080
0080
0080
0080
0080
0080
0080
0040
0020
0010
ENDCHAR
STARTCHAR 214d
ENCODING 8525
SWIDTH 960 0
DWIDTH 16 0
BBX 16 16 0 -2
BITMAP
1000
0800
0400
0200
0200
0200
0200
0200
0200
0200
0200
0200
0200
0400
0800
1000
ENDCHAR
STARTCHAR 214e
ENCODING 8526
SWIDTH 960 0
DWIDTH 16 0
BBX 16 16 0 -2
BITMAP
00f0
0080
0080
0080
0080
0080
0080
0080
0080
0080
0080
0080
0080
0080
0080
00f0
ENDCHAR
STARTCHAR 214f
ENCODING 8527
SWIDTH 960 0
DWIDTH 16 0
BBX 16 16 0 -2
BITMAP
1e00
0200
0200
0200
0200
0200
0200
0200
0200
0200
0200
0200
0200
0200
0200
1e00
ENDCHAR
STARTCHAR 2150
ENCODING 8528
SWIDTH 960 0
DWIDTH 16 0
BBX 16 16 0 -2
BITMAP
0070
0080
0080
0080
0080
0080
0080
0300
0080
0080
0080
0080
0080
0080
0080
0070
ENDCHAR
STARTCHAR 2151
ENCODING 8529
SWIDTH 960 0
DWIDTH 16 0
BBX 16 16 0 -2
BITMAP
1c00
0200
0200
0200
0200
0200
0200
0180
0200
0200
0200
0200
0200
0200
0200
1c00
ENDCHAR
STARTCHAR 2152
ENCODING 8530
SWIDTH 960 0
DWIDTH 16 0
BBX 16 16 0 -2
BITMAP
0010
0010
0020
0020
0040
0040
0080
0080
0080
0080
0040
0040
0020
0020
0010
0010
ENDCHAR
STARTCHAR 2153
ENCODING 8531
SWIDTH 960 0
DWIDTH 16 0
BBX 16 16 0 -2
BITMAP
1000
1000
0800
0800
0400
0400
0200
0200
0200
0200
0400
0400
0800
0800
1000
1000
ENDCHAR
STARTCHAR 2154
ENCODING 8532
SWIDTH 960 0
DWIDTH 16 0
BBX 16 16 0 -2
BITMAP
0088
0088
0110
0110
0220
0220
0440
0440
0440
0440
0220
0220
0110
0110
0088
0088
ENDCHAR
STARTCHAR 2155
ENCODING 8533
SWIDTH 960 0
DWIDTH 16 0
BBX 16 16 0 -2
BITMAP
2200
2200
1100
1100
0880
0880
0440
0440
0440
0440
0880
0880
1100
1100
2200
2200
ENDCHAR
STARTCHAR 2156
ENCODING 8534
SWIDTH 960 0
DWIDTH 16 0
BBX 16 16 0 -2
BITMAP
007c
0040
0040
0040
0040
0040
0040
0040
0040
0040
0040
0040
0000
0000
0000
0000
ENDCHAR
STARTCHAR 2157
ENCODING 8535
SWIDTH 960 0
DWIDTH 16 0
BBX 16 16 0 -2
BITMAP
0000
0000
0000
0000
0400
0400
0400
0400
0400
0400
0400
0400
0400
0400
0400
7c00
ENDCHAR
STARTCHAR 2158
ENCODING 8536
SWIDTH 960 0
DWIDTH 16 0
BBX 16 16 0 -2
BITMAP
00fc
0084
00bc
00a0
00a0
00a0
00a0
00a0
00a0
00a0
00a0
00e0
0000
0000
0000
0000
ENDCHAR
STARTCHAR 2159
ENCODING 8537
SWIDTH 960 0
DWIDTH 16 0
BBX 16 16 0 -2
BITMAP
0000
0000
0000
0000
0e00
0a00
0a00
0a00
0a00
0a00
0a00
0a00
0a00
7a00
4200
7e00
ENDCHAR
STARTCHAR 215a
ENCODING 8538
SWIDTH 960 0
DWIDTH 16 0
BBX 16 16 0 -2
BITMAP
01f8
01f0
01e0
01c0
01c0
0180
0180
0180
0180
0180
0180
01c0
01c0
01e0
01f0
01f8
ENDCHAR
STARTCHAR 215b
ENCODING 8539
SWIDTH 960 0
DWIDTH 16 0
BBX 16 16 0 -2
BITMAP
3f00
1f00
0f00
0700
0700
0300
0300
0300
0300
0300
0300
0700
0700
0f00
1f00
3f00
ENDCHAR
STARTCHAR 215c
ENCODING 8540
SWIDTH 960 0
DWIDTH 16 0
BBX 16 16 0 -2
BITMAP
0000
0000
0100
0100
0100
0100
0100
3ff8
0100
0100
0100
0100
0100
0000
0000
0000
ENDCHAR
STARTCHAR 215d
ENCODING 8541
SWIDTH 960 0
DWIDTH 16 0
BBX 16 16 0 -2
BITMAP
0000
0000
0000
0000
0000
0000
0000
3ff8
0000
0000
0000
0000
0000
0000
0000
0000
ENDCHAR
STARTCHAR 215e
ENCODING 8542
SWIDTH 960 0
DWIDTH 16 0
BBX 16 16 0 -2
BITMAP
0000
0100
0100
0100
0100
0100
3ff8
0100
0100
0100
0100
0100
0000
3ff8
0000
0000
ENDCHAR
STARTCHAR 215f
ENCODING 8543
SWIDTH 960 0
DWIDTH 16 0
BBX 16 16 0 -2
BITMAP
0000
0000
0000
1010
0820
0440
0280
0100
0280
0440
0820
1010
0000
0000
0000
0000
ENDCHAR
STARTCHAR 2160
ENCODING 8544
SWIDTH 960 0
DWIDTH 16 0
BBX 16 16 0 -2
BITMAP
0000
0000
0000
0180
0180
0000
0000
3ffc
0000
0000
0000
0180
0180
0000
0000
0000
ENDCHAR
STARTCHAR 2161
ENCODING 8545
SWIDTH 960 0
DWIDTH 16 0
BBX 16 16 0 -2
BITMAP
0000
0000
0000
0000
0000
0000
3ff8
0000
0000
3ff8
0000
0000
0000
0000
0000
0000
ENDCHAR
STARTCHAR 2162
ENCODING 8546
SWIDTH 960 0
DWIDTH 16 0
BBX 16 16 0 -2
BITMAP
0000
0000
0020
0040
0040
0080
3ff8
0100
0100
3ff8
0200
0400
0400
0800
0000
0000
ENDCHAR
STARTCHAR 2163
ENCODING 8547
SWIDTH 960 0
DWIDTH 16 0
BBX 16 16 0 -2
BITMAP
0000
0000
0018
0060
0180
0600
1800
6000
1800
0600
0180
0060
0018
0000
0000
0000
ENDCHAR
STARTCHAR 2164
ENCODING 8548
SWIDTH 960 0
DWIDTH 16 0
BBX 16 16 0 -2
BITMAP
0000
0000
6000
1800
0600
0180
0060
0018
0060
0180
0600
1800
6000
0000
0000
0000
ENDCHAR
STARTCHAR 2165
ENCODING 8549
SWIDTH 960 0
DWIDTH 16 0
BBX 16 16 0 -2
BITMAP
0000
0030
00c0
0300
0c00
3000
0c00
0300
00c0
0030
0000
3ff8
0000
3ff8
0000
0000
ENDCHAR
STARTCHAR 2166
ENCODING 8550
SWIDTH 960 0
DWIDTH 16 0
BBX 16 16 0 -2
BITMAP
0000
1800
0600
0180
0060
0018
0060
0180
0600
1800
0000
3ff8
0000
3ff8
0000
0000
ENDCHAR
STARTCHAR 2167
ENCODING 8551
SWIDTH 960 0
DWIDTH 16 0
BBX 16 16 0 -2
BITMAP
0000
0000
0000
0000
1830
2448
4284
4104
4284
2448
1830
0000
0000
0000
0000
0000
ENDCHAR
STARTCHAR 2168
ENCODING 8552
SWIDTH 960 0
DWIDTH 16 0
BBX 16 16 0 -2
BITMAP
0000
0000
0000
0180
0180
0000
0000
0000
0000
0000
1818
1818
0000
0000
0000
0000
ENDCHAR
STARTCHAR 2169
ENCODING 8553
SWIDTH 960 0
DWIDTH 16 0
BBX 16 16 0 -2
BITMAP
0000
00fc
000c
0014
0024
0044
0084
0100
3a00
4400
8200
8200
8200
4400
3800
0000
ENDCHAR
STARTCHAR 216a
ENCODING 8554
SWIDTH 960 0
DWIDTH 16 0
BBX 16 16 0 -2
BITMAP
0380
0440
0820
0820
0820
0440
0380
0100
0100
3ff8
0100
0100
0100
0100
0100
0000
ENDCHAR
STARTCHAR 216b
ENCODING 8555
SWIDTH 960 0
DWIDTH 16 0
BBX 16 16 0 -2
BITMAP
3800
4400
4400
4400
3800
0000
0000
0000
0000
0000
0000
0000
0000
0000
0000
0000
ENDCHAR
STARTCHAR 216c
ENCODING 8556
SWIDTH 960 0
DWIDTH 16 0
BBX 16 16 0 -2
BITMAP
0600
0600
0c00
0800
1000
0000
0000
0000
0000
0000
0000
0000
0000
0000
0000
0000
ENDCHAR
STARTCHAR 216d
ENCODING 8557
SWIDTH 960 0
DWIDTH 16 0
BBX 16 16 0 -2
BITMAP
0cc0
0cc0
1980
1100
2200
0000
0000
0000
0000
0000
0000
0000
0000
0000
0000
0000
ENDCHAR
STARTCHAR 216e
ENCODING 8558
SWIDTH 960 0
DWIDTH 16 0
BBX 16 16 0 -2
BITMAP
0000
3000
49e0
4a10
3408
0408
0800
0800
0800
0800
0408
0408
0210
01e0
0000
0000
ENDCHAR
STARTCHAR 216f
ENCODING 8559
SWIDTH 960 0
DWIDTH 16 0
BBX 16 16 0 -2
BITMAP
0000
1010
0820
0440
0280
0100
1ff0
0100
0100
0100
1ff0
0100
0100
0100
0100
0000
ENDCHAR
STARTCHAR 2170
ENCODING 8560
SWIDTH 960 0
DWIDTH 16 0
BBX 16 16 0 -2
BITMAP
0000
0000
0100
0100
07c0
0960
0900
0700
01c0
0120
0d20
07c0
0100
0100
0000
0000
ENDCHAR
STARTCHAR 2171
ENCODING 8561
SWIDTH 960 0
DWIDTH 16 0
BBX 16 16 0 -2
BITMAP
0000
0000
0040
0040
0040
03c0
04a0
0880
0880
0880
0900
0900
0520
03c0
0200
0200
ENDCHAR
STARTCHAR 2172
ENCODING 8562
SWIDTH 960 0
DWIDTH 16 0
BBX 16 16 0 -2
BITMAP
0000
0000
03c0
0420
0400
0400
0200
3ff0
0100
1d00
2308
2108
2288
1c70
0000
0000
ENDCHAR
STARTCHAR 2173
ENCODING 8563
SWIDTH 960 0
DWIDTH 16 0
BBX 16 16 0 -2
BITMAP
0000
0000
1c00
2208
2210
2220
1c40
0080
0100
0238
0444
0844
1044
0038
0000
0000
ENDCHAR
STARTCHAR 2174
ENCODING 8564
SWIDTH 960 0
DWIDTH 16 0
BBX 16 16 0 -2
BITMAP
0000
0000
0220
0220
0220
1ff8
0440
0440
0440
0440
3ff0
0880
0880
0880
0000
0000
ENDCHAR
STARTCHAR 2175
ENCODING 8565
SWIDTH 960 0
DWIDTH 16 0
BBX 16 16 0 -2
BITMAP
0000
0000
0780
0840
0840
0840
0980
0600
0a10
1110
20a0
2040
21a8
1e18
0000
0000
ENDCHAR
STARTCHAR 2176
ENCODING 8566
SWIDTH 960 0
DWIDTH 16 0
BBX 16 16 0 -2
BITMAP
0000
0100
0380
0100
1930
0d60
0380
0100
0380
0540
0d60
1930
0380
0100
0000
0000
ENDCHAR
STARTCHAR 2177
ENCODING 8567
SWIDTH 960 0
DWIDTH 16 0
BBX 16 16 0 -2
BITMAP
0000
0000
07c0
1830
2008
23a4
4444
4844
4884
4888
2770
2000
1818
07e0
0000
0000
ENDCHAR
STARTCHAR 2178
ENCODING 8568
SWIDTH 960 0
DWIDTH 16 0
BBX 16 16 0 -2
BITMAP
0380
0440
0820
0840
0400
0300
04c0
0820
0640
0180
0040
0420
0820
0440
0380
0000
ENDCHAR
STARTCHAR 2179
ENCODING 8569
SWIDTH 960 0
DWIDTH 16 0
BBX 16 16 0 -2
BITMAP
0000
0100
0280
0280
0440
783c
4004
2008
1010
0820
1010
1390
2c68
3018
0000
0000
ENDCHAR
STARTCHAR 217a
ENCODING 8570
SWIDTH 960 0
DWIDTH 16 0
BBX 16 16 0 -2
BITMAP
0000
0100
0380
0380
07c0
7ffc
7ffc
3ff8
1ff0
0fe0
1ff0
1ff0
3c78
3018
0000
0000
ENDCHAR
STARTCHAR 217b
ENCODING 8571
SWIDTH 960 0
DWIDTH 16 0
BBX 16 16 0 -2
BITMAP
0000
07c0
1830
2008
4004
4004
8002
8002
8002
8002
4004
4004
2008
1830
07c0
0000
ENDCHAR
STARTCHAR 217c
ENCODING 8572
SWIDTH 960 0
DWIDTH 16 0
BBX 16 16 0 -2
BITMAP
0000
07c0
1ff0
3ff8
7ffc
7ffc
fffe
fffe
fffe
fffe
7ffc
7ffc
3ff8
1ff0
07c0
0000
ENDCHAR
STARTCHAR 217d
ENCODING 8573
SWIDTH 960 0
DWIDTH 16 0
BBX 16 16 0 -2
BITMAP
0000
07c0
1830
2008
4004
4384
8442
8822
8822
8442
4384
4004
2008
1830
07c0
0000
ENDCHAR
STARTCHAR 217e
ENCODING 8574
SWIDTH 960 0
DWIDTH 16 0
BBX 16 16 0 -2
BITMAP
0000
0100
0280
0440
0820
1010
2008
4004
2008
1010
0820
0440
0280
0100
0000
0000
ENDCHAR
STARTCHAR 2221
ENCODING 8737
SWIDTH 960 0
DWIDTH 16 0
BBX 16 16 0 -2
BITMAP
0000
0100
0380
07c0
0fe0
1ff0
3ff8
7ffc
3ff8
1ff0
0fe0
07c0
0380
0100
0000
0000
ENDCHAR
STARTCHAR 2222
ENCODING 8738
SWIDTH 960 0
DWIDTH 16 0
BBX 16 16 0 -2
BITMAP
fffe
8002
8002
8002
8002
8002
8002
8002
8002
8002
8002
8002
8002
8002
fffe
0000
ENDCHAR
STARTCHAR 2223
ENCODING 8739
SWIDTH 960 0
DWIDTH 16 0
BBX 16 16 0 -2
BITMAP
fffe
fffe
fffe
fffe
fffe
fffe
fffe
fffe
fffe
fffe
fffe
fffe
fffe
fffe
fffe
0000
ENDCHAR
STARTCHAR 2224
ENCODING 8740
SWIDTH 960 0
DWIDTH 16 0
BBX 16 16 0 -2
BITMAP
0000
0100
0100
0280
0280
0440
0440
0820
0820
1010
1010
2008
2008
7ffc
0000
0000
ENDCHAR
STARTCHAR 2225
ENCODING 8741
SWIDTH 960 0
DWIDTH 16 0
BBX 16 16 0 -2
BITMAP
0000
0100
0100
0380
0380
07c0
07c0
0fe0
0fe0
1ff0
1ff0
3ff8
3ff8
7ffc
0000
0000
ENDCHAR
STARTCHAR 2226
ENCODING 8742
SWIDTH 960 0
DWIDTH 16 0
BBX 16 16 0 -2
BITMAP
0000
7ffc
2008
2008
1010
1010
0820
0820
0440
0440
0280
0280
0100
0100
0000
0000
ENDCHAR
STARTCHAR 2227
ENCODING 8743
SWIDTH 960 0
DWIDTH 16 0
BBX 16 16 0 -2
BITMAP
0000
7ffc
3ff8
3ff8
1ff0
1ff0
0fe0
0fe0
07c0
07c0
0380
0380
0100
0100
0000
0000
ENDCHAR
STARTCHAR 2228
ENCODING 8744
SWIDTH 960 0
DWIDTH 16 0
BBX 16 16 0 -2
BITMAP
0000
0000
0000
2188
1190
0820
0440
0280
310c
328c
0440
0820
1010
2188
0180
0000
ENDCHAR
STARTCHAR 2229
ENCODING 8745
SWIDTH 960 0
DWIDTH 16 0
BBX 16 16 0 -2
BITMAP
0000
0000
7ffc
0000
0000
0000
7ffc
0100
0100
0100
0100
0100
0100
0100
0000
0000
ENDCHAR
STARTCHAR 222a
ENCODING 8746
SWIDTH 960 0
DWIDTH 16 0
BBX 16 16 0 -2
BITMAP
0000
0000
0000
0000
0010
0008
0004
fffe
0004
0008
0010
0000
0000
0000
0000
0000
ENDCHAR
STARTCHAR 222b
ENCODING 8747
SWIDTH 960 0
DWIDTH 16 0
BBX 16 16 0 -2
BITMAP
0000
0000
0000
0000
1000
2000
4000
fffe
4000
2000
1000
0000
0000
0000
0000
0000
ENDCHAR
STARTCHAR 222c
ENCODING 8748
SWIDTH 960 0
DWIDTH 16 0
BBX 16 16 0 -2
BITMAP
0100
0380
0540
0920
0100
0100
0100
0100
0100
0100
0100
0100
0100
0100
0100
0100
ENDCHAR
STARTCHAR 222d
ENCODING 8749
SWIDTH 960 0
DWIDTH 16 0
BBX 16 16 0 -2
BITMAP
0100
0100
0100
0100
0100
0100
0100
0100
0100
0100
0100
0100
0920
0540
0380
0100
ENDCHAR
STARTCHAR 222e
ENCODING 8750
SWIDTH 960 0
DWIDTH 16 0
BBX 16 16 0 -2
BITMAP
0000
0000
0000
0000
3ff8
3ff8
0000
0000
0000
3ff8
3ff8
0000
0000
0000
0000
0000
ENDCHAR
STARTCHAR 222f
ENCODING 8751
SWIDTH 960 0
DWIDTH 16 0
BBX 16 16 0 -2
BITMAP
0000
0000
0000
0000
0000
0000
0000
0000
0000
0000
0000
0000
0000
0000
0000
0000
ENDCHAR
STARTCHAR 2230
ENCODING 8752
SWIDTH 960 0
DWIDTH 16 0
BBX 16 16 0 -2
BITMAP
0000
0000
0000
0000
0000
0000
0000
0000
0000
0000
0000
0000
0000
0000
0000
0000
ENDCHAR
STARTCHAR 2231
ENCODING 8753
SWIDTH 960 0
DWIDTH 16 0
BBX 16 16 0 -2
BITMAP
0000
0000
0000
0000
0000
0000
0000
0000
0000
0000
0000
0000
0000
0000
0000
0000
ENDCHAR
STARTCHAR 2232
ENCODING 8754
SWIDTH 960 0
DWIDTH 16 0
BBX 16 16 0 -2
BITMAP
0000
0000
0000
0000
0000
0000
0000
0000
0000
0000
0000
0000
0000
0000
0000
0000
ENDCHAR
STARTCHAR 2233
ENCODING 8755
SWIDTH 960 0
DWIDTH 16 0
BBX 16 16 0 -2
BITMAP
0000
0000
0000
0000
0000
0000
0000
0000
0000
0000
0000
0000
0000
0000
0000
0000
ENDCHAR
STARTCHAR 2234
ENCODING 8756
SWIDTH 960 0
DWIDTH 16 0
BBX 16 16 0 -2
BITMAP
0000
0000
0000
0000
0000
0000
0000
0000
0000
0000
0000
0000
0000
0000
0000
0000
ENDCHAR
STARTCHAR 2235
ENCODING 8757
SWIDTH 960 0
DWIDTH 16 0
BBX 16 16 0 -2
BITMAP
0000
0000
0000
0000
0000
0000
0000
0000
0000
0000
0000
0000
0000
0000
0000
0000
ENDCHAR
STARTCHAR 2236
ENCODING 8758
SWIDTH 960 0
DWIDTH 16 0
BBX 16 16 0 -2
BITMAP
0000
0000
0000
0000
0000
0000
0000
0000
0000
0000
0000
0000
0000
0000
0000
0000
ENDCHAR
STARTCHAR 2237
ENCODING 8759
SWIDTH 960 0
DWIDTH 16 0
BBX 16 16 0 -2
BITMAP
0000
0000
0000
0000
0000
0000
0000
0000
0000
0000
0000
0000
0000
0000
0000
0000
ENDCHAR
STARTCHAR 2238
ENCODING 8760
SWIDTH 960 0
DWIDTH 16 0
BBX 16 16 0 -2
BITMAP
0000
0000
0000
0000
0000
0000
0000
0000
0000
0000
0000
0000
0000
0000
0000
0000
ENDCHAR
STARTCHAR 2239
ENCODING 8761
SWIDTH 960 0
DWIDTH 16 0
BBX 16 16 0 -2
BITMAP
0000
0000
0000
0000
0000
0000
0000
0000
0000
0000
0000
0000
0000
0000
0000
0000
ENDCHAR
STARTCHAR 223a
ENCODING 8762
SWIDTH 960 0
DWIDTH 16 0
BBX 16 16 0 -2
BITMAP
0000
0000
01f8
0600
0800
0800
1000
1ff8
1000
0800
0800
0600
01f8
0000
0000
0000
ENDCHAR
STARTCHAR 223b
ENCODING 8763
SWIDTH 960 0
DWIDTH 16 0
BBX 16 16 0 -2
BITMAP
0000
0000
3f00
00c0
0020
0020
0010
3ff0
0010
0020
0020
00c0
3f00
0000
0000
0000
ENDCHAR
STARTCHAR 223c
ENCODING 8764
SWIDTH 960 0
DWIDTH 16 0
BBX 16 16 0 -2
BITMAP
0000
0000
07f8
1800
2000
2000
2000
2000
1800
07f8
0000
0000
0000
3ff8
0000
0000
ENDCHAR
STARTCHAR 223d
ENCODING 8765
SWIDTH 960 0
DWIDTH 16 0
BBX 16 16 0 -2
BITMAP
0000
0000
3fc0
0030
0008
0008
0008
0008
0030
3fc0
0000
0000
0000
3ff8
0000
0000
ENDCHAR
STARTCHAR 223e
ENCODING 8766
SWIDTH 960 0
DWIDTH 16 0
BBX 16 16 0 -2
BITMAP
0000
0000
03f8
0c00
1000
1000
2000
2000
2000
1000
1000
0c00
03f8
0000
0000
0000
ENDCHAR
STARTCHAR 223f
ENCODING 8767
SWIDTH 960 0
DWIDTH 16 0
BBX 16 16 0 -2
BITMAP
0000
0000
3f80
0060
0010
0010
0008
0008
0008
0010
0010
0060
3f80
0000
0000
0000
ENDCHAR
STARTCHAR 2240
ENCODING 8768
SWIDTH 960 0
DWIDTH 16 0
BBX 16 16 0 -2
BITMAP
0000
0000
2008
2008
2008
2008
2008
2008
2008
2018
1010
1010
0c60
0380
0000
0000
ENDCHAR
STARTCHAR 2241
ENCODING 8769
SWIDTH 960 0
DWIDTH 16 0
BBX 16 16 0 -2
BITMAP
0000
0000
0380
0c60
1010
1010
2008
2008
2008
2008
2008
2008
2008
2008
0000
0000
ENDCHAR
STARTCHAR 2242
ENCODING 8770
SWIDTH 960 0
DWIDTH 16 0
BBX 16 16 0 -2
BITMAP
0000
0000
0000
0000
0000
0000
0000
0000
0000
0000
0000
0000
0000
0000
0000
0000
ENDCHAR
STARTCHAR 2243
ENCODING 8771
SWIDTH 960 0
DWIDTH 16 0
BBX 16 16 0 -2
BITMAP
0000
0000
0000
0000
0000
0000
0000
0000
0000
0000
0000
0000
0000
0000
0000
0000
ENDCHAR
STARTCHAR 2244
ENCODING 8772
SWIDTH 960 0
DWIDTH 16 0
BBX 16 16 0 -2
BITMAP
0000
0000
0000
0000
0000
0000
0000
0000
0000
0000
0000
0000
0000
0000
0000
0000
ENDCHAR
STARTCHAR 2245
ENCODING 8773
SWIDTH 960 0
DWIDTH 16 0
BBX 16 16 0 -2
BITMAP
0000
0000
0000
0000
0000
0000
0000
0000
0000
0000
0000
0000
0000
0000
0000
0000
ENDCHAR
STARTCHAR 2246
ENCODING 8774
SWIDTH 960 0
DWIDTH 16 0
BBX 16 16 0 -2
BITMAP
0000
0000
0000
0000
0000
0000
0000
0000
0000
0000
0000
0000
0000
0000
0000
0000
ENDCHAR
STARTCHAR 2247
ENCODING 8775
SWIDTH 960 0
DWIDTH 16 0
BBX 16 16 0 -2
BITMAP
0000
0000
0000
0000
0000
0000
0000
0000
0000
0000
0000
0000
0000
0000
0000
0000
ENDCHAR
STARTCHAR 2248
ENCODING 8776
SWIDTH 960 0
DWIDTH 16 0
BBX 16 16 0 -2
BITMAP
0000
0000
0000
0000
0000
0000
0000
0000
0000
0000
0000
0000
0000
0000
0000
0000
ENDCHAR
STARTCHAR 2249
ENCODING 8777
SWIDTH 960 0
DWIDTH 16 0
BBX 16 16 0 -2
BITMAP
0000
0000
0000
0000
0000
0000
0000
0000
0000
0000
0000
0000
0000
0000
0000
0000
ENDCHAR
STARTCHAR 224a
ENCODING 8778
SWIDTH 960 0
DWIDTH 16 0
BBX 16 16 0 -2
BITMAP
0000
0000
0000
0100
0100
0280
0280
0440
0440
0820
0820
1010
1010
2008
2008
0000
ENDCHAR
STARTCHAR 224b
ENCODING 8779
SWIDTH 960 0
DWIDTH 16 0
BBX 16 16 0 -2
BITMAP
0000
0000
2008
2008
1010
1010
0820
0820
0440
0440
0280
0280
0100
0100
0000
0000
ENDCHAR
STARTCHAR 224c
ENCODING 8780
SWIDTH 960 0
DWIDTH 16 0
BBX 16 16 0 -2
BITMAP
0000
0000
0000
0000
0000
0000
0000
7ff8
0008
0008
0008
0008
0000
0000
0000
0000
ENDCHAR
STARTCHAR 224d
ENCODING 8781
SWIDTH 960 0
DWIDTH 16 0
BBX 16 16 0 -2
BITMAP
0000
0000
0000
0040
0020
fff0
0008
0004
0008
fff0
0020
0040
0000
0000
0000
0000
ENDCHAR
STARTCHAR 224e
ENCODING 8782
SWIDTH 960 0
DWIDTH 16 0
BBX 16 16 0 -2
BITMAP
0000
0000
0000
0820
1010
3ff8
4004
8002
4004
3ff8
1010
0820
0000
0000
0000
0000
ENDCHAR
STARTCHAR 224f
ENCODING 8783
SWIDTH 960 0
DWIDTH 16 0
BBX 16 16 0 -2
BITMAP
0000
4004
2008
2008
1ff0
1010
0820
0820
0440
0440
0280
0280
0100
0100
0000
0000
ENDCHAR
STARTCHAR 2250
ENCODING 8784
SWIDTH 960 0
DWIDTH 16 0
BBX 16 16 0 -2
BITMAP
0000
3fe0
0020
0020
0020
0020
0020
3fe0
0020
0020
0020
0020
0020
3fe0
0000
0000
ENDCHAR
STARTCHAR 2251
ENCODING 8785
SWIDTH 960 0
DWIDTH 16 0
BBX 16 16 0 -2
BITMAP
0000
0000
0000
0000
0000
0000
0000
0000
0000
0000
0000
0000
0000
0000
0000
0000
ENDCHAR
STARTCHAR 2252
ENCODING 8786
SWIDTH 960 0
DWIDTH 16 0
BBX 16 16 0 -2
BITMAP
0000
0000
0000
0000
0000
0000
0000
0000
0000
0000
0000
0000
0000
0000
0000
0000
ENDCHAR
STARTCHAR 2253
ENCODING 8787
SWIDTH 960 0
DWIDTH 16 0
BBX 16 16 0 -2
BITMAP
0000
0000
0000
0000
0000
0000
0000
0000
0000
0000
0000
0000
0000
0000
0000
0000
ENDCHAR
STARTCHAR 2254
ENCODING 8788
SWIDTH 960 0
DWIDTH 16 0
BBX 16 16 0 -2
BITMAP
0000
0000
0000
0000
0000
0000
0000
0000
0000
0000
0000
0000
0000
0000
0000
0000
ENDCHAR
STARTCHAR 2255
ENCODING 8789
SWIDTH 960 0
DWIDTH 16 0
BBX 16 16 0 -2
BITMAP
0000
0000
0000
0000
0000
0000
0000
0000
0000
0000
0000
0000
0000
0000
0000
0000
ENDCHAR
STARTCHAR 2256
ENCODING 8790
SWIDTH 960 0
DWIDTH 16 0
BBX 16 16 0 -2
BITMAP
0000
0000
0000
0000
0000
0000
0000
0000
0000
0000
0000
0000
0000
0000
0000
0000
ENDCHAR
STARTCHAR 2257
ENCODING 8791
SWIDTH 960 0
DWIDTH 16 0
BBX 16 16 0 -2
BITMAP
0000
0000
0000
0000
0000
0000
0000
0000
0000
0000
0000
0000
0000
0000
0000
0000
ENDCHAR
STARTCHAR 2258
ENCODING 8792
SWIDTH 960 0
DWIDTH 16 0
BBX 16 16 0 -2
BITMAP
0000
0000
0000
0000
0000
0000
0000
0000
0000
0000
0000
0000
0000
0000
0000
0000
ENDCHAR
STARTCHAR 2259
ENCODING 8793
SWIDTH 960 0
DWIDTH 16 0
BBX 16 16 0 -2
BITMAP
0000
0000
0000
0000
0000
0000
0000
0000
0000
0000
0000
0000
0000
0000
0000
0000
ENDCHAR
STARTCHAR 225a
ENCODING 8794
SWIDTH 960 0
DWIDTH 16 0
BBX 16 16 0 -2
BITMAP
0000
0000
0000
0000
0000
0000
0000
0000
0000
0000
0000
0000
0000
0000
0000
0000
ENDCHAR
STARTCHAR 225b
ENCODING 8795
SWIDTH 960 0
DWIDTH 16 0
BBX 16 16 0 -2
BITMAP
0000
0000
0000
0000
0000
0000
0000
0000
0000
0000
0000
0000
0000
0000
0000
0000
ENDCHAR
STARTCHAR 225c
ENCODING 8796
SWIDTH 960 0
DWIDTH 16 0
BBX 16 16 0 -2
BITMAP
0000
0000
0008
0010
0020
0040
0080
0100
0200
0400
0800
1000
2000
7ffc
0000
0000
ENDCHAR
STARTCHAR 225d
ENCODING 8797
SWIDTH 960 0
DWIDTH 16 0
BBX 16 16 0 -2
BITMAP
0000
0000
0100
0100
0100
0100
0100
0100
0100
0100
0100
0100
0100
7ffc
0000
0000
ENDCHAR
STARTCHAR 225e
ENCODING 8798
SWIDTH 960 0
DWIDTH 16 0
BBX 16 16 0 -2
BITMAP
07c0
3838
c006
0000
0000
0000
0000
0000
0000
0000
0000
0000
0000
0000
0000
0000
ENDCHAR
STARTCHAR 225f
ENCODING 8799
SWIDTH 960 0
DWIDTH 16 0
BBX 16 16 0 -2
BITMAP
0000
01c0
0220
0410
0010
0010
0010
0390
0450
0820
0820
1020
1040
1040
0880
0700
ENDCHAR
STARTCHAR 2260
ENCODING 8800
SWIDTH 960 0
DWIDTH 16 0
BBX 16 16 0 -2
BITMAP
0000
0000
3ff8
3ff8
3008
1810
1810
0c20
0c20
0640
0640
0380
0380
0000
0000
0000
ENDCHAR
STARTCHAR 2261
ENCODING 8801
SWIDTH 960 0
DWIDTH 16 0
BBX 16 16 0 -2
BITMAP
0000
0000
0000
0000
0000
3ff8
0000
0000
3ff8
0000
0000
3ff8
0000
0000
0000
0000
ENDCHAR
STARTCHAR 2262
ENCODING 8802
SWIDTH 960 0
DWIDTH 16 0
BBX 16 16 0 -2
BITMAP
0000
0000
1800
1800
0000
0000
3ff8
0000
0000
3ff8
0000
0000
0030
0030
0000
0000
ENDCHAR
STARTCHAR 2263
ENCODING 8803
SWIDTH 960 0
DWIDTH 16 0
BBX 16 16 0 -2
BITMAP
0000
0000
0000
0084
0318
0420
18c0
2100
c600
2100
18c0
0420
0318
0084
0000
0000
ENDCHAR
STARTCHAR 2264
ENCODING 8804
SWIDTH 960 0
DWIDTH 16 0
BBX 16 16 0 -2
BITMAP
0000
0000
0000
4200
3180
0840
0630
0108
00c6
0108
0630
0840
3180
4200
0000
0000
ENDCHAR
STARTCHAR 2265
ENCODING 8805
SWIDTH 960 0
DWIDTH 16 0
BBX 16 16 0 -2
BITMAP
00fe
0080
0080
0080
0100
0100
0100
0100
2200
5200
9200
0a00
0c00
0400
0400
0000
ENDCHAR
STARTCHAR 2266
ENCODING 8806
SWIDTH 960 0
DWIDTH 16 0
BBX 16 16 0 -2
BITMAP
0000
0000
0000
0000
1830
2448
4084
4104
4204
2448
1830
0000
0000
0000
0000
0000
ENDCHAR
STARTCHAR 2267
ENCODING 8807
SWIDTH 960 0
DWIDTH 16 0
BBX 16 16 0 -2
BITMAP
0000
0000
0000
0000
1830
2448
4280
4100
4280
2448
1830
0000
0000
0000
0000
0000
ENDCHAR
STARTCHAR 2268
ENCODING 8808
SWIDTH 960 0
DWIDTH 16 0
BBX 16 16 0 -2
BITMAP
0000
0000
0000
1818
1818
0000
0000
0000
0000
0000
0180
0180
0000
0000
0000
0000
ENDCHAR
STARTCHAR 2269
ENCODING 8809
SWIDTH 960 0
DWIDTH 16 0
BBX 16 16 0 -2
BITMAP
0300
0480
0480
0400
0400
0200
0200
0200
0100
0100
0100
0080
0080
0480
0480
0300
ENDCHAR
STARTCHAR 226a
ENCODING 8810
SWIDTH 960 0
DWIDTH 16 0
BBX 16 16 0 -2
BITMAP
1860
2490
2490
2080
2080
1040
1040
1040
0820
0820
0820
0410
0410
2490
2490
1860
ENDCHAR
STARTCHAR 226b
ENCODING 8811
SWIDTH 960 0
DWIDTH 16 0
BBX 16 16 0 -2
BITMAP
0000
0000
0000
0000
0000
0000
0000
0000
0000
0000
0000
0000
0000
0000
0000
0000
ENDCHAR
STARTCHAR 226c
ENCODING 8812
SWIDTH 960 0
DWIDTH 16 0
BBX 16 16 0 -2
BITMAP
0000
0000
0000
0000
0000
0000
0000
0000
0000
0000
0000
0000
0000
0000
0000
0000
ENDCHAR
STARTCHAR 226d
ENCODING 8813
SWIDTH 960 0
DWIDTH 16 0
BBX 16 16 0 -2
BITMAP
0000
0000
0000
0000
0000
0000
0000
0000
0000
0000
0000
0000
0000
0000
0000
0000
ENDCHAR
STARTCHAR 226e
ENCODING 8814
SWIDTH 960 0
DWIDTH 16 0
BBX 16 16 0 -2
BITMAP
0000
0000
0000
0000
0000
0000
0000
0000
0000
0000
0000
0000
0000
0000
0000
0000
ENDCHAR
STARTCHAR 226f
ENCODING 8815
SWIDTH 960 0
DWIDTH 16 0
BBX 16 16 0 -2
BITMAP
0000
0000
0000
0000
0000
0000
0000
0000
0000
0000
0000
0000
0000
0000
0000
0000
ENDCHAR
STARTCHAR 2270
ENCODING 8816
SWIDTH 960 0
DWIDTH 16 0
BBX 16 16 0 -2
BITMAP
0000
0000
0000
0000
0000
0000
0000
0000
0000
0000
0000
0000
0000
0000
0000
0000
ENDCHAR
STARTCHAR 2271
ENCODING 8817
SWIDTH 960 0
DWIDTH 16 0
BBX 16 16 0 -2
BITMAP
0000
0000
0000
0000
0000
0000
0000
0000
0000
0000
0000
0000
0000
0000
0000
0000
ENDCHAR
STARTCHAR 2272
ENCODING 8818
SWIDTH 960 0
DWIDTH 16 0
BBX 16 16 0 -2
BITMAP
0380
0440
0440
0380
0280
0280
0440
0440
0820
0820
0fe0
1010
1010
783c
0000
0000
ENDCHAR
STARTCHAR 2273
ENCODING 8819
SWIDTH 960 0
DWIDTH 16 0
BBX 16 16 0 -2
BITMAP
0000
7020
8840
8880
8900
7200
0400
0800
1000
2000
4e38
9144
1144
1144
0e38
0000
ENDCHAR
STARTCHAR 2274
ENCODING 8820
SWIDTH 960 0
DWIDTH 16 0
BBX 16 16 0 -2
BITMAP
0000
0040
0440
0470
07f0
1fc0
1c40
0440
0440
0470
07f0
1fc0
1c40
0440
0400
0000
ENDCHAR
STARTCHAR 2275
ENCODING 8821
SWIDTH 960 0
DWIDTH 16 0
BBX 16 16 0 -2
BITMAP
0400
0400
0400
0400
0400
04c0
0520
0610
0410
0420
0420
0440
0480
0500
0600
0000
ENDCHAR
STARTCHAR 2276
ENCODING 8822
SWIDTH 960 0
DWIDTH 16 0
BBX 16 16 0 -2
BITMAP
0100
0180
01c0
01e0
0170
0130
0110
0110
0110
0120
0f00
1f00
3e00
3e00
1c00
0000
ENDCHAR
STARTCHAR 2277
ENCODING 8823
SWIDTH 960 0
DWIDTH 16 0
BBX 16 16 0 -2
BITMAP
0000
0100
0380
0540
0fe0
0540
0100
0380
07c0
0380
0380
0100
0100
0100
0100
0100
ENDCHAR
STARTCHAR 2278
ENCODING 8824
SWIDTH 960 0
DWIDTH 16 0
BBX 16 16 0 -2
BITMAP
0000
0380
0100
0540
0fe0
0540
0100
0380
0380
0100
0540
0fe0
0540
0100
0380
0000
ENDCHAR
STARTCHAR 2279
ENCODING 8825
SWIDTH 960 0
DWIDTH 16 0
BBX 16 16 0 -2
BITMAP
0000
07e0
0f20
1f20
1f20
1f20
0f20
0720
0120
0120
0120
0120
0120
0120
0120
0000
ENDCHAR
STARTCHAR 227a
ENCODING 8826
SWIDTH 960 0
DWIDTH 16 0
BBX 16 16 0 -2
BITMAP
07c0
1ff0
3ff8
638c
5d74
dd76
fffe
c006
dff6
efee
6fec
739c
3c78
1ff0
07c0
0000
ENDCHAR
STARTCHAR 227b
ENCODING 8827
SWIDTH 960 0
DWIDTH 16 0
BBX 16 16 0 -2
BITMAP
0000
0000
01c0
0620
0820
1fc0
3000
0000
0000
07e0
0198
0044
0024
0018
0000
0000
ENDCHAR
STARTCHAR 227c
ENCODING 8828
SWIDTH 960 0
DWIDTH 16 0
BBX 16 16 0 -2
BITMAP
0000
0400
0400
0c00
0a20
1220
1260
1250
1290
0c90
0090
0090
0060
0000
0000
0000
ENDCHAR
STARTCHAR 227d
ENCODING 8829
SWIDTH 960 0
DWIDTH 16 0
BBX 16 16 0 -2
BITMAP
0000
0000
0000
0000
0000
0000
0000
0000
0000
0000
0000
0000
0000
0000
0000
0000
ENDCHAR
STARTCHAR 227e
ENCODING 8830
SWIDTH 960 0
DWIDTH 16 0
BBX 16 16 0 -2
BITMAP
07c0
1830
2008
4004
4004
8002
8002
8002
8002
8002
8002
4004
4004
2008
1830
07c0
ENDCHAR
STARTCHAR 2321
ENCODING 8993
SWIDTH 960 0
DWIDTH 16 0
BBX 16 16 0 -2
BITMAP
0000
0000
0000
0000
0000
0000
0000
0000
0000
0000
0000
0000
0000
0000
0000
0000
ENDCHAR
STARTCHAR 2322
ENCODING 8994
SWIDTH 960 0
DWIDTH 16 0
BBX 16 16 0 -2
BITMAP
0000
0000
0000
0000
0000
0000
0000
0000
0000
0000
0000
0000
0000
0000
0000
0000
ENDCHAR
STARTCHAR 2323
ENCODING 8995
SWIDTH 960 0
DWIDTH 16 0
BBX 16 16 0 -2
BITMAP
0000
0000
0000
0000
0000
0000
0000
0000
0000
0000
0000
0000
0000
0000
0000
0000
ENDCHAR
STARTCHAR 2324
ENCODING 8996
SWIDTH 960 0
DWIDTH 16 0
BBX 16 16 0 -2
BITMAP
0000
0000
0000
0000
0000
0000
0000
0000
0000
0000
0000
0000
0000
0000
0000
0000
ENDCHAR
STARTCHAR 2325
ENCODING 8997
SWIDTH 960 0
DWIDTH 16 0
BBX 16 16 0 -2
BITMAP
0000
0000
0000
0000
0000
0000
0000
0000
0000
0000
0000
0000
0000
0000
0000
0000
ENDCHAR
STARTCHAR 2326
ENCODING 8998
SWIDTH 960 0
DWIDTH 16 0
BBX 16 16 0 -2
BITMAP
0000
0000
0000
0000
0000
0000
0000
0000
0000
0000
0000
0000
0000
0000
0000
0000
ENDCHAR
STARTCHAR 2327
ENCODING 8999
SWIDTH 960 0
DWIDTH 16 0
BBX 16 16 0 -2
BITMAP
0000
0000
0000
0000
0000
0000
0000
0000
0000
0000
0000
0000
0000
0000
0000
0000
ENDCHAR
STARTCHAR 2328
ENCODING 9000
SWIDTH 960 0
DWIDTH 16 0
BBX 16 16 0 -2
BITMAP
0000
0000
0000
0000
0000
0000
0000
0000
0000
0000
0000
0000
0000
0000
0000
0000
ENDCHAR
STARTCHAR 2329
ENCODING 9001
SWIDTH 960 0
DWIDTH 16 0
BBX 16 16 0 -2
BITMAP
0000
0000
0000
0000
0000
0000
0000
0000
0000
0000
0000
0000
0000
0000
0000
0000
ENDCHAR
STARTCHAR 232a
ENCODING 9002
SWIDTH 960 0
DWIDTH 16 0
BBX 16 16 0 -2
BITMAP
0000
0000
0000
0000
0000
0000
0000
0000
0000
0000
0000
0000
0000
0000
0000
0000
ENDCHAR
STARTCHAR 232b
ENCODING 9003
SWIDTH 960 0
DWIDTH 16 0
BBX 16 16 0 -2
BITMAP
0000
0000
0000
0000
0000
0000
0000
0000
0000
0000
0000
0000
0000
0000
0000
0000
ENDCHAR
STARTCHAR 232c
ENCODING 9004
SWIDTH 960 0
DWIDTH 16 0
BBX 16 16 0 -2
BITMAP
0000
0000
0000
0000
0000
0000
0000
0000
0000
0000
0000
0000
0000
0000
0000
0000
ENDCHAR
STARTCHAR 232d
ENCODING 9005
SWIDTH 960 0
DWIDTH 16 0
BBX 16 16 0 -2
BITMAP
0000
0000
0000
0000
0000
0000
0000
0000
0000
0000
0000
0000
0000
0000
0000
0000
ENDCHAR
STARTCHAR 232e
ENCODING 9006
SWIDTH 960 0
DWIDTH 16 0
BBX 16 16 0 -2
BITMAP
0000
0000
0000
0000
0000
0000
0000
0000
0000
0000
0000
0000
0000
0000
0000
0000
ENDCHAR
STARTCHAR 232f
ENCODING 9007
SWIDTH 960 0
DWIDTH 16 0
BBX 16 16 0 -2
BITMAP
0000
0000
0000
0000
0000
0000
0000
0000
0000
0000
0000
0000
0000
0000
0000
0000
ENDCHAR
STARTCHAR 2330
ENCODING 9008
SWIDTH 960 0
DWIDTH 16 0
BBX 16 16 0 -2
BITMAP
0000
0000
07c0
0820
1010
1010
1010
1010
1010
1010
1010
1010
0820
07c0
0000
0000
ENDCHAR
STARTCHAR 2331
ENCODING 9009
SWIDTH 960 0
DWIDTH 16 0
BBX 16 16 0 -2
BITMAP
0000
0000
0100
0300
0500
0100
0100
0100
0100
0100
0100
0100
0100
07c0
0000
0000
ENDCHAR
STARTCHAR 2332
ENCODING 9010
SWIDTH 960 0
DWIDTH 16 0
BBX 16 16 0 -2
BITMAP
0000
0000
07c0
0820
1010
1010
0020
0040
0080
0100
0200
0400
0800
1ff0
0000
0000
ENDCHAR
STARTCHAR 2333
ENCODING 9011
SWIDTH 960 0
DWIDTH 16 0
BBX 16 16 0 -2
BITMAP
0000
0000
07c0
0820
1010
0010
0020
03c0
0020
0010
0010
1010
0820
07c0
0000
0000
ENDCHAR
STARTCHAR 2334
ENCODING 9012
SWIDTH 960 0
DWIDTH 16 0
BBX 16 16 0 -2
BITMAP
0000
0000
0040
00c0
0140
0140
0240
0440
0440
0840
1ff8
0040
0040
0040
0000
0000
ENDCHAR
STARTCHAR 2335
ENCODING 9013
SWIDTH 960 0
DWIDTH 16 0
BBX 16 16 0 -2
BITMAP
0000
0000
0fe0
0800
0800
0800
0800
0fc0
0820
0010
0010
1010
0820
07c0
0000
0000
ENDCHAR
STARTCHAR 2336
ENCODING 9014
SWIDTH 960 0
DWIDTH 16 0
BBX 16 16 0 -2
BITMAP
0000
0000
07c0
0820
1010
1000
1000
17c0
1820
1010
1010
1010
0820
07c0
0000
0000
ENDCHAR
STARTCHAR 2337
ENCODING 9015
SWIDTH 960 0
DWIDTH 16 0
BBX 16 16 0 -2
BITMAP
0000
0000
1ff0
1010
1010
1020
0020
0040
0040
0080
0080
0100
0100
0100
0000
0000
ENDCHAR
STARTCHAR 2338
ENCODING 9016
SWIDTH 960 0
DWIDTH 16 0
BBX 16 16 0 -2
BITMAP
0000
0000
07c0
0820
1010
1010
0820
07c0
0820
1010
1010
1010
0820
07c0
0000
0000
ENDCHAR
STARTCHAR 2339
ENCODING 9017
SWIDTH 960 0
DWIDTH 16 0
BBX 16 16 0 -2
BITMAP
0000
0000
07c0
0820
1010
1010
1010
0830
07d0
0010
0010
1010
0820
07c0
0000
0000
ENDCHAR
STARTCHAR 233a
ENCODING 9018
SWIDTH 960 0
DWIDTH 16 0
BBX 16 16 0 -2
BITMAP
0000
0000
0000
0000
0000
0000
0000
0000
0000
0000
0000
0000
0000
0000
0000
0000
ENDCHAR
STARTCHAR 233b
ENCODING 9019
SWIDTH 960 0
DWIDTH 16 0
BBX 16 16 0 -2
BITMAP
0000
0000
0000
0000
0000
0000
0000
0000
0000
0000
0000
0000
0000
0000
0000
0000
ENDCHAR
STARTCHAR 233c
ENCODING 9020
SWIDTH 960 0
DWIDTH 16 0
BBX 16 16 0 -2
BITMAP
0000
0000
0000
0000
0000
0000
0000
0000
0000
0000
0000
0000
0000
0000
0000
0000
ENDCHAR
STARTCHAR 233d
ENCODING 9021
SWIDTH 960 0
DWIDTH 16 0
BBX 16 16 0 -2
BITMAP
0000
0000
0000
0000
0000
0000
0000
0000
0000
0000
0000
0000
0000
0000
0000
0000
ENDCHAR
STARTCHAR 233e
ENCODING 9022
SWIDTH 960 0
DWIDTH 16 0
BBX 16 16 0 -2
BITMAP
0000
0000
0000
0000
0000
0000
0000
0000
0000
0000
0000
0000
0000
0000
0000
0000
ENDCHAR
STARTCHAR 233f
ENCODING 9023
SWIDTH 960 0
DWIDTH 16 0
BBX 16 16 0 -2
BITMAP
0000
0000
0000
0000
0000
0000
0000
0000
0000
0000
0000
0000
0000
0000
0000
0000
ENDCHAR
STARTCHAR 2340
ENCODING 9024
SWIDTH 960 0
DWIDTH 16 0
BBX 16 16 0 -2
BITMAP
0000
0000
0000
0000
0000
0000
0000
0000
0000
0000
0000
0000
0000
0000
0000
0000
ENDCHAR
STARTCHAR 2341
ENCODING 9025
SWIDTH 960 0
DWIDTH 16 0
BBX 16 16 0 -2
BITMAP
0000
0000
0100
0100
0280
0280
0440
0440
0820
0820
0fe0
1010
1010
783c
0000
0000
ENDCHAR
STARTCHAR 2342
ENCODING 9026
SWIDTH 960 0
DWIDTH 16 0
BBX 16 16 0 -2
BITMAP
0000
0000
1fe0
0410
0408
0408
0410
07e0
0410
0408
0408
0408
0410
1fe0
0000
0000
ENDCHAR
STARTCHAR 2343
ENCODING 9027
SWIDTH 960 0
DWIDTH 16 0
BBX 16 16 0 -2
BITMAP
0000
0000
03d0
0430
0810
0800
1000
1000
1000
1000
0808
0808
0410
03e0
0000
0000
ENDCHAR
STARTCHAR 2344
ENCODING 9028
SWIDTH 960 0
DWIDTH 16 0
BBX 16 16 0 -2
BITMAP
0000
0000
3f80
0860
0810
0808
0808
0808
0808
0808
0808
0810
0860
3f80
0000
0000
ENDCHAR
STARTCHAR 2345
ENCODING 9029
SWIDTH 960 0
DWIDTH 16 0
BBX 16 16 0 -2
BITMAP
0000
0000
3ff0
0810
0808
0840
0840
0fc0
0840
0840
0800
0808
0810
3ff0
0000
0000
ENDCHAR
STARTCHAR 2346
ENCODING 9030
SWIDTH 960 0
DWIDTH 16 0
BBX 16 16 0 -2
BITMAP
0000
0000
3ff0
0810
0808
0840
0840
0fc0
0840
0840
0800
0800
0800
3e00
0000
0000
ENDCHAR
STARTCHAR 2347
ENCODING 9031
SWIDTH 960 0
DWIDTH 16 0
BBX 16 16 0 -2
BITMAP
0000
0000
07e0
0820
1010
1000
2000
2000
20f0
2010
1010
1010
0830
07c0
0000
0000
ENDCHAR
STARTCHAR 2348
ENCODING 9032
SWIDTH 960 0
DWIDTH 16 0
BBX 16 16 0 -2
BITMAP
0000
0000
3e7c
0810
0810
0810
0810
0ff0
0810
0810
0810
0810
0810
3e7c
0000
0000
ENDCHAR
STARTCHAR 2349
ENCODING 9033
SWIDTH 960 0
DWIDTH 16 0
BBX 16 16 0 -2
BITMAP
0000
0000
07c0
0100
0100
0100
0100
0100
0100
0100
0100
0100
0100
07c0
0000
0000
ENDCHAR
STARTCHAR 234a
ENCODING 9034
SWIDTH 960 0
DWIDTH 16 0
BBX 16 16 0 -2
BITMAP
0000
0000
00f8
0020
0020
0020
0020
0020
0020
0820
1820
1020
0840
0780
0000
0000
ENDCHAR
STARTCHAR 234b
ENCODING 9035
SWIDTH 960 0
DWIDTH 16 0
BBX 16 16 0 -2
BITMAP
0000
0000
3e3c
0810
0820
0840
0880
0900
0a80
0c40
0840
0820
0810
3e3c
0000
0000
ENDCHAR
STARTCHAR 234c
ENCODING 9036
SWIDTH 960 0
DWIDTH 16 0
BBX 16 16 0 -2
BITMAP
0000
0000
3e00
0800
0800
0800
0800
0800
0800
0800
0800
0808
0810
3ff0
0000
0000
ENDCHAR
STARTCHAR 234d
ENCODING 9037
SWIDTH 960 0
DWIDTH 16 0
BBX 16 16 0 -2
BITMAP
0000
0000
f01e
3018
2828
2828
2448
2448
2448
2288
2288
2108
2108
f93e
0000
0000
ENDCHAR
STARTCHAR 234e
ENCODING 9038
SWIDTH 960 0
DWIDTH 16 0
BBX 16 16 0 -2
BITMAP
0000
0000
787c
1810
1410
1210
1210
1110
1090
1090
1050
1030
1030
7c10
0000
0000
ENDCHAR
STARTCHAR 234f
ENCODING 9039
SWIDTH 960 0
DWIDTH 16 0
BBX 16 16 0 -2
BITMAP
0000
0000
0380
0c60
1010
1010
2008
2008
2008
2008
1010
1010
0c60
0380
0000
0000
ENDCHAR
STARTCHAR 2350
ENCODING 9040
SWIDTH 960 0
DWIDTH 16 0
BBX 16 16 0 -2
BITMAP
0000
0000
3fc0
0820
0810
0810
0820
0fc0
0800
0800
0800
0800
0800
3e00
0000
0000
ENDCHAR
STARTCHAR 2351
ENCODING 9041
SWIDTH 960 0
DWIDTH 16 0
BBX 16 16 0 -2
BITMAP
0000
0000
0380
0c60
1010
1010
2008
2008
2008
2388
1450
1420
0c60
0394
0008
0000
ENDCHAR
STARTCHAR 2352
ENCODING 9042
SWIDTH 960 0
DWIDTH 16 0
BBX 16 16 0 -2
BITMAP
0000
0000
3fc0
0820
0810
0810
0820
0fc0
0900
0880
0840
0840
0820
3e38
0000
0000
ENDCHAR
STARTCHAR 2353
ENCODING 9043
SWIDTH 960 0
DWIDTH 16 0
BBX 16 16 0 -2
BITMAP
0000
0000
07a0
0860
1020
1000
0800
0700
00c0
0020
1010
1010
1820
17c0
0000
0000
ENDCHAR
STARTCHAR 2354
ENCODING 9044
SWIDTH 960 0
DWIDTH 16 0
BBX 16 16 0 -2
BITMAP
0000
0000
1ff0
1110
2108
0100
0100
0100
0100
0100
0100
0100
0100
07c0
0000
0000
ENDCHAR
STARTCHAR 2355
ENCODING 9045
SWIDTH 960 0
DWIDTH 16 0
BBX 16 16 0 -2
BITMAP
0000
0000
7c7c
1010
1010
1010
1010
1010
1010
1010
1010
1010
0820
07c0
0000
0000
ENDCHAR
STARTCHAR 2356
ENCODING 9046
SWIDTH 960 0
DWIDTH 16 0
BBX 16 16 0 -2
BITMAP
0000
0000
7c7c
1010
1010
0820
0820
0820
0440
0440
0280
0280
0100
0100
0000
0000
ENDCHAR
STARTCHAR 2357
ENCODING 9047
SWIDTH 960 0
DWIDTH 16 0
BBX 16 16 0 -2
BITMAP
0000
0000
e38e
4104
4104
2288
2288
2288
1450
1450
1450
0820
0820
0820
0000
0000
ENDCHAR
STARTCHAR 2358
ENCODING 9048
SWIDTH 960 0
DWIDTH 16 0
BBX 16 16 0 -2
BITMAP
0000
0000
3c78
0820
0440
0440
0280
0100
0100
0280
0440
0440
0820
3c78
0000
0000
ENDCHAR
STARTCHAR 2359
ENCODING 9049
SWIDTH 960 0
DWIDTH 16 0
BBX 16 16 0 -2
BITMAP
0000
0000
7c7c
1010
0820
0820
0440
0280
0100
0100
0100
0100
0100
07c0
0000
0000
ENDCHAR
STARTCHAR 235a
ENCODING 9050
SWIDTH 960 0
DWIDTH 16 0
BBX 16 16 0 -2
BITMAP
0000
0000
0ff8
0808
1010
0020
0040
0080
0100
0200
0400
0808
1010
1ff0
0000
0000
ENDCHAR
STARTCHAR 235b
ENCODING 9051
SWIDTH 960 0
DWIDTH 16 0
BBX 16 16 0 -2
BITMAP
0000
0000
0000
0000
0000
0000
0000
0000
0000
0000
0000
0000
0000
0000
0000
0000
ENDCHAR
STARTCHAR 235c
ENCODING 9052
SWIDTH 960 0
DWIDTH 16 0
BBX 16 16 0 -2
BITMAP
0000
0000
0000
0000
0000
0000
0000
0000
0000
0000
0000
0000
0000
0000
0000
0000
ENDCHAR
STARTCHAR 235d
ENCODING 9053
SWIDTH 960 0
DWIDTH 16 0
BBX 16 16 0 -2
BITMAP
0000
0000
0000
0000
0000
0000
0000
0000
0000
0000
0000
0000
0000
0000
0000
0000
ENDCHAR
STARTCHAR 235e
ENCODING 9054
SWIDTH 960 0
DWIDTH 16 0
BBX 16 16 0 -2
BITMAP
0000
0000
0000
0000
0000
0000
0000
0000
0000
0000
0000
0000
0000
0000
0000
0000
ENDCHAR
STARTCHAR 235f
ENCODING 9055
SWIDTH 960 0
DWIDTH 16 0
BBX 16 16 0 -2
BITMAP
0000
0000
0000
0000
0000
0000
0000
0000
0000
0000
0000
0000
0000
0000
0000
0000
ENDCHAR
STARTCHAR 2360
ENCODING 9056
SWIDTH 960 0
DWIDTH 16 0
BBX 16 16 0 -2
BITMAP
0000
0000
0000
0000
0000
0000
0000
0000
0000
0000
0000
0000
0000
0000
0000
0000
ENDCHAR
STARTCHAR 2361
ENCODING 9057
SWIDTH 960 0
DWIDTH 16 0
BBX 16 16 0 -2
BITMAP
0000
0000
0000
0000
0000
0000
03c0
0420
0860
03a0
0420
0820
0860
07b0
0000
0000
ENDCHAR
STARTCHAR 2362
ENCODING 9058
SWIDTH 960 0
DWIDTH 16 0
BBX 16 16 0 -2
BITMAP
0000
0000
0c00
0400
0400
0400
05c0
0620
0410
0410
0410
0410
0620
05c0
0000
0000
ENDCHAR
STARTCHAR 2363
ENCODING 9059
SWIDTH 960 0
DWIDTH 16 0
BBX 16 16 0 -2
BITMAP
0000
0000
0000
0000
0000
0000
03c0
0420
0810
0800
0800
0810
0420
03c0
0000
0000
ENDCHAR
STARTCHAR 2364
ENCODING 9060
SWIDTH 960 0
DWIDTH 16 0
BBX 16 16 0 -2
BITMAP
0000
0000
00c0
0040
0040
0040
0740
08c0
1040
1040
1040
1040
08c0
0760
0000
0000
ENDCHAR
STARTCHAR 2365
ENCODING 9061
SWIDTH 960 0
DWIDTH 16 0
BBX 16 16 0 -2
BITMAP
0000
0000
0000
0000
0000
0000
03c0
0420
0810
0ff0
0800
0800
0430
03e0
0000
0000
ENDCHAR
STARTCHAR 2366
ENCODING 9062
SWIDTH 960 0
DWIDTH 16 0
BBX 16 16 0 -2
BITMAP
0000
0000
00e0
0110
0100
0100
0fe0
0100
0100
0100
0100
0100
0100
07c0
0000
0000
ENDCHAR
STARTCHAR 2367
ENCODING 9063
SWIDTH 960 0
DWIDTH 16 0
BBX 16 16 0 -2
BITMAP
0000
0000
0000
0000
0000
0000
03a0
0450
0440
0780
0800
0780
0840
0820
0820
07c0
ENDCHAR
STARTCHAR 2368
ENCODING 9064
SWIDTH 960 0
DWIDTH 16 0
BBX 16 16 0 -2
BITMAP
0000
0000
0c00
0400
0400
0400
0580
0640
0420
0420
0420
0420
0420
0e70
0000
0000
ENDCHAR
STARTCHAR 2369
ENCODING 9065
SWIDTH 960 0
DWIDTH 16 0
BBX 16 16 0 -2
BITMAP
0000
0000
0100
0100
0000
0000
0300
0100
0100
0100
0100
0100
0100
0380
0000
0000
ENDCHAR
STARTCHAR 236a
ENCODING 9066
SWIDTH 960 0
DWIDTH 16 0
BBX 16 16 0 -2
BITMAP
0000
0000
0080
0080
0000
0000
0180
0080
0080
0080
0080
0080
0080
0880
0880
0700
ENDCHAR
STARTCHAR 236b
ENCODING 9067
SWIDTH 960 0
DWIDTH 16 0
BBX 16 16 0 -2
BITMAP
0000
0000
1800
0800
0800
0800
08e0
0880
0900
0a00
0d00
0880
0840
1c70
0000
0000
ENDCHAR
STARTCHAR 236c
ENCODING 9068
SWIDTH 960 0
DWIDTH 16 0
BBX 16 16 0 -2
BITMAP
0000
0000
0300
0100
0100
0100
0100
0100
0100
0100
0100
0100
0100
0380
0000
0000
ENDCHAR
STARTCHAR 236d
ENCODING 9069
SWIDTH 960 0
DWIDTH 16 0
BBX 16 16 0 -2
BITMAP
0000
0000
0000
0000
0000
0000
6c60
3290
2108
2108
2108
2108
2108
739c
0000
0000
ENDCHAR
STARTCHAR 236e
ENCODING 9070
SWIDTH 960 0
DWIDTH 16 0
BBX 16 16 0 -2
BITMAP
0000
0000
0000
0000
0000
0000
1b80
0c40
0820
0820
0820
0820
0820
1c70
0000
0000
ENDCHAR
STARTCHAR 236f
ENCODING 9071
SWIDTH 960 0
DWIDTH 16 0
BBX 16 16 0 -2
BITMAP
0000
0000
0000
0000
0000
0000
0380
0440
0820
0820
0820
0820
0440
0380
0000
0000
ENDCHAR
STARTCHAR 2370
ENCODING 9072
SWIDTH 960 0
DWIDTH 16 0
BBX 16 16 0 -2
BITMAP
0000
0000
0000
0000
0000
0000
0dc0
0620
0410
0410
0410
0410
0620
05c0
0400
0e00
ENDCHAR
STARTCHAR 2371
ENCODING 9073
SWIDTH 960 0
DWIDTH 16 0
BBX 16 16 0 -2
BITMAP
0000
0000
0000
0000
0000
0000
0740
08c0
1040
1040
1040
1040
08c0
0740
0040
00e0
ENDCHAR
STARTCHAR 2372
ENCODING 9074
SWIDTH 960 0
DWIDTH 16 0
BBX 16 16 0 -2
BITMAP
0000
0000
0000
0000
0000
0000
06e0
0310
0200
0200
0200
0200
0200
0780
0000
0000
ENDCHAR
STARTCHAR 2373
ENCODING 9075
SWIDTH 960 0
DWIDTH 16 0
BBX 16 16 0 -2
BITMAP
0000
0000
0000
0000
0000
0000
0740
08c0
0840
0700
00c0
0820
0c20
0bc0
0000
0000
ENDCHAR
STARTCHAR 2374
ENCODING 9076
SWIDTH 960 0
DWIDTH 16 0
BBX 16 16 0 -2
BITMAP
0000
0000
0100
0100
0100
0100
0fe0
0100
0100
0100
0100
0100
0100
00e0
0000
0000
ENDCHAR
STARTCHAR 2375
ENCODING 9077
SWIDTH 960 0
DWIDTH 16 0
BBX 16 16 0 -2
BITMAP
0000
0000
0000
0000
0000
0000
18e0
0820
0820
0820
0820
0820
0460
03b0
0000
0000
ENDCHAR
STARTCHAR 2376
ENCODING 9078
SWIDTH 960 0
DWIDTH 16 0
BBX 16 16 0 -2
BITMAP
0000
0000
0000
0000
0000
0000
1c70
0820
0820
0440
0440
0280
0280
0100
0000
0000
ENDCHAR
STARTCHAR 2377
ENCODING 9079
SWIDTH 960 0
DWIDTH 16 0
BBX 16 16 0 -2
BITMAP
0000
0000
0000
0000
0000
0000
739c
2108
2288
1290
1450
1450
0820
0820
0000
0000
ENDCHAR
STARTCHAR 2378
ENCODING 9080
SWIDTH 960 0
DWIDTH 16 0
BBX 16 16 0 -2
BITMAP
0000
0000
0000
0000
0000
0000
1c70
0440
0280
0100
0280
0440
0820
1c70
0000
0000
ENDCHAR
STARTCHAR 2379
ENCODING 9081
SWIDTH 960 0
DWIDTH 16 0
BBX 16 16 0 -2
BITMAP
0000
0000
0000
0000
0000
0000
1c70
0820
0440
0440
0280
0280
0100
0100
1200
1c00
ENDCHAR
STARTCHAR 237a
ENCODING 9082
SWIDTH 960 0
DWIDTH 16 0
BBX 16 16 0 -2
BITMAP
0000
0000
0000
0000
0000
0000
0fe0
0840
1080
0100
0200
0420
0840
1fc0
0000
0000
ENDCHAR
STARTCHAR 237b
ENCODING 9083
SWIDTH 960 0
DWIDTH 16 0
BBX 16 16 0 -2
BITMAP
0000
0000
0000
0000
0000
0000
0000
0000
0000
0000
0000
0000
0000
0000
0000
0000
ENDCHAR
STARTCHAR 237c
ENCODING 9084
SWIDTH 960 0
DWIDTH 16 0
BBX 16 16 0 -2
BITMAP
0000
0000
0000
0000
0000
0000
0000
0000
0000
0000
0000
0000
0000
0000
0000
0000
ENDCHAR
STARTCHAR 237d
ENCODING 9085
SWIDTH 960 0
DWIDTH 16 0
BBX 16 16 0 -2
BITMAP
0000
0000
0000
0000
0000
0000
0000
0000
0000
0000
0000
0000
0000
0000
0000
0000
ENDCHAR
STARTCHAR 237e
ENCODING 9086
SWIDTH 960 0
DWIDTH 16 0
BBX 16 16 0 -2
BITMAP
0000
0000
0000
0000
0000
0000
0000
0000
0000
0000
0000
0000
0000
0000
0000
0000
ENDCHAR
STARTCHAR 2421
ENCODING 9249
SWIDTH 960 0
DWIDTH 16 0
BBX 16 16 0 -2
BITMAP
0000
0000
0000
0200
0200
0ff0
0200
03e0
0650
0a48
1288
1288
0b10
0660
0000
0000
ENDCHAR
STARTCHAR 2422
ENCODING 9250
SWIDTH 960 0
DWIDTH 16 0
BBX 16 16 0 -2
BITMAP
0000
0200
0200
1ff8
0200
0200
03e0
0e58
1244
2244
2284
2284
2308
1c30
0000
0000
ENDCHAR
STARTCHAR 2423
ENCODING 9251
SWIDTH 960 0
DWIDTH 16 0
BBX 16 16 0 -2
BITMAP
0000
0000
0000
0000
1000
1020
1010
1010
1008
1008
1108
0a08
0a00
0400
0000
0000
ENDCHAR
STARTCHAR 2424
ENCODING 9252
SWIDTH 960 0
DWIDTH 16 0
BBX 16 16 0 -2
BITMAP
0000
0000
2000
2010
2008
2008
2004
2004
2004
2102
1102
1202
1200
0c00
0000
0000
ENDCHAR
STARTCHAR 2425
ENCODING 9253
SWIDTH 960 0
DWIDTH 16 0
BBX 16 16 0 -2
BITMAP
0000
0000
0000
0380
0060
0000
07e0
1810
0008
0008
0008
0010
0060
0180
0000
0000
ENDCHAR
STARTCHAR 2426
ENCODING 9254
SWIDTH 960 0
DWIDTH 16 0
BBX 16 16 0 -2
BITMAP
0000
0000
0780
0070
0000
07f0
3808
0004
0004
0004
0008
0010
0060
0380
0000
0000
ENDCHAR
STARTCHAR 2427
ENCODING 9255
SWIDTH 960 0
DWIDTH 16 0
BBX 16 16 0 -2
BITMAP
0000
0000
0000
0300
00c0
0000
0fe0
0040
0080
0100
0380
0440
0840
1038
0000
0000
ENDCHAR
STARTCHAR 2428
ENCODING 9256
SWIDTH 960 0
DWIDTH 16 0
BBX 16 16 0 -2
BITMAP
0000
0000
0700
00e0
0000
1fe0
0040
0080
0100
0380
0440
0840
1040
203c
0000
0000
ENDCHAR
STARTCHAR 2429
ENCODING 9257
SWIDTH 960 0
DWIDTH 16 0
BBX 16 16 0 -2
BITMAP
0000
0000
0000
0100
0100
0ff0
0120
0118
03e0
0d10
1108
1108
0910
0660
0000
0000
ENDCHAR
STARTCHAR 242a
ENCODING 9258
SWIDTH 960 0
DWIDTH 16 0
BBX 16 16 0 -2
BITMAP
0000
0200
0200
1ff8
0220
0218
0204
03f0
0e08
1204
2204
2204
1208
0c70
0000
0000
ENDCHAR
STARTCHAR 242b
ENCODING 9259
SWIDTH 960 0
DWIDTH 16 0
BBX 16 16 0 -2
BITMAP
0000
0200
0220
0210
3fe8
0414
0412
0410
0810
0810
1010
1020
2320
20c0
0000
0000
ENDCHAR
STARTCHAR 242c
ENCODING 9260
SWIDTH 960 0
DWIDTH 16 0
BBX 16 16 0 -2
BITMAP
0000
0204
022a
0214
3fe8
0414
0412
0410
0810
0810
1010
1020
2320
20c0
0000
0000
ENDCHAR
STARTCHAR 242d
ENCODING 9261
SWIDTH 960 0
DWIDTH 16 0
BBX 16 16 0 -2
BITMAP
0000
0200
0270
1f80
0100
00bc
3fc0
0040
0020
0ff0
1018
1000
1000
0ff0
0000
0000
ENDCHAR
STARTCHAR 242e
ENCODING 9262
SWIDTH 960 0
DWIDTH 16 0
BBX 16 16 0 -2
BITMAP
0002
0209
0274
1f80
0100
00bc
3fc0
0040
0020
0ff0
1018
1000
1000
0ff0
0000
0000
ENDCHAR
STARTCHAR 242f
ENCODING 9263
SWIDTH 960 0
DWIDTH 16 0
BBX 16 16 0 -2
BITMAP
0000
0000
0018
0060
0180
0600
1800
2000
2000
1800
0600
0180
0060
0018
0000
0000
ENDCHAR
STARTCHAR 2430
ENCODING 9264
SWIDTH 960 0
DWIDTH 16 0
BBX 16 16 0 -2
BITMAP
0000
0000
0018
0060
0184
0612
1808
2000
2000
1800
0600
0180
0060
0018
0000
0000
ENDCHAR
STARTCHAR 2431
ENCODING 9265
SWIDTH 960 0
DWIDTH 16 0
BBX 16 16 0 -2
BITMAP
0000
2010
2010
2010
27fe
2008
2008
2008
2008
2008
2008
1010
1060
0180
0000
0000
ENDCHAR
STARTCHAR 2432
ENCODING 9266
SWIDTH 960 0
DWIDTH 16 0
BBX 16 16 0 -2
BITMAP
0002
2019
2014
2010
27fe
2008
2008
2008
2008
2008
2008
1010
1060
0180
0000
0000
ENDCHAR
STARTCHAR 2433
ENCODING 9267
SWIDTH 960 0
DWIDTH 16 0
BBX 16 16 0 -2
BITMAP
0000
0000
0fc0
0030
0040
0000
0000
0000
0000
1000
2000
2000
1800
07fc
0000
0000
ENDCHAR
STARTCHAR 2434
ENCODING 9268
SWIDTH 960 0
DWIDTH 16 0
BBX 16 16 0 -2
BITMAP
0002
0009
0fc4
0030
0040
0000
0000
0000
0000
1000
2000
2000
1800
07fc
0000
0000
ENDCHAR
STARTCHAR 2435
ENCODING 9269
SWIDTH 960 0
DWIDTH 16 0
BBX 16 16 0 -2
BITMAP
0000
0100
0100
00f8
3f80
0040
0020
07f0
0818
1000
1000
1000
0c00
03f0
0000
0000
ENDCHAR
STARTCHAR 2436
ENCODING 9270
SWIDTH 960 0
DWIDTH 16 0
BBX 16 16 0 -2
BITMAP
0002
0109
0104
00f8
3f80
0040
0020
07f0
0818
1000
1000
1000
0c00
03f0
0000
0000
ENDCHAR
STARTCHAR 2437
ENCODING 9271
SWIDTH 960 0
DWIDTH 16 0
BBX 16 16 0 -2
BITMAP
0000
2000
2000
2000
2000
2000
2000
2000
2000
2004
2008
2010
1060
0f80
0000
0000
ENDCHAR
STARTCHAR 2438
ENCODING 9272
SWIDTH 960 0
DWIDTH 16 0
BBX 16 16 0 -2
BITMAP
0000
2008
2024
2010
2000
2000
2000
2000
2000
2004
2008
2010
1060
0f80
0000
0000
ENDCHAR
STARTCHAR 2439
ENCODING 9273
SWIDTH 960 0
DWIDTH 16 0
BBX 16 16 0 -2
BITMAP
0000
0010
0010
3ffe
0010
03d0
0430
0810
0810
0430
03d0
0010
0060
0180
0000
0000
ENDCHAR
STARTCHAR 243a
ENCODING 9274
SWIDTH 960 0
DWIDTH 16 0
BBX 16 16 0 -2
BITMAP
000a
0015
0010
3ffe
0010
03d0
0430
0810
0810
0430
03d0
0010
0060
0180
0000
0000
ENDCHAR
STARTCHAR 243b
ENCODING 9275
SWIDTH 960 0
DWIDTH 16 0
BBX 16 16 0 -2
BITMAP
0000
0810
0810
0810
7ffe
0810
0810
0810
0890
0860
0800
0800
0800
07f8
0000
0000
ENDCHAR
STARTCHAR 243c
ENCODING 9276
SWIDTH 960 0
DWIDTH 16 0
BBX 16 16 0 -2
BITMAP
0002
0819
0814
0810
7ffe
0810
0810
0810
0890
0860
0800
0800
0800
07f8
0000
0000
ENDCHAR
STARTCHAR 243d
ENCODING 9277
SWIDTH 960 0
DWIDTH 16 0
BBX 16 16 0 -2
BITMAP
0000
0000
0fe0
0040
0180
0600
1800
7ffc
0180
0200
0400
0400
0200
01f0
0000
0000
ENDCHAR
STARTCHAR 243e
ENCODING 9278
SWIDTH 960 0
DWIDTH 16 0
BBX 16 16 0 -2
BITMAP
0004
0012
0fe8
0040
0180
0600
1800
7ffc
0180
0200
0400
0400
0200
01f0
0000
0000
ENDCHAR
STARTCHAR 243f
ENCODING 9279
SWIDTH 960 0
DWIDTH 16 0
BBX 16 16 0 -2
BITMAP
0000
0400
0400
3ff8
0400
0400
09f0
080c
0810
1000
1100
1200
2200
21fc
0000
0000
ENDCHAR
STARTCHAR 2440
ENCODING 9280
SWIDTH 960 0
DWIDTH 16 0
BBX 16 16 0 -2
BITMAP
0002
0409
0404
3ff8
0400
0400
09f0
080c
0810
1000
1100
1200
2200
21fc
0000
0000
ENDCHAR
STARTCHAR 2441
ENCODING 9281
SWIDTH 960 0
DWIDTH 16 0
BBX 16 16 0 -2
BITMAP
0000
0200
0200
3ffc
0400
0400
09f0
0e08
1804
1004
0004
0004
0018
0fe0
0000
0000
ENDCHAR
STARTCHAR 2442
ENCODING 9282
SWIDTH 960 0
DWIDTH 16 0
BBX 16 16 0 -2
BITMAP
0002
0209
0204
3ffc
0400
0400
09f0
0e08
1804
1004
0004
0004
0018
0fe0
0000
0000
ENDCHAR
STARTCHAR 2443
ENCODING 9283
SWIDTH 960 0
DWIDTH 16 0
BBX 16 16 0 -2
BITMAP
0000
0000
0000
0000
0000
07c0
3830
0008
0008
0008
0008
0010
0060
0380
0000
0000
ENDCHAR
STARTCHAR 2444
ENCODING 9284
SWIDTH 960 0
DWIDTH 16 0
BBX 16 16 0 -2
BITMAP
0000
0000
0000
0fe0
7018
0004
0004
0004
0004
0004
0008
0010
0060
0380
0000
0000
ENDCHAR
STARTCHAR 2445
ENCODING 9285
SWIDTH 960 0
DWIDTH 16 0
BBX 16 16 0 -2
BITMAP
0002
0009
0004
0fe0
7018
0004
0004
0004
0004
0004
0008
0010
0060
0380
0000
0000
ENDCHAR
STARTCHAR 2446
ENCODING 9286
SWIDTH 960 0
DWIDTH 16 0
BBX 16 16 0 -2
BITMAP
0000
0000
3ffc
00c0
0100
0200
0200
0400
0400
0400
0400
0200
0180
0070
0000
0000
ENDCHAR
STARTCHAR 2447
ENCODING 9287
SWIDTH 960 0
DWIDTH 16 0
BBX 16 16 0 -2
BITMAP
0000
0000
3ffc
00c0
0104
0212
0208
0400
0400
0400
0400
0200
0180
0070
0000
0000
ENDCHAR
STARTCHAR 2448
ENCODING 9288
SWIDTH 960 0
DWIDTH 16 0
BBX 16 16 0 -2
BITMAP
0000
0400
0400
0200
0200
0278
0380
0c00
1000
2000
2000
2000
1800
07fc
0000
0000
ENDCHAR
STARTCHAR 2449
ENCODING 9289
SWIDTH 960 0
DWIDTH 16 0
BBX 16 16 0 -2
BITMAP
0004
0412
0408
0200
0200
0278
0380
0c00
1000
2000
2000
2000
1800
07fc
0000
0000
ENDCHAR
STARTCHAR 244a
ENCODING 9290
SWIDTH 960 0
DWIDTH 16 0
BBX 16 16 0 -2
BITMAP
0000
0400
0400
3f98
0404
0822
0820
0820
1020
13d0
2438
2414
0420
03c0
0000
0000
ENDCHAR
STARTCHAR 244b
ENCODING 9291
SWIDTH 960 0
DWIDTH 16 0
BBX 16 16 0 -2
BITMAP
0000
2000
23f8
200c
2010
2000
2000
2000
2000
2200
2400
2400
1300
10fc
0000
0000
ENDCHAR
STARTCHAR 244c
ENCODING 9292
SWIDTH 960 0
DWIDTH 16 0
BBX 16 16 0 -2
BITMAP
0000
0080
0080
1080
17e0
1890
1088
2908
2908
4a78
468c
448a
4888
3070
0000
0000
ENDCHAR
STARTCHAR 244d
ENCODING 9293
SWIDTH 960 0
DWIDTH 16 0
BBX 16 16 0 -2
BITMAP
0000
0800
0800
08f0
7b08
0c08
0808
1808
2808
2808
48f8
490c
090a
08f0
0000
0000
ENDCHAR
STARTCHAR 244e
ENCODING 9294
SWIDTH 960 0
DWIDTH 16 0
BBX 16 16 0 -2
BITMAP
0000
0000
07c0
1930
2108
2108
4104
4204
4204
4204
4408
2408
1830
00c0
0000
0000
ENDCHAR
STARTCHAR 244f
ENCODING 9295
SWIDTH 960 0
DWIDTH 16 0
BBX 16 16 0 -2
BITMAP
0000
2020
2020
2020
27fc
2010
2010
2010
2010
23f0
2418
2414
1420
13c0
0000
0000
ENDCHAR
STARTCHAR 2450
ENCODING 9296
SWIDTH 960 0
DWIDTH 16 0
BBX 16 16 0 -2
BITMAP
0002
2029
2024
2020
27fc
2010
2010
2010
2010
23f0
2418
2414
1420
13c0
0000
0000
ENDCHAR
STARTCHAR 2451
ENCODING 9297
SWIDTH 960 0
DWIDTH 16 0
BBX 16 16 0 -2
BITMAP
0006
2029
2029
2026
27fc
2010
2010
2010
2010
23f0
2418
2414
1420
13c0
0000
0000
ENDCHAR
STARTCHAR 2452
ENCODING 9298
SWIDTH 960 0
DWIDTH 16 0
BBX 16 16 0 -2
BITMAP
0000
0600
7c60
0820
1030
1028
2014
2010
2010
2010
2020
2020
1040
0f80
0000
0000
ENDCHAR
STARTCHAR 2453
ENCODING 9299
SWIDTH 960 0
DWIDTH 16 0
BBX 16 16 0 -2
BITMAP
0002
0609
7c64
0820
1030
1028
2014
2010
2010
2010
2020
2020
1040
0f80
0000
0000
ENDCHAR
STARTCHAR 2454
ENCODING 9300
SWIDTH 960 0
DWIDTH 16 0
BBX 16 16 0 -2
BITMAP
0006
0609
7c69
0826
1030
1028
2014
2010
2010
2010
2020
2020
1040
0f80
0000
0000
ENDCHAR
STARTCHAR 2455
ENCODING 9301
SWIDTH 960 0
DWIDTH 16 0
BBX 16 16 0 -2
BITMAP
0000
0f00
00c0
0080
0100
0208
2308
2188
2048
2024
4824
4824
4444
0380
0000
0000
ENDCHAR
STARTCHAR 2456
ENCODING 9302
SWIDTH 960 0
DWIDTH 16 0
BBX 16 16 0 -2
BITMAP
0000
0f04
00d2
0088
0100
0208
2308
2188
2048
2024
4824
4824
4444
0380
0000
0000
ENDCHAR
STARTCHAR 2457
ENCODING 9303
SWIDTH 960 0
DWIDTH 16 0
BBX 16 16 0 -2
BITMAP
000c
0f12
00d2
008c
0100
0208
2308
2188
2048
2024
4824
4824
4444
0380
0000
0000
ENDCHAR
STARTCHAR 2458
ENCODING 9304
SWIDTH 960 0
DWIDTH 16 0
BBX 16 16 0 -2
BITMAP
0000
0000
0600
0900
1080
1040
2040
4020
4010
0008
0008
0004
0002
0000
0000
0000
ENDCHAR
STARTCHAR 2459
ENCODING 9305
SWIDTH 960 0
DWIDTH 16 0
BBX 16 16 0 -2
BITMAP
0000
0008
0624
0910
1080
1040
2040
4020
4010
0008
0008
0004
0002
0000
0000
0000
ENDCHAR
STARTCHAR 245a
ENCODING 9306
SWIDTH 960 0
DWIDTH 16 0
BBX 16 16 0 -2
BITMAP
0000
0018
0624
0924
1098
1040
2040
4020
4010
0008
0008
0004
0002
0000
0000
0000
ENDCHAR
STARTCHAR 245b
ENCODING 9307
SWIDTH 960 0
DWIDTH 16 0
BBX 16 16 0 -2
BITMAP
0000
2000
27fc
2020
2020
27fc
2010
2010
2010
23f0
2418
2414
1420
13c0
0000
0000
ENDCHAR
STARTCHAR 245c
ENCODING 9308
SWIDTH 960 0
DWIDTH 16 0
BBX 16 16 0 -2
BITMAP
0014
200a
27fc
2020
2020
27fc
2010
2010
2010
23f0
2418
2414
1420
13c0
0000
0000
ENDCHAR
STARTCHAR 245d
ENCODING 9309
SWIDTH 960 0
DWIDTH 16 0
BBX 16 16 0 -2
BITMAP
0006
2009
27f9
2026
2020
27fc
2010
2010
2010
23f0
2418
2414
1420
13c0
0000
0000
ENDCHAR
STARTCHAR 245e
ENCODING 9310
SWIDTH 960 0
DWIDTH 16 0
BBX 16 16 0 -2
BITMAP
0000
0080
0080
3ffc
0080
0080
3ffc
0080
0080
1f80
20e0
2098
2084
1f00
0000
0000
ENDCHAR
STARTCHAR 245f
ENCODING 9311
SWIDTH 960 0
DWIDTH 16 0
BBX 16 16 0 -2
BITMAP
0000
0000
1f00
0100
0108
0108
0108
1fc8
2138
420e
4208
4410
3810
0020
0040
0000
ENDCHAR
STARTCHAR 2460
ENCODING 9312
SWIDTH 960 0
DWIDTH 16 0
BBX 16 16 0 -2
BITMAP
0000
0400
0400
3ff8
0400
0410
1c08
2404
2400
2400
2404
2404
1a08
01f0
0000
0000
ENDCHAR
STARTCHAR 2461
ENCODING 9313
SWIDTH 960 0
DWIDTH 16 0
BBX 16 16 0 -2
BITMAP
0000
0080
1080
1080
17e0
1898
2888
2904
4904
4504
4604
4208
2418
18e0
0000
0000
ENDCHAR
STARTCHAR 2462
ENCODING 9314
SWIDTH 960 0
DWIDTH 16 0
BBX 16 16 0 -2
BITMAP
0000
0400
0400
3fe0
0400
2400
2400
1fd0
0408
0404
0404
0404
0218
01e0
0000
0000
ENDCHAR
STARTCHAR 2463
ENCODING 9315
SWIDTH 960 0
DWIDTH 16 0
BBX 16 16 0 -2
BITMAP
0000
0000
0000
0000
0900
0880
05f0
0e48
3448
0208
0230
0100
0100
0100
0000
0000
ENDCHAR
STARTCHAR 2464
ENCODING 9316
SWIDTH 960 0
DWIDTH 16 0
BBX 16 16 0 -2
BITMAP
0000
0200
1100
10f0
0b48
1c24
6404
0408
0270
0200
0200
0100
0100
0100
0000
0000
ENDCHAR
STARTCHAR 2465
ENCODING 9317
SWIDTH 960 0
DWIDTH 16 0
BBX 16 16 0 -2
BITMAP
0000
0000
0000
0080
0140
11e0
1350
1648
1a48
1a48
1150
10e0
0080
0100
0000
0000
ENDCHAR
STARTCHAR 2466
ENCODING 9318
SWIDTH 960 0
DWIDTH 16 0
BBX 16 16 0 -2
BITMAP
0000
0180
0240
22f0
2328
2624
2a24
2a24
3224
3224
1128
10f0
0040
0080
0100
0000
ENDCHAR
STARTCHAR 2467
ENCODING 9319
SWIDTH 960 0
DWIDTH 16 0
BBX 16 16 0 -2
BITMAP
0000
0000
0000
0200
0200
0200
03e0
0100
0100
0100
0f80
1160
1110
0e00
0000
0000
ENDCHAR
STARTCHAR 2468
ENCODING 9320
SWIDTH 960 0
DWIDTH 16 0
BBX 16 16 0 -2
BITMAP
0000
0200
0200
0200
03f8
0100
0100
0100
0100
1f80
20e0
2098
2084
1f00
0000
0000
ENDCHAR
STARTCHAR 2469
ENCODING 9321
SWIDTH 960 0
DWIDTH 16 0
BBX 16 16 0 -2
BITMAP
0000
0000
0f80
0070
1000
1000
11f0
1608
1804
1004
0004
0008
0030
0fc0
0000
0000
ENDCHAR
STARTCHAR 246a
ENCODING 9322
SWIDTH 960 0
DWIDTH 16 0
BBX 16 16 0 -2
BITMAP
0000
0800
08e0
1110
1208
1208
1408
1808
0808
0808
0010
0010
0060
0780
0000
0000
ENDCHAR
STARTCHAR 246b
ENCODING 9323
SWIDTH 960 0
DWIDTH 16 0
BBX 16 16 0 -2
BITMAP
0000
0000
0ff0
0020
00c0
0100
03f0
0c08
1004
2004
0704
0884
0458
03e0
0000
0000
ENDCHAR
STARTCHAR 246c
ENCODING 9324
SWIDTH 960 0
DWIDTH 16 0
BBX 16 16 0 -2
BITMAP
0000
0800
0800
08f0
7b08
0c08
0808
1810
2810
2810
4820
4820
0826
0818
0000
0000
ENDCHAR
STARTCHAR 246d
ENCODING 9325
SWIDTH 960 0
DWIDTH 16 0
BBX 16 16 0 -2
BITMAP
0000
0000
0ff0
0020
00c0
0100
03f0
0c08
1004
2004
0004
0004
0018
03e0
0000
0000
ENDCHAR
STARTCHAR 246e
ENCODING 9326
SWIDTH 960 0
DWIDTH 16 0
BBX 16 16 0 -2
BITMAP
0000
0000
0000
0400
0400
04e0
1d10
0608
0408
0c08
1408
1410
0460
0400
0000
0000
ENDCHAR
STARTCHAR 246f
ENCODING 9327
SWIDTH 960 0
DWIDTH 16 0
BBX 16 16 0 -2
BITMAP
0000
0800
0800
08f0
7b08
0c04
0804
1804
2804
2804
4808
4808
0830
08c0
0000
0000
ENDCHAR
STARTCHAR 2470
ENCODING 9328
SWIDTH 960 0
DWIDTH 16 0
BBX 16 16 0 -2
BITMAP
0000
0000
0f80
0080
0080
07e0
1918
2104
2204
4204
44f4
450c
4908
30f0
0000
0000
ENDCHAR
STARTCHAR 2471
ENCODING 9329
SWIDTH 960 0
DWIDTH 16 0
BBX 16 16 0 -2
BITMAP
0000
1fc0
00c0
0100
0780
1860
2010
0710
0890
08e0
0780
1830
2448
4384
0000
0000
ENDCHAR
STARTCHAR 2472
ENCODING 9330
SWIDTH 960 0
DWIDTH 16 0
BBX 16 16 0 -2
BITMAP
0000
0200
0200
3ff0
0400
0800
0b80
1c5c
10e0
2340
0440
0800
0800
07f8
0000
0000
ENDCHAR
STARTCHAR 2473
ENCODING 9331
SWIDTH 960 0
DWIDTH 16 0
BBX 16 16 0 -2
BITMAP
0000
0200
0200
0400
0400
0400
0800
0b84
0c84
1884
1084
1088
2088
2070
0000
0000
ENDCHAR
STARTCHAR 2474
ENCODING 9332
SWIDTH 960 0
DWIDTH 16 0
BBX 16 16 0 -2
BITMAP
0000
0002
0789
0074
0000
07f0
3808
0004
0004
0004
0008
0010
0060
0380
0000
0000
ENDCHAR
STARTCHAR 2475
ENCODING 9333
SWIDTH 960 0
DWIDTH 16 0
BBX 16 16 0 -2
BITMAP
0000
0000
0000
0000
0000
0000
0000
0000
0000
0000
0000
0000
0000
0000
0000
0000
ENDCHAR
STARTCHAR 2476
ENCODING 9334
SWIDTH 960 0
DWIDTH 16 0
BBX 16 16 0 -2
BITMAP
0000
0000
0000
0000
0000
0000
0000
0000
0000
0000
0000
0000
0000
0000
0000
0000
ENDCHAR
STARTCHAR 2477
ENCODING 9335
SWIDTH 960 0
DWIDTH 16 0
BBX 16 16 0 -2
BITMAP
0000
0000
0000
0000
0000
0000
0000
0000
0000
0000
0000
0000
0000
0000
0000
0000
ENDCHAR
STARTCHAR 2478
ENCODING 9336
SWIDTH 960 0
DWIDTH 16 0
BBX 16 16 0 -2
BITMAP
0000
0000
0000
0000
0000
0000
0000
0000
0000
0000
0000
0000
0000
0000
0000
0000
ENDCHAR
STARTCHAR 2479
ENCODING 9337
SWIDTH 960 0
DWIDTH 16 0
BBX 16 16 0 -2
BITMAP
0000
0000
0000
0000
0000
0000
0000
0000
0000
0000
0000
0000
0000
0000
0000
0000
ENDCHAR
STARTCHAR 247a
ENCODING 9338
SWIDTH 960 0
DWIDTH 16 0
BBX 16 16 0 -2
BITMAP
0000
0000
0000
0000
0000
0000
0000
0000
0000
0000
0000
0000
0000
0000
0000
0000
ENDCHAR
STARTCHAR 247b
ENCODING 9339
SWIDTH 960 0
DWIDTH 16 0
BBX 16 16 0 -2
BITMAP
0000
0000
0000
0000
0000
0000
0000
0000
0000
0000
0000
0000
0000
0000
0000
0000
ENDCHAR
STARTCHAR 247c
ENCODING 9340
SWIDTH 960 0
DWIDTH 16 0
BBX 16 16 0 -2
BITMAP
0000
0000
0000
0000
0000
0000
0000
0000
0000
0000
0000
0000
0000
0000
0000
0000
ENDCHAR
STARTCHAR 247d
ENCODING 9341
SWIDTH 960 0
DWIDTH 16 0
BBX 16 16 0 -2
BITMAP
0000
0000
0000
0000
0000
0000
0000
0000
0000
0000
0000
0000
0000
0000
0000
0000
ENDCHAR
STARTCHAR 247e
ENCODING 9342
SWIDTH 960 0
DWIDTH 16 0
BBX 16 16 0 -2
BITMAP
0000
0000
0000
0000
0000
0000
0000
0000
0000
0000
0000
0000
0000
0000
0000
0000
ENDCHAR
STARTCHAR 2521
ENCODING 9505
SWIDTH 960 0
DWIDTH 16 0
BBX 16 16 0 -2
BITMAP
0000
0000
0000
0000
0000
1ff8
0008
0108
0110
0160
0100
0200
0400
1800
0000
0000
ENDCHAR
STARTCHAR 2522
ENCODING 9506
SWIDTH 960 0
DWIDTH 16 0
BBX 16 16 0 -2
BITMAP
0000
0000
7ffc
0004
0204
0208
0208
0230
02c0
0200
0400
0400
1800
6000
0000
0000
ENDCHAR
STARTCHAR 2523
ENCODING 9507
SWIDTH 960 0
DWIDTH 16 0
BBX 16 16 0 -2
BITMAP
0000
0000
0000
0000
0008
0010
0020
00c0
0340
1c40
0040
0040
0040
0040
0000
0000
ENDCHAR
STARTCHAR 2524
ENCODING 9508
SWIDTH 960 0
DWIDTH 16 0
BBX 16 16 0 -2
BITMAP
0000
0004
0008
0010
0060
0180
0e80
7080
0080
0080
0080
0080
0080
0080
0000
0000
ENDCHAR
STARTCHAR 2525
ENCODING 9509
SWIDTH 960 0
DWIDTH 16 0
BBX 16 16 0 -2
BITMAP
0000
0000
0000
0000
0080
0080
1ff8
1008
1008
1008
0010
0010
0060
0380
0000
0000
ENDCHAR
STARTCHAR 2526
ENCODING 9510
SWIDTH 960 0
DWIDTH 16 0
BBX 16 16 0 -2
BITMAP
0000
0100
0100
3ffc
2004
2004
2004
2004
0004
0008
0008
0030
00c0
0700
0000
0000
ENDCHAR
STARTCHAR 2527
ENCODING 9511
SWIDTH 960 0
DWIDTH 16 0
BBX 16 16 0 -2
BITMAP
0000
0000
0000
0000
0000
0ff8
0080
0080
0080
0080
0080
0080
0080
1ffc
0000
0000
ENDCHAR
STARTCHAR 2528
ENCODING 9512
SWIDTH 960 0
DWIDTH 16 0
BBX 16 16 0 -2
BITMAP
0000
0000
3ff8
0100
0100
0100
0100
0100
0100
0100
0100
0100
0100
7ffc
0000
0000
ENDCHAR
STARTCHAR 2529
ENCODING 9513
SWIDTH 960 0
DWIDTH 16 0
BBX 16 16 0 -2
BITMAP
0000
0000
0000
0000
0040
0040
1ff8
0040
0040
00a0
0120
0620
1820
0020
0000
0000
ENDCHAR
STARTCHAR 252a
ENCODING 9514
SWIDTH 960 0
DWIDTH 16 0
BBX 16 16 0 -2
BITMAP
0000
0040
0040
0040
3ffc
0040
0040
00a0
0120
0220
0c20
3020
0020
0020
0000
0000
ENDCHAR
STARTCHAR 252b
ENCODING 9515
SWIDTH 960 0
DWIDTH 16 0
BBX 16 16 0 -2
BITMAP
0000
0100
0100
0100
3ffc
0104
0204
0204
0404
0404
0804
0808
1188
2070
0000
0000
ENDCHAR
STARTCHAR 252c
ENCODING 9516
SWIDTH 960 0
DWIDTH 16 0
BBX 16 16 0 -2
BITMAP
0002
0109
0104
0100
3ffc
0104
0204
0204
0404
0404
0804
0808
1188
2070
0000
0000
ENDCHAR
STARTCHAR 252d
ENCODING 9517
SWIDTH 960 0
DWIDTH 16 0
BBX 16 16 0 -2
BITMAP
0000
0200
0200
03f0
7e00
0100
0100
0100
01fc
7f00
0080
0080
0080
0080
0000
0000
ENDCHAR
STARTCHAR 252e
ENCODING 9518
SWIDTH 960 0
DWIDTH 16 0
BBX 16 16 0 -2
BITMAP
0004
0212
0208
03f0
7e00
0100
0100
0100
01fc
7f00
0080
0080
0080
0080
0000
0000
ENDCHAR
STARTCHAR 252f
ENCODING 9519
SWIDTH 960 0
DWIDTH 16 0
BBX 16 16 0 -2
BITMAP
0000
0000
07f8
0408
0808
1008
2008
0008
0010
0010
0020
0040
0180
0600
0000
0000
ENDCHAR
STARTCHAR 2530
ENCODING 9520
SWIDTH 960 0
DWIDTH 16 0
BBX 16 16 0 -2
BITMAP
0002
0009
07fc
0408
0808
1008
2008
0008
0010
0010
0020
0040
0180
0600
0000
0000
ENDCHAR
STARTCHAR 2531
ENCODING 9521
SWIDTH 960 0
DWIDTH 16 0
BBX 16 16 0 -2
BITMAP
0000
1000
1000
1000
1ffc
2040
2040
4040
0040
0080
0080
0100
0600
1800
0000
0000
ENDCHAR
STARTCHAR 2532
ENCODING 9522
SWIDTH 960 0
DWIDTH 16 0
BBX 16 16 0 -2
BITMAP
0004
1012
1008
1000
1ffc
2040
2040
4040
0040
0080
0080
0100
0600
1800
0000
0000
ENDCHAR
STARTCHAR 2533
ENCODING 9523
SWIDTH 960 0
DWIDTH 16 0
BBX 16 16 0 -2
BITMAP
0000
0000
3ff8
0008
0008
0008
0008
0008
0008
0008
0008
0008
0008
3ff8
0000
0000
ENDCHAR
STARTCHAR 2534
ENCODING 9524
SWIDTH 960 0
DWIDTH 16 0
BBX 16 16 0 -2
BITMAP
0002
0009
3ffc
0008
0008
0008
0008
0008
0008
0008
0008
0008
0008
3ff8
0000
0000
ENDCHAR
STARTCHAR 2535
ENCODING 9525
SWIDTH 960 0
DWIDTH 16 0
BBX 16 16 0 -2
BITMAP
0000
0810
0810
0810
7ffe
0810
0810
0810
0810
0010
0020
0020
00c0
0700
0000
0000
ENDCHAR
STARTCHAR 2536
ENCODING 9526
SWIDTH 960 0
DWIDTH 16 0
BBX 16 16 0 -2
BITMAP
0002
0819
0814
0810
7ffe
0810
0810
0810
0810
0010
0020
0020
00c0
0700
0000
0000
ENDCHAR
STARTCHAR 2537
ENCODING 9527
SWIDTH 960 0
DWIDTH 16 0
BBX 16 16 0 -2
BITMAP
0000
0000
3800
0604
0004
0004
7004
0c08
0008
0010
0020
00c0
0300
3c00
0000
0000
ENDCHAR
STARTCHAR 2538
ENCODING 9528
SWIDTH 960 0
DWIDTH 16 0
BBX 16 16 0 -2
BITMAP
0004
0012
3808
0604
0004
0004
7004
0c08
0008
0010
0020
00c0
0300
3c00
0000
0000
ENDCHAR
STARTCHAR 2539
ENCODING 9529
SWIDTH 960 0
DWIDTH 16 0
BBX 16 16 0 -2
BITMAP
0000
0000
3ff0
0010
0010
0010
0020
0020
0040
00c0
0120
0610
1808
6004
0000
0000
ENDCHAR
STARTCHAR 253a
ENCODING 9530
SWIDTH 960 0
DWIDTH 16 0
BBX 16 16 0 -2
BITMAP
0002
0009
3ff4
0010
0010
0010
0020
0020
0040
00c0
0120
0610
1808
6004
0000
0000
ENDCHAR
STARTCHAR 253b
ENCODING 9531
SWIDTH 960 0
DWIDTH 16 0
BBX 16 16 0 -2
BITMAP
0000
0800
0800
0800
7ffc
0804
0808
0810
0820
0840
0800
0800
0800
07f8
0000
0000
ENDCHAR
STARTCHAR 253c
ENCODING 9532
SWIDTH 960 0
DWIDTH 16 0
BBX 16 16 0 -2
BITMAP
0004
0812
0808
0800
7ffc
0804
0808
0810
0820
0840
0800
0800
0800
07f8
0000
0000
ENDCHAR
STARTCHAR 253d
ENCODING 9533
SWIDTH 960 0
DWIDTH 16 0
BBX 16 16 0 -2
BITMAP
0000
0000
2004
1004
1004
0804
0808
0008
0010
0010
0020
0040
0180
0600
0000
0000
ENDCHAR
STARTCHAR 253e
ENCODING 9534
SWIDTH 960 0
DWIDTH 16 0
BBX 16 16 0 -2
BITMAP
0002
0009
2004
1004
1004
0804
0808
0008
0010
0010
0020
0040
0180
0600
0000
0000
ENDCHAR
STARTCHAR 253f
ENCODING 9535
SWIDTH 960 0
DWIDTH 16 0
BBX 16 16 0 -2
BITMAP
0000
0000
07f8
0408
0808
1808
2608
0188
0050
0030
0020
0040
0180
0600
0000
0000
ENDCHAR
STARTCHAR 2540
ENCODING 9536
SWIDTH 960 0
DWIDTH 16 0
BBX 16 16 0 -2
BITMAP
0002
0009
07fc
0408
0808
1808
2608
0188
0050
0030
0020
0040
0180
0600
0000
0000
ENDCHAR
STARTCHAR 2541
ENCODING 9537
SWIDTH 960 0
DWIDTH 16 0
BBX 16 16 0 -2
BITMAP
0000
0000
0078
3f80
0080
0080
0080
fffc
0080
0080
0100
0100
0600
1800
0000
0000
ENDCHAR
STARTCHAR 2542
ENCODING 9538
SWIDTH 960 0
DWIDTH 16 0
BBX 16 16 0 -2
BITMAP
0002
0009
0074
3f80
0080
0080
0080
fffc
0080
0080
0100
0100
0600
1800
0000
0000
ENDCHAR
STARTCHAR 2543
ENCODING 9539
SWIDTH 960 0
DWIDTH 16 0
BBX 16 16 0 -2
BITMAP
0000
0000
0000
0000
0000
0108
1108
1088
0888
0810
0010
0020
00c0
0700
0000
0000
ENDCHAR
STARTCHAR 2544
ENCODING 9540
SWIDTH 960 0
DWIDTH 16 0
BBX 16 16 0 -2
BITMAP
0000
0000
0104
2104
2084
1084
1084
1004
0008
0008
0010
0020
00c0
0f00
0000
0000
ENDCHAR
STARTCHAR 2545
ENCODING 9541
SWIDTH 960 0
DWIDTH 16 0
BBX 16 16 0 -2
BITMAP
0002
0009
0100
2104
2084
1084
1084
1004
0008
0008
0010
0020
00c0
0f00
0000
0000
ENDCHAR
STARTCHAR 2546
ENCODING 9542
SWIDTH 960 0
DWIDTH 16 0
BBX 16 16 0 -2
BITMAP
0000
0000
1ff0
0000
0000
0000
7ffc
0080
0080
0080
0100
0100
0600
1800
0000
0000
ENDCHAR
STARTCHAR 2547
ENCODING 9543
SWIDTH 960 0
DWIDTH 16 0
BBX 16 16 0 -2
BITMAP
0002
0009
1ff4
0000
0000
0000
7ffc
0080
0080
0080
0100
0100
0600
1800
0000
0000
ENDCHAR
STARTCHAR 2548
ENCODING 9544
SWIDTH 960 0
DWIDTH 16 0
BBX 16 16 0 -2
BITMAP
0000
2000
2000
2000
2000
2000
3e00
21e0
2018
2000
2000
2000
2000
2000
0000
0000
ENDCHAR
STARTCHAR 2549
ENCODING 9545
SWIDTH 960 0
DWIDTH 16 0
BBX 16 16 0 -2
BITMAP
0000
2008
2024
2010
2000
2000
3e00
21e0
2018
2000
2000
2000
2000
2000
0000
0000
ENDCHAR
STARTCHAR 254a
ENCODING 9546
SWIDTH 960 0
DWIDTH 16 0
BBX 16 16 0 -2
BITMAP
0000
0080
0080
0080
7ffc
0080
0080
0080
0080
0080
0100
0100
0600
1800
0000
0000
ENDCHAR
STARTCHAR 254b
ENCODING 9547
SWIDTH 960 0
DWIDTH 16 0
BBX 16 16 0 -2
BITMAP
0000
0000
3ff8
0000
0000
0000
0000
0000
0000
0000
0000
0000
0000
7ffc
0000
0000
ENDCHAR
STARTCHAR 254c
ENCODING 9548
SWIDTH 960 0
DWIDTH 16 0
BBX 16 16 0 -2
BITMAP
0000
0000
3ffc
0004
0004
0004
1c08
0308
00d0
0020
0050
0188
0604
3800
0000
0000
ENDCHAR
STARTCHAR 254d
ENCODING 9549
SWIDTH 960 0
DWIDTH 16 0
BBX 16 16 0 -2
BITMAP
0100
0100
0100
3ff8
0008
0010
0020
00c0
0360
0d18
7104
0102
0100
0100
0000
0000
ENDCHAR
STARTCHAR 254e
ENCODING 9550
SWIDTH 960 0
DWIDTH 16 0
BBX 16 16 0 -2
BITMAP
0000
0000
0004
0004
0008
0008
0010
0010
0020
0040
0080
0300
0c00
3000
0000
0000
ENDCHAR
STARTCHAR 254f
ENCODING 9551
SWIDTH 960 0
DWIDTH 16 0
BBX 16 16 0 -2
BITMAP
0000
0000
0820
0820
0810
0810
1010
1008
1008
2008
2004
2004
4004
4004
0000
0000
ENDCHAR
STARTCHAR 2550
ENCODING 9552
SWIDTH 960 0
DWIDTH 16 0
BBX 16 16 0 -2
BITMAP
0000
0002
0829
0824
0810
0810
1010
1008
1008
2008
2004
2004
4004
4004
0000
0000
ENDCHAR
STARTCHAR 2551
ENCODING 9553
SWIDTH 960 0
DWIDTH 16 0
BBX 16 16 0 -2
BITMAP
0000
0006
0829
0829
0816
0810
1010
1008
1008
2008
2004
2004
4004
4004
0000
0000
ENDCHAR
STARTCHAR 2552
ENCODING 9554
SWIDTH 960 0
DWIDTH 16 0
BBX 16 16 0 -2
BITMAP
0000
2000
2000
2000
2018
21e0
3e00
2000
2000
2000
2000
2000
2000
1ffc
0000
0000
ENDCHAR
STARTCHAR 2553
ENCODING 9555
SWIDTH 960 0
DWIDTH 16 0
BBX 16 16 0 -2
BITMAP
0000
2002
2009
2004
2018
21e0
3e00
2000
2000
2000
2000
2000
2000
1ffc
0000
0000
ENDCHAR
STARTCHAR 2554
ENCODING 9556
SWIDTH 960 0
DWIDTH 16 0
BBX 16 16 0 -2
BITMAP
0006
2009
2009
2006
2018
21e0
3e00
2000
2000
2000
2000
2000
2000
1ffc
0000
0000
ENDCHAR
STARTCHAR 2555
ENCODING 9557
SWIDTH 960 0
DWIDTH 16 0
BBX 16 16 0 -2
BITMAP
0000
0000
3ffc
0004
0004
0004
0004
0004
0008
0008
0010
0060
0180
0e00
0000
0000
ENDCHAR
STARTCHAR 2556
ENCODING 9558
SWIDTH 960 0
DWIDTH 16 0
BBX 16 16 0 -2
BITMAP
0002
0009
7ffc
0008
0008
0008
0008
0008
0010
0010
0020
00c0
0300
1c00
0000
0000
ENDCHAR
STARTCHAR 2557
ENCODING 9559
SWIDTH 960 0
DWIDTH 16 0
BBX 16 16 0 -2
BITMAP
0006
0009
7ff9
000e
0008
0008
0008
0008
0010
0010
0020
00c0
0300
1c00
0000
0000
ENDCHAR
STARTCHAR 2558
ENCODING 9560
SWIDTH 960 0
DWIDTH 16 0
BBX 16 16 0 -2
BITMAP
0000
0000
0200
0500
0880
0880
1040
2020
2020
0010
0008
0008
0004
0004
0000
0000
ENDCHAR
STARTCHAR 2559
ENCODING 9561
SWIDTH 960 0
DWIDTH 16 0
BBX 16 16 0 -2
BITMAP
0000
0000
0208
0524
0890
0880
1040
2020
2020
0010
0008
0008
0004
0004
0000
0000
ENDCHAR
STARTCHAR 255a
ENCODING 9562
SWIDTH 960 0
DWIDTH 16 0
BBX 16 16 0 -2
BITMAP
0000
0018
0224
0524
0898
0880
1040
2020
2020
0010
0008
0008
0004
0004
0000
0000
ENDCHAR
STARTCHAR 255b
ENCODING 9563
SWIDTH 960 0
DWIDTH 16 0
BBX 16 16 0 -2
BITMAP
0000
0100
0100
0100
7ffc
0100
0100
0920
0910
1108
1108
2104
4104
0100
0000
0000
ENDCHAR
STARTCHAR 255c
ENCODING 9564
SWIDTH 960 0
DWIDTH 16 0
BBX 16 16 0 -2
BITMAP
0004
0112
0108
0100
7ffc
0100
0100
0920
0910
1108
1108
2104
4104
0100
0000
0000
ENDCHAR
STARTCHAR 255d
ENCODING 9565
SWIDTH 960 0
DWIDTH 16 0
BBX 16 16 0 -2
BITMAP
000c
0112
0112
010c
7ffc
0100
0100
0920
0910
1108
1108
2104
4104
0100
0000
0000
ENDCHAR
STARTCHAR 255e
ENCODING 9566
SWIDTH 960 0
DWIDTH 16 0
BBX 16 16 0 -2
BITMAP
0000
0000
7ffc
0004
0004
0004
0008
0008
1010
0c60
0380
0100
0080
0040
0000
0000
ENDCHAR
STARTCHAR 255f
ENCODING 9567
SWIDTH 960 0
DWIDTH 16 0
BBX 16 16 0 -2
BITMAP
0000
0000
1fc0
0038
0000
0000
0000
1f80
0070
0000
0000
0000
3f00
00f0
000c
0000
ENDCHAR
STARTCHAR 2560
ENCODING 9568
SWIDTH 960 0
DWIDTH 16 0
BBX 16 16 0 -2
BITMAP
0000
0000
0200
0200
0400
0400
0800
0800
1010
1010
2008
2008
4004
7ffc
0000
0000
ENDCHAR
STARTCHAR 2561
ENCODING 9569
SWIDTH 960 0
DWIDTH 16 0
BBX 16 16 0 -2
BITMAP
0000
0000
0010
0010
0010
1810
0620
01a0
0060
0098
0104
0200
0c00
3000
0000
0000
ENDCHAR
STARTCHAR 2562
ENCODING 9570
SWIDTH 960 0
DWIDTH 16 0
BBX 16 16 0 -2
BITMAP
0000
0000
3ff8
0400
0400
0400
0400
7ffc
0400
0400
0400
0400
0400
03f8
0000
0000
ENDCHAR
STARTCHAR 2563
ENCODING 9571
SWIDTH 960 0
DWIDTH 16 0
BBX 16 16 0 -2
BITMAP
0000
0000
0000
0000
0400
0438
03c8
1e08
0110
0120
0100
0080
0080
0080
0000
0000
ENDCHAR
STARTCHAR 2564
ENCODING 9572
SWIDTH 960 0
DWIDTH 16 0
BBX 16 16 0 -2
BITMAP
0000
1000
1000
107c
0f84
7804
0808
0408
0410
0460
0200
0200
0200
0200
0000
0000
ENDCHAR
STARTCHAR 2565
ENCODING 9573
SWIDTH 960 0
DWIDTH 16 0
BBX 16 16 0 -2
BITMAP
0000
0000
0000
0000
0000
0fc0
0040
0040
0040
0080
0080
0080
0100
1ff0
0000
0000
ENDCHAR
STARTCHAR 2566
ENCODING 9574
SWIDTH 960 0
DWIDTH 16 0
BBX 16 16 0 -2
BITMAP
0000
0000
1ff0
0010
0010
0010
0020
0020
0020
0020
0040
0040
0040
3ffc
0000
0000
ENDCHAR
STARTCHAR 2567
ENCODING 9575
SWIDTH 960 0
DWIDTH 16 0
BBX 16 16 0 -2
BITMAP
0000
0000
0000
0000
0000
1ff0
0010
0010
0010
0ff0
0010
0010
0010
1ff0
0000
0000
ENDCHAR
STARTCHAR 2568
ENCODING 9576
SWIDTH 960 0
DWIDTH 16 0
BBX 16 16 0 -2
BITMAP
0000
0000
3ffc
0004
0004
0004
0004
1ffc
0004
0004
0004
0004
0004
3ffc
0000
0000
ENDCHAR
STARTCHAR 2569
ENCODING 9577
SWIDTH 960 0
DWIDTH 16 0
BBX 16 16 0 -2
BITMAP
0000
0000
1ff8
0000
0000
3ffc
0004
0004
0004
0008
0008
0010
0060
0780
0000
0000
ENDCHAR
STARTCHAR 256a
ENCODING 9578
SWIDTH 960 0
DWIDTH 16 0
BBX 16 16 0 -2
BITMAP
0000
2008
2008
2008
2008
2008
2008
2008
2008
0008
0010
0020
00c0
0f00
0000
0000
ENDCHAR
STARTCHAR 256b
ENCODING 9579
SWIDTH 960 0
DWIDTH 16 0
BBX 16 16 0 -2
BITMAP
0000
0880
0880
0880
0880
0880
0880
0882
0882
0884
1084
1088
20b0
20c0
0000
0000
ENDCHAR
STARTCHAR 256c
ENCODING 9580
SWIDTH 960 0
DWIDTH 16 0
BBX 16 16 0 -2
BITMAP
0000
2000
2000
2000
2000
2004
2004
2008
2008
2010
2020
20c0
2300
3c00
0000
0000
ENDCHAR
STARTCHAR 256d
ENCODING 9581
SWIDTH 960 0
DWIDTH 16 0
BBX 16 16 0 -2
BITMAP
0000
0000
3ffc
2004
2004
2004
2004
2004
2004
2004
2004
2004
2004
3ffc
0000
0000
ENDCHAR
STARTCHAR 256e
ENCODING 9582
SWIDTH 960 0
DWIDTH 16 0
BBX 16 16 0 -2
BITMAP
0000
0000
0000
0000
0000
1ff8
1008
1008
1008
0008
0010
0010
0060
0380
0000
0000
ENDCHAR
STARTCHAR 256f
ENCODING 9583
SWIDTH 960 0
DWIDTH 16 0
BBX 16 16 0 -2
BITMAP
0000
0000
3ffc
2004
2004
2004
2004
0004
0008
0008
0010
0020
00c0
0700
0000
0000
ENDCHAR
STARTCHAR 2570
ENCODING 9584
SWIDTH 960 0
DWIDTH 16 0
BBX 16 16 0 -2
BITMAP
0000
0010
0010
3ffc
0810
0810
0810
0810
0810
0810
0810
7ffc
0010
0010
0000
0000
ENDCHAR
STARTCHAR 2571
ENCODING 9585
SWIDTH 960 0
DWIDTH 16 0
BBX 16 16 0 -2
BITMAP
0000
0000
3ff8
0008
0108
0110
0120
0140
0100
0100
0100
0100
0100
7ffc
0000
0000
ENDCHAR
STARTCHAR 2572
ENCODING 9586
SWIDTH 960 0
DWIDTH 16 0
BBX 16 16 0 -2
BITMAP
0000
0000
3ffc
0004
0004
0004
3ffc
0004
0008
0008
0010
0060
0180
0e00
0000
0000
ENDCHAR
STARTCHAR 2573
ENCODING 9587
SWIDTH 960 0
DWIDTH 16 0
BBX 16 16 0 -2
BITMAP
0000
0000
3800
0604
0004
0004
0008
0008
0010
0010
0020
00c0
0300
3c00
0000
0000
ENDCHAR
STARTCHAR 2574
ENCODING 9588
SWIDTH 960 0
DWIDTH 16 0
BBX 16 16 0 -2
BITMAP
0024
0112
0100
3ffc
2004
2004
2004
2004
0004
0008
0008
0030
00c0
0700
0000
0000
ENDCHAR
STARTCHAR 2575
ENCODING 9589
SWIDTH 960 0
DWIDTH 16 0
BBX 16 16 0 -2
BITMAP
0000
0000
0000
0000
0200
0200
1ff8
0208
0208
0408
0408
0810
0910
10e0
0000
0000
ENDCHAR
STARTCHAR 2576
ENCODING 9590
SWIDTH 960 0
DWIDTH 16 0
BBX 16 16 0 -2
BITMAP
0000
0000
0000
0000
0800
0800
0ff8
1040
1040
2040
0080
0080
0300
0c00
0000
0000
ENDCHAR
STARTCHAR 2577
ENCODING 9591
SWIDTH 960 0
DWIDTH 16 0
BBX 16 16 0 -2
BITMAP
0000
0000
0000
0000
0000
0000
0000
0000
0000
0000
0000
0000
0000
0000
0000
0000
ENDCHAR
STARTCHAR 2578
ENCODING 9592
SWIDTH 960 0
DWIDTH 16 0
BBX 16 16 0 -2
BITMAP
0000
0000
0000
0000
0000
0000
0000
0000
0000
0000
0000
0000
0000
0000
0000
0000
ENDCHAR
STARTCHAR 2579
ENCODING 9593
SWIDTH 960 0
DWIDTH 16 0
BBX 16 16 0 -2
BITMAP
0000
0000
0000
0000
0000
0000
0000
0000
0000
0000
0000
0000
0000
0000
0000
0000
ENDCHAR
STARTCHAR 257a
ENCODING 9594
SWIDTH 960 0
DWIDTH 16 0
BBX 16 16 0 -2
BITMAP
0000
0000
0000
0000
0000
0000
0000
0000
0000
0000
0000
0000
0000
0000
0000
0000
ENDCHAR
STARTCHAR 257b
ENCODING 9595
SWIDTH 960 0
DWIDTH 16 0
BBX 16 16 0 -2
BITMAP
0000
0000
0000
0000
0000
0000
0000
0000
0000
0000
0000
0000
0000
0000
0000
0000
ENDCHAR
STARTCHAR 257c
ENCODING 9596
SWIDTH 960 0
DWIDTH 16 0
BBX 16 16 0 -2
BITMAP
0000
0000
0000
0000
0000
0000
0000
0000
0000
0000
0000
0000
0000
0000
0000
0000
ENDCHAR
STARTCHAR 257d
ENCODING 9597
SWIDTH 960 0
DWIDTH 16 0
BBX 16 16 0 -2
BITMAP
0000
0000
0000
0000
0000
0000
0000
0000
0000
0000
0000
0000
0000
0000
0000
0000
ENDCHAR
STARTCHAR 257e
ENCODING 9598
SWIDTH 960 0
DWIDTH 16 0
BBX 16 16 0 -2
BITMAP
0000
0000
0000
0000
0000
0000
0000
0000
0000
0000
0000
0000
0000
0000
0000
0000
ENDCHAR
STARTCHAR 2621
ENCODING 9761
SWIDTH 960 0
DWIDTH 16 0
BBX 16 16 0 -2
BITMAP
0000
0080
0080
0140
0140
0220
0220
0410
07F0
0410
0808
0808
1004
380E
0000
0000
ENDCHAR
STARTCHAR 2622
ENCODING 9762
SWIDTH 960 0
DWIDTH 16 0
BBX 16 16 0 -2
BITMAP
0000
3FE0
0810
0808
0808
0810
0FE0
0810
0808
0804
0804
0808
0830
3FC0
0000
0000
ENDCHAR
STARTCHAR 2623
ENCODING 9763
SWIDTH 960 0
DWIDTH 16 0
BBX 16 16 0 -2
BITMAP
0000
1FF8
0408
0404
0400
0400
0400
0400
0400
0400
0400
0400
0400
0E00
0000
0000
ENDCHAR
STARTCHAR 2624
ENCODING 9764
SWIDTH 960 0
DWIDTH 16 0
BBX 16 16 0 -2
BITMAP
0000
0100
0100
0280
0280
0440
0440
0820
0820
0810
1010
1010
2008
7FFC
0000
0000
ENDCHAR
STARTCHAR 2625
ENCODING 9765
SWIDTH 960 0
DWIDTH 16 0
BBX 16 16 0 -2
BITMAP
0000
3FF8
0808
0804
0800
0800
0840
0FC0
0840
0800
0800
0804
0808
3FF8
0000
0000
ENDCHAR
STARTCHAR 2626
ENCODING 9766
SWIDTH 960 0
DWIDTH 16 0
BBX 16 16 0 -2
BITMAP
0000
0FF8
0810
1020
0040
0040
0080
0100
0100
0200
0400
0408
0808
1FF8
0000
0000
ENDCHAR
STARTCHAR 2627
ENCODING 9767
SWIDTH 960 0
DWIDTH 16 0
BBX 16 16 0 -2
BITMAP
0000
381C
1008
1008
1008
1008
1008
1FF8
1008
1008
1008
1008
1008
381C
0000
0000
ENDCHAR
STARTCHAR 2628
ENCODING 9768
SWIDTH 960 0
DWIDTH 16 0
BBX 16 16 0 -2
BITMAP
0000
03C0
0C30
1818
1008
2004
2424
27E4
2424
2004
1008
1818
0C30
03C0
0000
0000
ENDCHAR
STARTCHAR 2629
ENCODING 9769
SWIDTH 960 0
DWIDTH 16 0
BBX 16 16 0 -2
BITMAP
0000
0380
0100
0100
0100
0100
0100
0100
0100
0100
0100
0100
0100
0380
0000
0000
ENDCHAR
STARTCHAR 262a
ENCODING 9770
SWIDTH 960 0
DWIDTH 16 0
BBX 16 16 0 -2
BITMAP
0000
1C1C
0810
0820
0840
0880
0900
0B00
0C80
0840
0820
0810
0808
1C0E
0000
0000
ENDCHAR
STARTCHAR 262b
ENCODING 9771
SWIDTH 960 0
DWIDTH 16 0
BBX 16 16 0 -2
BITMAP
0000
0080
0080
0140
0140
0220
0220
0410
0410
0410
0808
0808
1004
380E
0000
0000
ENDCHAR
STARTCHAR 262c
ENCODING 9772
SWIDTH 960 0
DWIDTH 16 0
BBX 16 16 0 -2
BITMAP
0000
600C
2008
3018
3018
2828
2828
2448
2448
2448
2288
2288
2108
711C
0000
0000
ENDCHAR
STARTCHAR 262d
ENCODING 9773
SWIDTH 960 0
DWIDTH 16 0
BBX 16 16 0 -2
BITMAP
0000
381C
1808
1408
1408
1208
1108
1108
1088
1048
1048
1028
1018
3808
0000
0000
ENDCHAR
STARTCHAR 262e
ENCODING 9774
SWIDTH 960 0
DWIDTH 16 0
BBX 16 16 0 -2
BITMAP
0000
3FFC
2004
0000
0000
0000
1008
1FF8
1008
0000
0000
0000
2004
3FFC
0000
0000
ENDCHAR
STARTCHAR 262f
ENCODING 9775
SWIDTH 960 0
DWIDTH 16 0
BBX 16 16 0 -2
BITMAP
0000
03C0
0C30
1818
1008
2004
2004
2004
2004
2004
1008
1818
0C30
03C0
0000
0000
ENDCHAR
STARTCHAR 2630
ENCODING 9776
SWIDTH 960 0
DWIDTH 16 0
BBX 16 16 0 -2
BITMAP
0000
1FF8
0810
0810
0810
0810
0810
0810
0810
0810
0810
0810
0810
1C38
0000
0000
ENDCHAR
STARTCHAR 2631
ENCODING 9777
SWIDTH 960 0
DWIDTH 16 0
BBX 16 16 0 -2
BITMAP
0000
1FE0
0418
0404
0404
0404
0418
07E0
0400
0400
0400
0400
0400
0E00
0000
0000
ENDCHAR
STARTCHAR 2632
ENCODING 9778
SWIDTH 960 0
DWIDTH 16 0
BBX 16 16 0 -2
BITMAP
0000
1FF0
0810
0408
0200
0100
0080
00C0
0080
0100
0200
0408
0808
1FF8
0000
0000
ENDCHAR
STARTCHAR 2633
ENCODING 9779
SWIDTH 960 0
DWIDTH 16 0
BBX 16 16 0 -2
BITMAP
0000
3FF8
2108
4104
0100
0100
0100
0100
0100
0100
0100
0100
0100
0380
0000
0000
ENDCHAR
STARTCHAR 2634
ENCODING 9780
SWIDTH 960 0
DWIDTH 16 0
BBX 16 16 0 -2
BITMAP
0000
0E38
1144
2082
0080
0080
0080
0080
0080
0080
0080
0080
0080
01C0
0000
0000
ENDCHAR
STARTCHAR 2635
ENCODING 9781
SWIDTH 960 0
DWIDTH 16 0
BBX 16 16 0 -2
BITMAP
0000
01C0
0080
03E0
0C98
0888
1084
1084
1084
0888
0C98
03E0
0080
01C0
0000
0000
ENDCHAR
STARTCHAR 2636
ENCODING 9782
SWIDTH 960 0
DWIDTH 16 0
BBX 16 16 0 -2
BITMAP
0000
3838
1010
0820
0440
0440
0280
0100
0280
0440
0440
0820
1010
3838
0000
0000
ENDCHAR
STARTCHAR 2637
ENCODING 9783
SWIDTH 960 0
DWIDTH 16 0
BBX 16 16 0 -2
BITMAP
0000
0380
610C
9112
1110
1110
1110
1110
1930
0920
07C0
0100
0100
0380
0000
0000
ENDCHAR
STARTCHAR 2638
ENCODING 9784
SWIDTH 960 0
DWIDTH 16 0
BBX 16 16 0 -2
BITMAP
0000
01C0
0630
0C18
0808
1004
1004
1004
0808
0C18
0630
1144
1144
1F7C
0000
0000
ENDCHAR
STARTCHAR 2641
ENCODING 9793
SWIDTH 960 0
DWIDTH 16 0
BBX 16 16 0 -2
BITMAP
0000
0000
0000
0000
0000
0008
0388
0450
0850
0860
1040
10C0
1148
0E30
0000
0000
ENDCHAR
STARTCHAR 2642
ENCODING 9794
SWIDTH 960 0
DWIDTH 16 0
BBX 16 16 0 -2
BITMAP
0000
0070
0088
0108
0108
0208
0210
04E0
0420
0410
0810
0810
0A20
09C0
1000
1000
ENDCHAR
STARTCHAR 2643
ENCODING 9795
SWIDTH 960 0
DWIDTH 16 0
BBX 16 16 0 -2
BITMAP
0000
0000
0000
0000
0000
0000
0E18
1120
2140
0180
0180
0100
0200
0200
0400
0400
ENDCHAR
STARTCHAR 2644
ENCODING 9796
SWIDTH 960 0
DWIDTH 16 0
BBX 16 16 0 -2
BITMAP
0000
0180
0260
0210
0108
0080
0340
0440
0820
1020
1040
1040
0880
0700
0000
0000
ENDCHAR
STARTCHAR 2645
ENCODING 9797
SWIDTH 960 0
DWIDTH 16 0
BBX 16 16 0 -2
BITMAP
0000
0000
0000
0000
0000
0000
01E0
0210
0200
01C0
0200
0400
0420
03C0
0000
0000
ENDCHAR
STARTCHAR 2646
ENCODING 9798
SWIDTH 960 0
DWIDTH 16 0
BBX 16 16 0 -2
BITMAP
0200
0410
0420
03C0
0080
0100
0200
0400
0800
0800
0400
0300
0080
0040
0040
0180
ENDCHAR
STARTCHAR 2647
ENCODING 9799
SWIDTH 960 0
DWIDTH 16 0
BBX 16 16 0 -2
BITMAP
0000
0000
0000
0000
0000
0000
0CE0
1310
0210
0410
0410
0420
0820
0820
0040
0040
ENDCHAR
STARTCHAR 2648
ENCODING 9800
SWIDTH 960 0
DWIDTH 16 0
BBX 16 16 0 -2
BITMAP
0000
0060
0090
0108
0208
0208
07F8
0410
0810
0820
0820
0840
0480
0300
0000
0000
ENDCHAR
STARTCHAR 2649
ENCODING 9801
SWIDTH 960 0
DWIDTH 16 0
BBX 16 16 0 -2
BITMAP
0000
0000
0000
0000
0000
0000
0200
0200
0400
0400
0800
0820
08C0
0700
0000
0000
ENDCHAR
STARTCHAR 264a
ENCODING 9802
SWIDTH 960 0
DWIDTH 16 0
BBX 16 16 0 -2
BITMAP
0000
0000
0000
0000
0000
0000
0430
0448
0580
0600
0900
0900
1110
10E0
0000
0000
ENDCHAR
STARTCHAR 264b
ENCODING 9803
SWIDTH 960 0
DWIDTH 16 0
BBX 16 16 0 -2
BITMAP
0000
0080
0040
0040
0040
0040
0040
00C0
0140
0140
0220
0420
0810
1008
0000
0000
ENDCHAR
STARTCHAR 264c
ENCODING 9804
SWIDTH 960 0
DWIDTH 16 0
BBX 16 16 0 -2
BITMAP
0000
0000
0000
0000
0000
0000
0420
0420
0420
0440
0840
0840
0CC8
1330
1000
2000
ENDCHAR
STARTCHAR 264d
ENCODING 9805
SWIDTH 960 0
DWIDTH 16 0
BBX 16 16 0 -2
BITMAP
0000
0000
0000
0000
0000
0000
1810
0410
0420
0420
0440
0880
0B00
1C00
0000
0000
ENDCHAR
STARTCHAR 264e
ENCODING 9806
SWIDTH 960 0
DWIDTH 16 0
BBX 16 16 0 -2
BITMAP
0010
00E0
0100
0080
03E0
0400
0400
0200
0FC0
1000
1000
0E00
0180
0040
0040
0F80
ENDCHAR
STARTCHAR 264f
ENCODING 9807
SWIDTH 960 0
DWIDTH 16 0
BBX 16 16 0 -2
BITMAP
0000
0000
0000
0000
0000
0000
01C0
0220
0410
0810
0810
0820
0440
0380
0000
0000
ENDCHAR
STARTCHAR 2650
ENCODING 9808
SWIDTH 960 0
DWIDTH 16 0
BBX 16 16 0 -2
BITMAP
0000
0000
0000
0000
0000
0008
0FF0
1240
0240
0240
0480
0480
0890
1060
0000
0000
ENDCHAR
STARTCHAR 2651
ENCODING 9809
SWIDTH 960 0
DWIDTH 16 0
BBX 16 16 0 -2
BITMAP
0000
0000
0000
0000
0000
0000
01C0
0220
0410
0410
0410
0810
0A20
09C0
1000
1000
ENDCHAR
STARTCHAR 2652
ENCODING 9810
SWIDTH 960 0
DWIDTH 16 0
BBX 16 16 0 -2
BITMAP
0000
0000
0000
0000
0000
0008
00F0
0120
0210
0410
0410
0420
0240
0180
0000
0000
ENDCHAR
STARTCHAR 2653
ENCODING 9811
SWIDTH 960 0
DWIDTH 16 0
BBX 16 16 0 -2
BITMAP
0000
0000
0000
0000
0000
0008
0FF0
1100
0100
0200
0200
0420
0440
0380
0000
0000
ENDCHAR
STARTCHAR 2654
ENCODING 9812
SWIDTH 960 0
DWIDTH 16 0
BBX 16 16 0 -2
BITMAP
0000
0000
0000
0000
0000
0000
0110
0108
0108
0110
0210
0220
0240
0180
0000
0000
ENDCHAR
STARTCHAR 2655
ENCODING 9813
SWIDTH 960 0
DWIDTH 16 0
BBX 16 16 0 -2
BITMAP
0000
0020
0020
0020
0040
0040
01E0
0690
0890
0890
0910
0960
0780
0200
0200
0200
ENDCHAR
STARTCHAR 2656
ENCODING 9814
SWIDTH 960 0
DWIDTH 16 0
BBX 16 16 0 -2
BITMAP
0000
0000
0000
0000
0000
0000
0610
0920
0140
0180
0100
0300
0500
0900
1090
2060
ENDCHAR
STARTCHAR 2657
ENCODING 9815
SWIDTH 960 0
DWIDTH 16 0
BBX 16 16 0 -2
BITMAP
0000
0020
0020
0040
0040
0040
0888
1488
0490
0510
0920
0940
0780
0200
0200
0200
ENDCHAR
STARTCHAR 2658
ENCODING 9816
SWIDTH 960 0
DWIDTH 16 0
BBX 16 16 0 -2
BITMAP
0000
0000
0000
0000
0000
0000
0410
0890
1088
1088
2108
2108
2290
1C60
0000
0000
ENDCHAR
STARTCHAR 2721
ENCODING 10017
SWIDTH 960 0
DWIDTH 16 0
BBX 16 16 0 -2
BITMAP
0000
0080
0080
0140
0140
0220
0220
0410
07F0
0410
0808
0808
1004
380E
0000
0000
ENDCHAR
STARTCHAR 2722
ENCODING 10018
SWIDTH 960 0
DWIDTH 16 0
BBX 16 16 0 -2
BITMAP
0000
3FF0
0810
0808
0800
0800
0FE0
0810
0808
0804
0804
0808
0830
3FC0
0000
0000
ENDCHAR
STARTCHAR 2723
ENCODING 10019
SWIDTH 960 0
DWIDTH 16 0
BBX 16 16 0 -2
BITMAP
0000
3FE0
0810
0808
0808
0810
0FE0
0810
0808
0804
0804
0808
0830
3FC0
0000
0000
ENDCHAR
STARTCHAR 2724
ENCODING 10020
SWIDTH 960 0
DWIDTH 16 0
BBX 16 16 0 -2
BITMAP
0000
1FF8
0408
0404
0400
0400
0400
0400
0400
0400
0400
0400
0400
0E00
0000
0000
ENDCHAR
STARTCHAR 2725
ENCODING 10021
SWIDTH 960 0
DWIDTH 16 0
BBX 16 16 0 -2
BITMAP
0000
0FFC
0210
0210
0210
0210
0210
0210
0210
0210
0410
0410
0810
3FFC
2004
2004
ENDCHAR
STARTCHAR 2726
ENCODING 10022
SWIDTH 960 0
DWIDTH 16 0
BBX 16 16 0 -2
BITMAP
0000
3FF8
0808
0804
0800
0800
0840
0FC0
0840
0800
0800
0804
0808
3FF8
0000
0000
ENDCHAR
STARTCHAR 2727
ENCODING 10023
SWIDTH 960 0
DWIDTH 16 0
BBX 16 16 0 -2
BITMAP
0410
0410
0000
3FF0
0810
0808
0800
0840
0FC0
0840
0800
0808
0810
3FF0
0000
0000
ENDCHAR
STARTCHAR 2728
ENCODING 10024
SWIDTH 960 0
DWIDTH 16 0
BBX 16 16 0 -2
BITMAP
0000
31C6
4889
0888
0888
0888
0490
07F0
0888
1084
1084
2082
2082
71C7
0000
0000
ENDCHAR
STARTCHAR 2729
ENCODING 10025
SWIDTH 960 0
DWIDTH 16 0
BBX 16 16 0 -2
BITMAP
0000
03C0
0C30
1018
0008
0008
0010
03E0
0010
0008
0008
1010
0C30
03C0
0000
0000
ENDCHAR
STARTCHAR 272a
ENCODING 10026
SWIDTH 960 0
DWIDTH 16 0
BBX 16 16 0 -2
BITMAP
0000
381C
1018
1028
1028
1048
1088
1088
1108
1208
1208
1408
1808
101C
0000
0000
ENDCHAR
STARTCHAR 272b
ENCODING 10027
SWIDTH 960 0
DWIDTH 16 0
BBX 16 16 0 -2
BITMAP
0660
0420
3BCC
1018
1018
1028
1048
1088
1088
1108
1208
1408
1808
101C
0000
0000
ENDCHAR
STARTCHAR 272c
ENCODING 10028
SWIDTH 960 0
DWIDTH 16 0
BBX 16 16 0 -2
BITMAP
0000
1C38
0844
0840
0880
0880
0900
0F00
0880
0840
0820
0810
0808
1C1C
0000
0000
ENDCHAR
STARTCHAR 272d
ENCODING 10029
SWIDTH 960 0
DWIDTH 16 0
BBX 16 16 0 -2
BITMAP
0000
0FF8
0210
0210
0210
0210
0210
0210
0210
0410
0410
0810
5010
6038
0000
0000
ENDCHAR
STARTCHAR 272e
ENCODING 10030
SWIDTH 960 0
DWIDTH 16 0
BBX 16 16 0 -2
BITMAP
0000
300C
1008
1818
1818
1428
1428
1228
1248
2244
2144
2184
2084
788E
0000
0000
ENDCHAR
STARTCHAR 272f
ENCODING 10031
SWIDTH 960 0
DWIDTH 16 0
BBX 16 16 0 -2
BITMAP
0000
381C
1008
1008
1008
1008
1008
1FF8
1008
1008
1008
1008
1008
381C
0000
0000
ENDCHAR
STARTCHAR 2730
ENCODING 10032
SWIDTH 960 0
DWIDTH 16 0
BBX 16 16 0 -2
BITMAP
0000
03C0
0C30
1818
1008
2004
2004
2004
2004
2004
1008
1818
0C30
03C0
0000
0000
ENDCHAR
STARTCHAR 2731
ENCODING 10033
SWIDTH 960 0
DWIDTH 16 0
BBX 16 16 0 -2
BITMAP
0000
1FFC
0808
0808
0808
0808
0808
0808
0808
0808
0808
0808
0808
1C1C
0000
0000
ENDCHAR
STARTCHAR 2732
ENCODING 10034
SWIDTH 960 0
DWIDTH 16 0
BBX 16 16 0 -2
BITMAP
0000
1FE0
0418
0404
0404
0404
0418
07E0
0400
0400
0400
0400
0400
0E00
0000
0000
ENDCHAR
STARTCHAR 2733
ENCODING 10035
SWIDTH 960 0
DWIDTH 16 0
BBX 16 16 0 -2
BITMAP
0000
03C0
0C28
1818
1008
2000
2000
2000
2000
2000
1008
1818
0C30
03C0
0000
0000
ENDCHAR
STARTCHAR 2734
ENCODING 10036
SWIDTH 960 0
DWIDTH 16 0
BBX 16 16 0 -2
BITMAP
0000
3FF8
2108
4104
0100
0100
0100
0100
0100
0100
0100
0100
0100
0380
0000
0000
ENDCHAR
STARTCHAR 2735
ENCODING 10037
SWIDTH 960 0
DWIDTH 16 0
BBX 16 16 0 -2
BITMAP
0000
1C1C
0808
0410
0410
0220
0220
0140
0140
0080
0080
0100
1200
0C00
0000
0000
ENDCHAR
STARTCHAR 2736
ENCODING 10038
SWIDTH 960 0
DWIDTH 16 0
BBX 16 16 0 -2
BITMAP
0000
01C0
0080
03E0
0C98
0888
1084
1084
1084
0888
0C98
03E0
0080
01C0
0000
0000
ENDCHAR
STARTCHAR 2737
ENCODING 10039
SWIDTH 960 0
DWIDTH 16 0
BBX 16 16 0 -2
BITMAP
0000
3838
1010
0820
0440
0440
0280
0100
0280
0440
0440
0820
1010
3838
0000
0000
ENDCHAR
STARTCHAR 2738
ENCODING 10040
SWIDTH 960 0
DWIDTH 16 0
BBX 16 16 0 -2
BITMAP
0000
3838
1010
1010
1010
1010
1010
1010
1010
1010
1010
1010
1010
3FFC
0004
0004
ENDCHAR
STARTCHAR 2739
ENCODING 10041
SWIDTH 960 0
DWIDTH 16 0
BBX 16 16 0 -2
BITMAP
0000
1C38
0810
0810
0810
0810
0810
0430
03D0
0010
0010
0010
0010
0038
0000
0000
ENDCHAR
STARTCHAR 273a
ENCODING 10042
SWIDTH 960 0
DWIDTH 16 0
BBX 16 16 0 -2
BITMAP
0000
39CE
1084
1084
1084
1084
1084
1084
1084
1084
1084
1084
1084
3FFE
0000
0000
ENDCHAR
STARTCHAR 273b
ENCODING 10043
SWIDTH 960 0
DWIDTH 16 0
BBX 16 16 0 -2
BITMAP
0000
39CE
1084
1084
1084
1084
1084
1084
1084
1084
1084
1084
1084
3FFF
0001
0001
ENDCHAR
STARTCHAR 273c
ENCODING 10044
SWIDTH 960 0
DWIDTH 16 0
BBX 16 16 0 -2
BITMAP
0000
3F00
2200
4200
0200
0200
03F0
020C
0206
0202
0202
0206
020C
07F0
0000
0000
ENDCHAR
STARTCHAR 273d
ENCODING 10045
SWIDTH 960 0
DWIDTH 16 0
BBX 16 16 0 -2
BITMAP
0000
381C
1008
1008
1008
1008
1E08
1188
10C8
1048
1048
10C8
1188
3E1C
0000
0000
ENDCHAR
STARTCHAR 273e
ENCODING 10046
SWIDTH 960 0
DWIDTH 16 0
BBX 16 16 0 -2
BITMAP
0000
1C00
0800
0800
0800
0800
0FC0
0830
0818
0808
0808
0818
0830
1FC0
0000
0000
ENDCHAR
STARTCHAR 273f
ENCODING 10047
SWIDTH 960 0
DWIDTH 16 0
BBX 16 16 0 -2
BITMAP
0000
03C0
0C30
0818
1008
000C
0714
08E4
0004
0004
1008
0818
0C30
03C0
0000
0000
ENDCHAR
STARTCHAR 2740
ENCODING 10048
SWIDTH 960 0
DWIDTH 16 0
BBX 16 16 0 -2
BITMAP
0000
3870
1088
1104
1104
1202
1202
1E02
1202
1202
1104
1104
1088
3870
0000
0000
ENDCHAR
STARTCHAR 2741
ENCODING 10049
SWIDTH 960 0
DWIDTH 16 0
BBX 16 16 0 -2
BITMAP
0000
03F8
0C10
1010
1010
1010
0C10
03F0
0110
0210
0410
0410
1810
6038
0000
0000
ENDCHAR
STARTCHAR 2751
ENCODING 10065
SWIDTH 960 0
DWIDTH 16 0
BBX 16 16 0 -2
BITMAP
0000
0000
0000
0000
0000
03C0
0420
0020
03A0
0460
0820
0860
08A8
0718
0000
0000
ENDCHAR
STARTCHAR 2752
ENCODING 10066
SWIDTH 960 0
DWIDTH 16 0
BBX 16 16 0 -2
BITMAP
0000
0010
01E0
0200
0400
0400
0BC0
0C20
0810
0810
0810
0810
0420
03C0
0000
0000
ENDCHAR
STARTCHAR 2753
ENCODING 10067
SWIDTH 960 0
DWIDTH 16 0
BBX 16 16 0 -2
BITMAP
0000
0000
0000
0000
0000
0FE0
0410
0410
0420
07E0
0410
0410
0410
0FE0
0000
0000
ENDCHAR
STARTCHAR 2754
ENCODING 10068
SWIDTH 960 0
DWIDTH 16 0
BBX 16 16 0 -2
BITMAP
0000
0000
0000
0000
0000
0FF0
0410
0410
0400
0400
0400
0400
0400
0E00
0000
0000
ENDCHAR
STARTCHAR 2755
ENCODING 10069
SWIDTH 960 0
DWIDTH 16 0
BBX 16 16 0 -2
BITMAP
0000
0000
0000
0000
0000
07F0
0220
0220
0220
0220
0220
0420
0420
1FF8
1008
1008
ENDCHAR
STARTCHAR 2756
ENCODING 10070
SWIDTH 960 0
DWIDTH 16 0
BBX 16 16 0 -2
BITMAP
0000
0000
0000
0000
0000
0380
0440
0820
0820
0FE0
0800
0800
0420
03C0
0000
0000
ENDCHAR
STARTCHAR 2757
ENCODING 10071
SWIDTH 960 0
DWIDTH 16 0
BBX 16 16 0 -2
BITMAP
0000
0000
0440
0440
0000
0380
0440
0820
0820
0FE0
0800
0800
0420
03C0
0000
0000
ENDCHAR
STARTCHAR 2758
ENCODING 10072
SWIDTH 960 0
DWIDTH 16 0
BBX 16 16 0 -2
BITMAP
0000
0000
0000
0000
0000
19CC
0888
0490
03E0
02A0
0490
0490
0888
11C4
0000
0000
ENDCHAR
STARTCHAR 2759
ENCODING 10073
SWIDTH 960 0
DWIDTH 16 0
BBX 16 16 0 -2
BITMAP
0000
0000
0000
0000
0000
03E0
0610
0010
0020
01E0
0010
0010
0610
03E0
0000
0000
ENDCHAR
STARTCHAR 275a
ENCODING 10074
SWIDTH 960 0
DWIDTH 16 0
BBX 16 16 0 -2
BITMAP
0000
0000
0000
0000
0000
0E1C
0408
0418
0428
0448
0588
0608
0408
0E1C
0000
0000
ENDCHAR
STARTCHAR 275b
ENCODING 10075
SWIDTH 960 0
DWIDTH 16 0
BBX 16 16 0 -2
BITMAP
0000
0000
0330
0210
01E0
0E1C
0408
0418
0428
0448
0588
0608
0408
0E1C
0000
0000
ENDCHAR
STARTCHAR 275c
ENCODING 10076
SWIDTH 960 0
DWIDTH 16 0
BBX 16 16 0 -2
BITMAP
0000
0000
0000
0000
0000
0E30
0450
0480
0500
0700
0480
0440
0420
0E38
0000
0000
ENDCHAR
STARTCHAR 275d
ENCODING 10077
SWIDTH 960 0
DWIDTH 16 0
BBX 16 16 0 -2
BITMAP
0000
0000
0000
0000
0000
03F8
0110
0110
0110
0110
0110
1110
1210
0C38
0000
0000
ENDCHAR
STARTCHAR 275e
ENCODING 10078
SWIDTH 960 0
DWIDTH 16 0
BBX 16 16 0 -2
BITMAP
0000
0000
0000
0000
0000
1C1C
0C18
0A28
0A28
0948
0948
0888
0888
1C1C
0000
0000
ENDCHAR
STARTCHAR 275f
ENCODING 10079
SWIDTH 960 0
DWIDTH 16 0
BBX 16 16 0 -2
BITMAP
0000
0000
0000
0000
0000
0E38
0410
0410
0410
07F0
0410
0410
0410
0E38
0000
0000
ENDCHAR
STARTCHAR 2760
ENCODING 10080
SWIDTH 960 0
DWIDTH 16 0
BBX 16 16 0 -2
BITMAP
0000
0000
0000
0000
0000
03C0
0420
0810
0810
0810
0810
0810
0420
03C0
0000
0000
ENDCHAR
STARTCHAR 2761
ENCODING 10081
SWIDTH 960 0
DWIDTH 16 0
BBX 16 16 0 -2
BITMAP
0000
0000
0000
0000
0000
1FF0
0820
0820
0820
0820
0820
0820
0820
1C70
0000
0000
ENDCHAR
STARTCHAR 2762
ENCODING 10082
SWIDTH 960 0
DWIDTH 16 0
BBX 16 16 0 -2
BITMAP
0000
0000
0000
0000
0000
0DC0
0620
0410
0410
0410
0410
0620
05C0
0400
0400
0E00
ENDCHAR
STARTCHAR 2763
ENCODING 10083
SWIDTH 960 0
DWIDTH 16 0
BBX 16 16 0 -2
BITMAP
0000
0000
0000
0000
0000
0380
0440
0820
0800
0800
0800
0820
0440
0380
0000
0000
ENDCHAR
STARTCHAR 2764
ENCODING 10084
SWIDTH 960 0
DWIDTH 16 0
BBX 16 16 0 -2
BITMAP
0000
0000
0000
0000
0000
1FF0
1110
1110
0100
0100
0100
0100
0100
0380
0000
0000
ENDCHAR
STARTCHAR 2765
ENCODING 10085
SWIDTH 960 0
DWIDTH 16 0
BBX 16 16 0 -2
BITMAP
0000
0000
0000
0000
0000
0E38
0410
0410
0220
0220
0140
0140
0080
0100
0900
0600
ENDCHAR
STARTCHAR 2766
ENCODING 10086
SWIDTH 960 0
DWIDTH 16 0
BBX 16 16 0 -2
BITMAP
0000
0180
0080
0080
0080
0080
06B0
09C8
1084
1084
1084
1084
09C8
06B0
0080
01C0
ENDCHAR
STARTCHAR 2767
ENCODING 10087
SWIDTH 960 0
DWIDTH 16 0
BBX 16 16 0 -2
BITMAP
0000
0000
0000
0000
0000
0E38
0410
0220
0140
0080
0140
0220
0410
0E38
0000
0000
ENDCHAR
STARTCHAR 2768
ENCODING 10088
SWIDTH 960 0
DWIDTH 16 0
BBX 16 16 0 -2
BITMAP
0000
0000
0000
0000
0000
1C70
0820
0820
0820
0820
0820
0820
0820
1FF8
0008
0008
ENDCHAR
STARTCHAR 2769
ENCODING 10089
SWIDTH 960 0
DWIDTH 16 0
BBX 16 16 0 -2
BITMAP
0000
0000
0000
0000
0000
0E38
0410
0410
0410
0410
03F0
0010
0010
0038
0000
0000
ENDCHAR
STARTCHAR 276a
ENCODING 10090
SWIDTH 960 0
DWIDTH 16 0
BBX 16 16 0 -2
BITMAP
0000
0000
0000
0000
0000
39CE
1084
1084
1084
1084
1084
1084
1084
3FFE
0000
0000
ENDCHAR
STARTCHAR 276b
ENCODING 10091
SWIDTH 960 0
DWIDTH 16 0
BBX 16 16 0 -2
BITMAP
0000
0000
0000
0000
0000
39CE
1084
1084
1084
1084
1084
1084
1084
3FFF
0001
0001
ENDCHAR
STARTCHAR 276c
ENCODING 10092
SWIDTH 960 0
DWIDTH 16 0
BBX 16 16 0 -2
BITMAP
0000
0000
0000
0000
0000
1F80
1100
1100
0100
01F0
010C
0104
010C
03F0
0000
0000
ENDCHAR
STARTCHAR 276d
ENCODING 10093
SWIDTH 960 0
DWIDTH 16 0
BBX 16 16 0 -2
BITMAP
0000
0000
0000
0000
0000
1C1C
0808
0808
0808
0F08
08C8
0848
08C8
1F1C
0000
0000
ENDCHAR
STARTCHAR 276e
ENCODING 10094
SWIDTH 960 0
DWIDTH 16 0
BBX 16 16 0 -2
BITMAP
0000
0000
0000
0000
0000
0700
0200
0200
0200
03E0
0218
0208
0218
07E0
0000
0000
ENDCHAR
STARTCHAR 276f
ENCODING 10095
SWIDTH 960 0
DWIDTH 16 0
BBX 16 16 0 -2
BITMAP
0000
0000
0000
0000
0000
03C0
0420
0810
0330
04D0
0010
0810
0420
03C0
0000
0000
ENDCHAR
STARTCHAR 2770
ENCODING 10096
SWIDTH 960 0
DWIDTH 16 0
BBX 16 16 0 -2
BITMAP
0000
0000
0000
0000
0000
1C70
0888
0904
0904
0F04
0904
0904
0888
1C70
0000
0000
ENDCHAR
STARTCHAR 2771
ENCODING 10097
SWIDTH 960 0
DWIDTH 16 0
BBX 16 16 0 -2
BITMAP
0000
0000
0000
0000
0000
07F0
0820
0820
0820
07E0
0220
0420
0420
1870
0000
0000
ENDCHAR
STARTCHAR 2821
ENCODING 10273
SWIDTH 960 0
DWIDTH 16 0
BBX 16 16 0 -2
BITMAP
0000
0000
0000
0000
0000
0000
0000
FFFF
0000
0000
0000
0000
0000
0000
0000
0000
ENDCHAR
STARTCHAR 2822
ENCODING 10274
SWIDTH 960 0
DWIDTH 16 0
BBX 16 16 0 -2
BITMAP
0100
0100
0100
0100
0100
0100
0100
0100
0100
0100
0100
0100
0100
0100
0100
0100
ENDCHAR
STARTCHAR 2823
ENCODING 10275
SWIDTH 960 0
DWIDTH 16 0
BBX 16 16 0 -2
BITMAP
0000
0000
0000
0000
0000
0000
0000
01FF
0100
0100
0100
0100
0100
0100
0100
0100
ENDCHAR
STARTCHAR 2824
ENCODING 10276
SWIDTH 960 0
DWIDTH 16 0
BBX 16 16 0 -2
BITMAP
0000
0000
0000
0000
0000
0000
0000
FF00
0100
0100
0100
0100
0100
0100
0100
0100
ENDCHAR
STARTCHAR 2825
ENCODING 10277
SWIDTH 960 0
DWIDTH 16 0
BBX 16 16 0 -2
BITMAP
0100
0100
0100
0100
0100
0100
0100
FF00
0000
0000
0000
0000
0000
0000
0000
0000
ENDCHAR
STARTCHAR 2826
ENCODING 10278
SWIDTH 960 0
DWIDTH 16 0
BBX 16 16 0 -2
BITMAP
0100
0100
0100
0100
0100
0100
0100
01FF
0000
0000
0000
0000
0000
0000
0000
0000
ENDCHAR
STARTCHAR 2827
ENCODING 10279
SWIDTH 960 0
DWIDTH 16 0
BBX 16 16 0 -2
BITMAP
0100
0100
0100
0100
0100
0100
0100
01FF
0100
0100
0100
0100
0100
0100
0100
0100
ENDCHAR
STARTCHAR 2828
ENCODING 10280
SWIDTH 960 0
DWIDTH 16 0
BBX 16 16 0 -2
BITMAP
0000
0000
0000
0000
0000
0000
0000
FFFF
0100
0100
0100
0100
0100
0100
0100
0100
ENDCHAR
STARTCHAR 2829
ENCODING 10281
SWIDTH 960 0
DWIDTH 16 0
BBX 16 16 0 -2
BITMAP
0100
0100
0100
0100
0100
0100
0100
FF00
0100
0100
0100
0100
0100
0100
0100
0100
ENDCHAR
STARTCHAR 282a
ENCODING 10282
SWIDTH 960 0
DWIDTH 16 0
BBX 16 16 0 -2
BITMAP
0100
0100
0100
0100
0100
0100
0100
FFFF
0000
0000
0000
0000
0000
0000
0000
0000
ENDCHAR
STARTCHAR 282b
ENCODING 10283
SWIDTH 960 0
DWIDTH 16 0
BBX 16 16 0 -2
BITMAP
0100
0100
0100
0100
0100
0100
0100
FFFF
0100
0100
0100
0100
0100
0100
0100
0100
ENDCHAR
STARTCHAR 282c
ENCODING 10284
SWIDTH 960 0
DWIDTH 16 0
BBX 16 16 0 -2
BITMAP
0000
0000
0000
0000
0000
0000
0000
FFFF
FFFF
0000
0000
0000
0000
0000
0000
0000
ENDCHAR
STARTCHAR 282d
ENCODING 10285
SWIDTH 960 0
DWIDTH 16 0
BBX 16 16 0 -2
BITMAP
0180
0180
0180
0180
0180
0180
0180
0180
0180
0180
0180
0180
0180
0180
0180
0180
ENDCHAR
STARTCHAR 282e
ENCODING 10286
SWIDTH 960 0
DWIDTH 16 0
BBX 16 16 0 -2
BITMAP
0000
0000
0000
0000
0000
0000
0000
01FF
01FF
0180
0180
0180
0180
0180
0180
0180
ENDCHAR
STARTCHAR 282f
ENCODING 10287
SWIDTH 960 0
DWIDTH 16 0
BBX 16 16 0 -2
BITMAP
0000
0000
0000
0000
0000
0000
0000
FF80
FF80
0180
0180
0180
0180
0180
0180
0180
ENDCHAR
STARTCHAR 2830
ENCODING 10288
SWIDTH 960 0
DWIDTH 16 0
BBX 16 16 0 -2
BITMAP
0180
0180
0180
0180
0180
0180
0180
FF80
FF80
0000
0000
0000
0000
0000
0000
0000
ENDCHAR
STARTCHAR 2831
ENCODING 10289
SWIDTH 960 0
DWIDTH 16 0
BBX 16 16 0 -2
BITMAP
0180
0180
0180
0180
0180
0180
0180
01FF
01FF
0000
0000
0000
0000
0000
0000
0000
ENDCHAR
STARTCHAR 2832
ENCODING 10290
SWIDTH 960 0
DWIDTH 16 0
BBX 16 16 0 -2
BITMAP
0180
0180
0180
0180
0180
0180
0180
01FF
01FF
0180
0180
0180
0180
0180
0180
0180
ENDCHAR
STARTCHAR 2833
ENCODING 10291
SWIDTH 960 0
DWIDTH 16 0
BBX 16 16 0 -2
BITMAP
0000
0000
0000
0000
0000
0000
0000
FFFF
FFFF
0180
0180
0180
0180
0180
0180
0180
ENDCHAR
STARTCHAR 2834
ENCODING 10292
SWIDTH 960 0
DWIDTH 16 0
BBX 16 16 0 -2
BITMAP
0180
0180
0180
0180
0180
0180
0180
FF80
FF80
0180
0180
0180
0180
0180
0180
0180
ENDCHAR
STARTCHAR 2835
ENCODING 10293
SWIDTH 960 0
DWIDTH 16 0
BBX 16 16 0 -2
BITMAP
0180
0180
0180
0180
0180
0180
0180
FFFF
FFFF
0000
0000
0000
0000
0000
0000
0000
ENDCHAR
STARTCHAR 2836
ENCODING 10294
SWIDTH 960 0
DWIDTH 16 0
BBX 16 16 0 -2
BITMAP
0180
0180
0180
0180
0180
0180
0180
FFFF
FFFF
0180
0180
0180
0180
0180
0180
0180
ENDCHAR
STARTCHAR 2837
ENCODING 10295
SWIDTH 960 0
DWIDTH 16 0
BBX 16 16 0 -2
BITMAP
0180
0180
0180
0180
0180
0180
0180
01FF
0180
0180
0180
0180
0180
0180
0180
0180
ENDCHAR
STARTCHAR 2838
ENCODING 10296
SWIDTH 960 0
DWIDTH 16 0
BBX 16 16 0 -2
BITMAP
0000
0000
0000
0000
0000
0000
0000
FFFF
FFFF
0100
0100
0100
0100
0100
0100
0100
ENDCHAR
STARTCHAR 2839
ENCODING 10297
SWIDTH 960 0
DWIDTH 16 0
BBX 16 16 0 -2
BITMAP
0180
0180
0180
0180
0180
0180
0180
FF80
0180
0180
0180
0180
0180
0180
0180
0180
ENDCHAR
STARTCHAR 283a
ENCODING 10298
SWIDTH 960 0
DWIDTH 16 0
BBX 16 16 0 -2
BITMAP
0100
0100
0100
0100
0100
0100
0100
FFFF
FFFF
0000
0000
0000
0000
0000
0000
0000
ENDCHAR
STARTCHAR 283b
ENCODING 10299
SWIDTH 960 0
DWIDTH 16 0
BBX 16 16 0 -2
BITMAP
0100
0100
0100
0100
0100
0100
0100
FFFF
FFFF
0100
0100
0100
0100
0100
0100
0100
ENDCHAR
STARTCHAR 283c
ENCODING 10300
SWIDTH 960 0
DWIDTH 16 0
BBX 16 16 0 -2
BITMAP
0100
0100
0100
0100
0100
0100
0100
01FF
01FF
0100
0100
0100
0100
0100
0100
0100
ENDCHAR
STARTCHAR 283d
ENCODING 10301
SWIDTH 960 0
DWIDTH 16 0
BBX 16 16 0 -2
BITMAP
0000
0000
0000
0000
0000
0000
0000
FFFF
0180
0180
0180
0180
0180
0180
0180
0180
ENDCHAR
STARTCHAR 283e
ENCODING 10302
SWIDTH 960 0
DWIDTH 16 0
BBX 16 16 0 -2
BITMAP
0100
0100
0100
0100
0100
0100
0100
FF00
FF00
0100
0100
0100
0100
0100
0100
0100
ENDCHAR
STARTCHAR 283f
ENCODING 10303
SWIDTH 960 0
DWIDTH 16 0
BBX 16 16 0 -2
BITMAP
0180
0180
0180
0180
0180
0180
0180
FFFF
0000
0000
0000
0000
0000
0000
0000
0000
ENDCHAR
STARTCHAR 2840
ENCODING 10304
SWIDTH 960 0
DWIDTH 16 0
BBX 16 16 0 -2
BITMAP
0180
0180
0180
0180
0180
0180
0180
FFFF
0180
0180
0180
0180
0180
0180
0180
0180
ENDCHAR
STARTCHAR 3021
ENCODING 12321
SWIDTH 960 0
DWIDTH 16 0
BBX 16 16 0 -2
BITMAP
0000
3FFF
0220
0220
0220
1FFC
1224
1224
1224
1224
1FFC
0220
0220
0220
7FFF
0000
ENDCHAR
STARTCHAR 3022
ENCODING 12322
SWIDTH 960 0
DWIDTH 16 0
BBX 16 16 0 -2
BITMAP
0000
07FF
7848
4848
4848
4BFE
4A4A
4A4A
4A4A
4BFE
4848
7848
4848
0048
07FF
0000
ENDCHAR
STARTCHAR 3023
ENCODING 12323
SWIDTH 960 0
DWIDTH 16 0
BBX 16 16 0 -2
BITMAP
0810
0810
0810
08FE
7F10
1210
1210
13FF
2210
7C10
44FE
0610
0A10
1010
61FF
0000
ENDCHAR
STARTCHAR 3024
ENCODING 12324
SWIDTH 960 0
DWIDTH 16 0
BBX 16 16 0 -2
BITMAP
0000
3FFF
2404
2404
29E4
3124
2924
2524
2524
2524
25E4
2404
3804
2004
2004
200C
ENDCHAR
STARTCHAR 3025
ENCODING 12325
SWIDTH 960 0
DWIDTH 16 0
BBX 16 16 0 -2
BITMAP
0080
0080
7FFF
0000
0FF8
0808
0808
0808
0FFA
0182
0E84
7248
0230
0390
0E0C
3003
ENDCHAR
STARTCHAR 3026
ENCODING 12326
SWIDTH 960 0
DWIDTH 16 0
BBX 16 16 0 -2
BITMAP
003C
1FC8
1108
0890
7FFE
4482
5448
1414
23F2
4202
07E0
0C20
3340
0180
0670
780E
ENDCHAR
STARTCHAR 3027
ENCODING 12327
SWIDTH 960 0
DWIDTH 16 0
BBX 16 16 0 -2
BITMAP
1040
1050
1048
7C84
13FA
1082
1080
11FE
1520
1A20
73FF
1050
1050
1088
1104
3602
ENDCHAR
STARTCHAR 3028
ENCODING 12328
SWIDTH 960 0
DWIDTH 16 0
BBX 16 16 0 -2
BITMAP
0810
0810
0828
0828
7E44
1282
1301
127C
2200
2400
7CFE
4682
0A82
1082
60FE
0000
ENDCHAR
STARTCHAR 3029
ENCODING 12329
SWIDTH 960 0
DWIDTH 16 0
BBX 16 16 0 -2
BITMAP
0080
20FC
1108
1690
0060
00D8
0707
7820
0BFC
0820
09FC
0820
0FFE
1420
2320
40FF
ENDCHAR
STARTCHAR 302a
ENCODING 12330
SWIDTH 960 0
DWIDTH 16 0
BBX 16 16 0 -2
BITMAP
0220
0220
7FFF
0220
0F48
2152
1224
0C18
17FC
6083
0080
3FFE
0140
0220
0C18
3006
ENDCHAR
STARTCHAR 302b
ENCODING 12331
SWIDTH 960 0
DWIDTH 16 0
BBX 16 16 0 -2
BITMAP
0420
0420
7FFE
0420
0000
7FFE
0240
0240
3FFC
2244
2244
243C
2804
3004
3FFC
0000
ENDCHAR
STARTCHAR 302c
ENCODING 12332
SWIDTH 960 0
DWIDTH 16 0
BBX 16 16 0 -2
BITMAP
0240
0C78
3890
09FC
0AA4
08FC
7FA4
0CFC
1A20
19FE
2922
29FE
4922
09FE
0821
081F
ENDCHAR
STARTCHAR 302d
ENCODING 12333
SWIDTH 960 0
DWIDTH 16 0
BBX 16 16 0 -2
BITMAP
0000
3FFE
0240
0240
1FF8
1248
1248
1FF8
0240
7FFE
0080
1248
1244
2212
4212
01F0
ENDCHAR
STARTCHAR 302e
ENCODING 12334
SWIDTH 960 0
DWIDTH 16 0
BBX 16 16 0 -2
BITMAP
1000
13FE
1202
1202
7FFE
1200
13FE
1228
1644
1BFA
7222
15FC
1420
1820
17FF
3000
ENDCHAR
STARTCHAR 302f
ENCODING 12335
SWIDTH 960 0
DWIDTH 16 0
BBX 16 16 0 -2
BITMAP
1000
13FE
0A02
4A02
43FE
2200
23FE
0228
0A44
0BFA
1222
15FC
2420
2820
57FF
4000
ENDCHAR
STARTCHAR 3030
ENCODING 12336
SWIDTH 960 0
DWIDTH 16 0
BBX 16 16 0 -2
BITMAP
0800
087C
0844
0844
7F44
0944
097C
0944
0944
0944
0944
097C
1100
1101
2081
407F
ENDCHAR
STARTCHAR 3031
ENCODING 12337
SWIDTH 960 0
DWIDTH 16 0
BBX 16 16 0 -2
BITMAP
0210
7FFF
0210
0100
0FF8
0208
7FFF
0000
07F8
0408
07F8
0040
0FFC
0840
7FFF
0040
ENDCHAR
STARTCHAR 3032
ENCODING 12338
SWIDTH 960 0
DWIDTH 16 0
BBX 16 16 0 -2
BITMAP
0210
0210
7FFF
0210
0000
3FFE
0000
0FFC
0804
0804
0FFC
0800
1000
1000
2000
4000
ENDCHAR
STARTCHAR 3033
ENCODING 12339
SWIDTH 960 0
DWIDTH 16 0
BBX 16 16 0 -2
BITMAP
0810
0E18
1224
24FA
7F10
29FF
2928
3F4C
2993
2964
3F08
0532
32C4
2A08
2830
40C0
ENDCHAR
STARTCHAR 3034
ENCODING 12340
SWIDTH 960 0
DWIDTH 16 0
BBX 16 16 0 -2
BITMAP
0820
0820
09FE
7E08
0888
0848
1C50
1BFF
1A20
2820
2820
49FE
0820
0820
0820
0820
ENDCHAR
STARTCHAR 3035
ENCODING 12341
SWIDTH 960 0
DWIDTH 16 0
BBX 16 16 0 -2
BITMAP
0000
1FFE
1000
1040
1040
1040
1040
17FE
1040
1040
1040
2040
2040
5FFF
0000
0000
ENDCHAR
STARTCHAR 3036
ENCODING 12342
SWIDTH 960 0
DWIDTH 16 0
BBX 16 16 0 -2
BITMAP
0810
0810
7F28
0828
3E44
22CA
2329
3E28
2288
2248
3E48
080F
7F38
09C8
0808
0808
ENDCHAR
STARTCHAR 3037
ENCODING 12343
SWIDTH 960 0
DWIDTH 16 0
BBX 16 16 0 -2
BITMAP
1000
13F8
1088
1088
7E90
1090
10BC
10C4
1144
1D24
7128
1110
1218
1224
14C2
3B01
ENDCHAR
STARTCHAR 3038
ENCODING 12344
SWIDTH 960 0
DWIDTH 16 0
BBX 16 16 0 -2
BITMAP
0080
0080
7FFE
4802
4802
0800
0F7C
1144
1244
2A44
4644
0458
0440
0842
1042
603E
ENDCHAR
STARTCHAR 3039
ENCODING 12345
SWIDTH 960 0
DWIDTH 16 0
BBX 16 16 0 -2
BITMAP
0800
08FC
0884
0884
7F84
12FC
1284
1284
2284
2484
7CFC
0684
0A84
1084
67FF
0000
ENDCHAR
STARTCHAR 303a
ENCODING 12346
SWIDTH 960 0
DWIDTH 16 0
BBX 16 16 0 -2
BITMAP
0808
0808
0808
3F08
29FF
2920
2920
2920
3F20
0820
0820
0A20
0920
0F20
789E
0080
ENDCHAR
STARTCHAR 303b
ENCODING 12347
SWIDTH 960 0
DWIDTH 16 0
BBX 16 16 0 -2
BITMAP
0820
0820
1420
1248
2944
7E8E
23F2
3E02
2200
227C
3E44
2444
2244
2644
397C
6000
ENDCHAR
STARTCHAR 303c
ENCODING 12348
SWIDTH 960 0
DWIDTH 16 0
BBX 16 16 0 -2
BITMAP
0840
0840
0A40
727E
1682
0882
0B7A
124A
7F4A
097A
284A
2A4A
297A
2902
4804
0818
ENDCHAR
STARTCHAR 303d
ENCODING 12349
SWIDTH 960 0
DWIDTH 16 0
BBX 16 16 0 -2
BITMAP
0820
0820
0BFC
7220
17FF
0850
0A52
128E
7F40
0A7C
2C88
2B50
2A20
2A50
498C
0A03
ENDCHAR
STARTCHAR 303e
ENCODING 12350
SWIDTH 960 0
DWIDTH 16 0
BBX 16 16 0 -2
BITMAP
0810
0E10
1210
2410
7F1F
2910
2910
3F10
2910
297E
3F42
0242
1542
2A42
2A7E
4000
ENDCHAR
STARTCHAR 303f
ENCODING 12351
SWIDTH 960 0
DWIDTH 16 0
BBX 16 16 0 -2
BITMAP
0048
0044
0044
7FFF
0040
0044
1F44
1144
1128
1128
1F28
0092
0332
0C4A
7186
0602
ENDCHAR
STARTCHAR 3040
ENCODING 12352
SWIDTH 960 0
DWIDTH 16 0
BBX 16 16 0 -2
BITMAP
0000
7FFF
0220
1FFC
1224
1224
1FFC
0888
0488
0290
7FFF
01C0
02A0
0C98
7086
0080
ENDCHAR
STARTCHAR 3041
ENCODING 12353
SWIDTH 960 0
DWIDTH 16 0
BBX 16 16 0 -2
BITMAP
0810
0810
0830
7E28
0248
0444
0484
0AFA
1B01
2C00
4AFC
0984
0884
0884
08FC
0800
ENDCHAR
STARTCHAR 3042
ENCODING 12354
SWIDTH 960 0
DWIDTH 16 0
BBX 16 16 0 -2
BITMAP
0100
0100
7FFE
4202
4202
0200
0200
7FFE
0440
0440
0840
0E40
0180
0260
0C10
3008
ENDCHAR
STARTCHAR 3043
ENCODING 12355
SWIDTH 960 0
DWIDTH 16 0
BBX 16 16 0 -2
BITMAP
0080
0080
1FFE
1040
1FFE
10A0
1110
13FC
1E4B
1248
13F8
1248
2248
23FA
4042
003E
ENDCHAR
STARTCHAR 3044
ENCODING 12356
SWIDTH 960 0
DWIDTH 16 0
BBX 16 16 0 -2
BITMAP
1040
1040
13FE
1202
7E42
1040
1040
13FF
1C88
7088
1110
13D0
1020
1050
1188
3604
ENDCHAR
STARTCHAR 3045
ENCODING 12357
SWIDTH 960 0
DWIDTH 16 0
BBX 16 16 0 -2
BITMAP
0020
0020
7FFE
4488
4448
4450
47FF
7C00
44FC
4484
4484
44FC
7C84
0084
00FC
0000
ENDCHAR
STARTCHAR 3046
ENCODING 12358
SWIDTH 960 0
DWIDTH 16 0
BBX 16 16 0 -2
BITMAP
0080
0080
7FFE
4102
5FFA
0220
0E20
01C0
0638
1884
7FFF
01C0
02A0
0C98
7086
0080
ENDCHAR
STARTCHAR 3047
ENCODING 12359
SWIDTH 960 0
DWIDTH 16 0
BBX 16 16 0 -2
BITMAP
0000
7E7E
4242
7E7E
4242
4242
7E7E
4102
4FF2
4242
5FFA
4422
47E2
4422
47E2
4006
ENDCHAR
STARTCHAR 3048
ENCODING 12360
SWIDTH 960 0
DWIDTH 16 0
BBX 16 16 0 -2
BITMAP
1210
1210
7FFE
1282
12A2
1E20
0820
3FFF
2924
2924
3F44
0868
7F98
0824
0842
0982
ENDCHAR
STARTCHAR 3049
ENCODING 12361
SWIDTH 960 0
DWIDTH 16 0
BBX 16 16 0 -2
BITMAP
0080
0080
0080
7FFF
01C0
02A0
0490
188C
6083
0FF8
0808
0808
0808
0808
0FF8
0000
ENDCHAR
STARTCHAR 304a
ENCODING 12362
SWIDTH 960 0
DWIDTH 16 0
BBX 16 16 0 -2
BITMAP
0000
1008
1008
1008
1208
1108
1088
1088
1008
1008
1018
1114
1622
1842
6081
0301
ENDCHAR
STARTCHAR 304b
ENCODING 12363
SWIDTH 960 0
DWIDTH 16 0
BBX 16 16 0 -2
BITMAP
0400
05FC
0424
0824
0824
1FFF
1824
2824
4824
09FC
0820
0820
0840
0840
0880
0900
ENDCHAR
STARTCHAR 304c
ENCODING 12364
SWIDTH 960 0
DWIDTH 16 0
BBX 16 16 0 -2
BITMAP
0420
0420
0420
0820
0BFE
1804
1804
2904
4888
0888
0888
0890
0890
0820
0FFF
0800
ENDCHAR
STARTCHAR 304d
ENCODING 12365
SWIDTH 960 0
DWIDTH 16 0
BBX 16 16 0 -2
BITMAP
0420
0420
0420
0FFF
08C0
10A2
10A2
3124
5324
1518
1910
1108
1108
1164
1182
1601
ENDCHAR
STARTCHAR 304e
ENCODING 12366
SWIDTH 960 0
DWIDTH 16 0
BBX 16 16 0 -2
BITMAP
0420
05FC
0444
0844
0FFF
1000
11FC
3104
51FC
1010
11FE
1110
1110
17FF
1010
1010
ENDCHAR
STARTCHAR 304f
ENCODING 12367
SWIDTH 960 0
DWIDTH 16 0
BBX 16 16 0 -2
BITMAP
0000
3FFE
2002
2222
2222
2FFA
2222
2222
2222
3FFE
2222
2222
2422
2822
3FFE
0000
ENDCHAR
STARTCHAR 3050
ENCODING 12368
SWIDTH 960 0
DWIDTH 16 0
BBX 16 16 0 -2
BITMAP
0080
0080
7FFF
0080
3FFC
0084
1FFC
1080
1080
1FFE
0142
0142
022C
0410
180C
6003
ENDCHAR
STARTCHAR 3051
ENCODING 12369
SWIDTH 960 0
DWIDTH 16 0
BBX 16 16 0 -2
BITMAP
0018
1FE0
0080
7FFF
01C0
02A0
0C98
7087
0100
7FFF
0210
0210
07A0
0840
01B0
3E0C
ENDCHAR
STARTCHAR 3052
ENCODING 12370
SWIDTH 960 0
DWIDTH 16 0
BBX 16 16 0 -2
BITMAP
0028
0024
0024
1FFF
1020
1FA0
1222
1222
1FD4
1494
1498
1F08
119A
22A6
2C42
4082
ENDCHAR
STARTCHAR 3053
ENCODING 12371
SWIDTH 960 0
DWIDTH 16 0
BBX 16 16 0 -2
BITMAP
0004
3F84
2084
2084
3F84
207F
2F04
2004
2024
3F94
2214
2B04
2A84
2A84
5204
060C
ENDCHAR
STARTCHAR 3054
ENCODING 12372
SWIDTH 960 0
DWIDTH 16 0
BBX 16 16 0 -2
BITMAP
0840
0848
0848
0890
0CFE
2A90
2B90
28FE
4890
0890
08FE
0890
0890
0890
08FF
0880
ENDCHAR
STARTCHAR 3055
ENCODING 12373
SWIDTH 960 0
DWIDTH 16 0
BBX 16 16 0 -2
BITMAP
0080
3FFE
0410
0220
7FFF
0000
07F8
0408
07F8
0408
07F8
1280
1242
2249
4209
01F8
ENDCHAR
STARTCHAR 3056
ENCODING 12374
SWIDTH 960 0
DWIDTH 16 0
BBX 16 16 0 -2
BITMAP
0004
3F84
2084
3F84
207F
2F04
2024
3F94
2214
2A84
5684
050C
1480
1492
2411
43F1
ENDCHAR
STARTCHAR 3057
ENCODING 12375
SWIDTH 960 0
DWIDTH 16 0
BBX 16 16 0 -2
BITMAP
0000
0FF0
0810
0810
0FF0
0810
0810
0FF0
0200
07FC
1894
6114
0624
1844
0188
0030
ENDCHAR
STARTCHAR 3058
ENCODING 12376
SWIDTH 960 0
DWIDTH 16 0
BBX 16 16 0 -2
BITMAP
0820
0820
09FE
7E20
0850
0848
1C84
1BFF
1A04
29E4
2924
4924
09E4
0804
0804
080C
ENDCHAR
STARTCHAR 3059
ENCODING 12377
SWIDTH 960 0
DWIDTH 16 0
BBX 16 16 0 -2
BITMAP
1080
0880
0880
3FF8
0108
0110
03FC
0204
0404
0FFF
0801
1491
3249
4929
0921
0806
ENDCHAR
STARTCHAR 305a
ENCODING 12378
SWIDTH 960 0
DWIDTH 16 0
BBX 16 16 0 -2
BITMAP
0000
1FF8
1088
1088
1FF8
1088
1088
1FF8
0000
7FFF
0904
0888
0850
0B20
0C18
3007
ENDCHAR
STARTCHAR 305b
ENCODING 12379
SWIDTH 960 0
DWIDTH 16 0
BBX 16 16 0 -2
BITMAP
0000
1FFC
1084
1084
1FFC
1084
1084
1FFC
0220
1FFC
0220
0220
7FFF
0230
0C0C
3002
ENDCHAR
STARTCHAR 305c
ENCODING 12380
SWIDTH 960 0
DWIDTH 16 0
BBX 16 16 0 -2
BITMAP
0120
063E
3844
0884
0968
7E10
0820
08C8
1C0F
1A11
2922
28DA
4804
0808
0830
09C0
ENDCHAR
STARTCHAR 305d
ENCODING 12381
SWIDTH 960 0
DWIDTH 16 0
BBX 16 16 0 -2
BITMAP
0820
0824
0A24
7248
147F
08C8
0B48
127E
7F48
0948
2C7E
2A48
2948
2948
487F
0840
ENDCHAR
STARTCHAR 305e
ENCODING 12382
SWIDTH 960 0
DWIDTH 16 0
BBX 16 16 0 -2
BITMAP
0810
08FC
0A24
7224
17FF
0800
0A7E
1242
7F7E
0908
2C7E
2A48
2A48
29FF
4808
0808
ENDCHAR
STARTCHAR 305f
ENCODING 12383
SWIDTH 960 0
DWIDTH 16 0
BBX 16 16 0 -2
BITMAP
0000
3FFC
2104
2104
3FFC
2104
3FFC
0000
1FF8
1008
1FF8
1008
1FF8
1008
1008
1018
ENDCHAR
STARTCHAR 3060
ENCODING 12384
SWIDTH 960 0
DWIDTH 16 0
BBX 16 16 0 -2
BITMAP
0210
7FFF
0210
0038
1FC0
0080
7FFF
02A0
0C98
3086
7FFF
0220
0420
1FC0
0330
3C0C
ENDCHAR
STARTCHAR 3061
ENCODING 12385
SWIDTH 960 0
DWIDTH 16 0
BBX 16 16 0 -2
BITMAP
0080
0080
0080
0080
7FFF
0180
0284
0244
0448
1C30
6420
0410
0408
05C4
0E02
3001
ENDCHAR
STARTCHAR 3062
ENCODING 12386
SWIDTH 960 0
DWIDTH 16 0
BBX 16 16 0 -2
BITMAP
0000
3EFE
0092
7FFE
0092
3E92
00FE
0000
3E7E
0042
3E7E
2242
227E
2242
3E42
2246
ENDCHAR
STARTCHAR 3063
ENCODING 12387
SWIDTH 960 0
DWIDTH 16 0
BBX 16 16 0 -2
BITMAP
0020
23FC
1044
1044
07FF
0000
01FC
7904
09FC
0810
09FE
0910
0FFF
1410
2310
40FF
ENDCHAR
STARTCHAR 3064
ENCODING 12388
SWIDTH 960 0
DWIDTH 16 0
BBX 16 16 0 -2
BITMAP
0020
21F8
1128
11F8
0020
07FE
0000
79F8
0908
09F8
0908
09F8
0D08
15F8
2304
40FF
ENDCHAR
STARTCHAR 3065
ENCODING 12389
SWIDTH 960 0
DWIDTH 16 0
BBX 16 16 0 -2
BITMAP
0000
3FFE
2100
2100
23FC
2440
2840
3FFE
20A0
2090
2108
2204
2404
2800
3FFE
0000
ENDCHAR
STARTCHAR 3066
ENCODING 12390
SWIDTH 960 0
DWIDTH 16 0
BBX 16 16 0 -2
BITMAP
0420
0420
0420
0420
3FFC
0420
0420
0420
0420
7FFE
0420
0420
0420
0820
0820
1020
ENDCHAR
STARTCHAR 3067
ENCODING 12391
SWIDTH 960 0
DWIDTH 16 0
BBX 16 16 0 -2
BITMAP
0080
0080
0080
7FFF
0100
0110
1A20
0440
0288
0110
0620
1860
0090
0308
0C04
7004
ENDCHAR
STARTCHAR 3068
ENCODING 12392
SWIDTH 960 0
DWIDTH 16 0
BBX 16 16 0 -2
BITMAP
1010
1014
1012
13FF
1010
7FD2
1252
1252
1254
13CC
124C
1628
18CD
6315
0C23
0041
ENDCHAR
STARTCHAR 3069
ENCODING 12393
SWIDTH 960 0
DWIDTH 16 0
BBX 16 16 0 -2
BITMAP
0080
0080
7FFF
0220
0418
0FE4
7002
0FF8
0808
0808
0FF8
0808
0FF8
0808
0808
0818
ENDCHAR
STARTCHAR 306a
ENCODING 12394
SWIDTH 960 0
DWIDTH 16 0
BBX 16 16 0 -2
BITMAP
0400
041E
7FF2
0412
0814
0F98
1894
1892
2F91
4891
0891
0F99
0896
0890
0890
0990
ENDCHAR
STARTCHAR 306b
ENCODING 12395
SWIDTH 960 0
DWIDTH 16 0
BBX 16 16 0 -2
BITMAP
00A4
7EA4
1378
10A4
10AA
117D
27E4
3C22
27FF
6494
2494
24C8
3D29
0115
0223
0441
ENDCHAR
STARTCHAR 306c
ENCODING 12396
SWIDTH 960 0
DWIDTH 16 0
BBX 16 16 0 -2
BITMAP
0000
0000
0000
0000
0000
0000
0002
7FFF
0000
0000
0000
0000
0000
0000
0000
0000
ENDCHAR
STARTCHAR 306d
ENCODING 12397
SWIDTH 960 0
DWIDTH 16 0
BBX 16 16 0 -2
BITMAP
0100
0100
7FFE
0100
0100
1FF8
0000
7FFE
4002
4822
08C0
0F00
0800
0808
0408
03F8
ENDCHAR
STARTCHAR 306e
ENCODING 12398
SWIDTH 960 0
DWIDTH 16 0
BBX 16 16 0 -2
BITMAP
1204
0908
0908
0FFF
4090
2108
2108
0204
0402
1BFD
12A4
12A4
22A4
22A4
4FFF
4000
ENDCHAR
STARTCHAR 306f
ENCODING 12399
SWIDTH 960 0
DWIDTH 16 0
BBX 16 16 0 -2
BITMAP
0040
2078
1088
1110
07FC
0124
0124
7924
09FC
0850
0850
0891
1511
120F
2180
407F
ENDCHAR
STARTCHAR 3070
ENCODING 12400
SWIDTH 960 0
DWIDTH 16 0
BBX 16 16 0 -2
BITMAP
0204
0C18
38E0
0802
08A2
7F54
0854
0808
1CBE
1AA2
2AA2
28BE
48A2
08A2
08BE
0880
ENDCHAR
STARTCHAR 3071
ENCODING 12401
SWIDTH 960 0
DWIDTH 16 0
BBX 16 16 0 -2
BITMAP
0210
0210
7FFF
0210
0290
1080
08FE
08A2
0124
0120
0A30
0828
1048
2084
4302
0C01
ENDCHAR
STARTCHAR 3072
ENCODING 12402
SWIDTH 960 0
DWIDTH 16 0
BBX 16 16 0 -2
BITMAP
0210
0210
7FFF
0210
0210
0000
1FFC
0080
0080
7FFF
0080
0080
0080
0080
0080
0180
ENDCHAR
STARTCHAR 3073
ENCODING 12403
SWIDTH 960 0
DWIDTH 16 0
BBX 16 16 0 -2
BITMAP
0800
0FFE
1222
2422
7EEE
2A88
2A88
3EEE
2A32
2AAA
3EAA
0266
35AA
2B32
2A22
40CC
ENDCHAR
STARTCHAR 3074
ENCODING 12404
SWIDTH 960 0
DWIDTH 16 0
BBX 16 16 0 -2
BITMAP
0100
0100
0140
0220
0218
04F4
7F42
0240
0240
0240
0440
0440
0840
0842
1022
201E
ENDCHAR
STARTCHAR 3075
ENCODING 12405
SWIDTH 960 0
DWIDTH 16 0
BBX 16 16 0 -2
BITMAP
0100
0600
387E
2042
2042
2042
3F42
2042
2042
2042
2042
3F5C
0040
0040
0040
0040
ENDCHAR
STARTCHAR 3076
ENCODING 12406
SWIDTH 960 0
DWIDTH 16 0
BBX 16 16 0 -2
BITMAP
0000
03FE
7A22
4A22
4A22
4A22
4BFE
4A22
4A22
4A52
4A52
7A8A
0306
0202
03FE
0000
ENDCHAR
STARTCHAR 3077
ENCODING 12407
SWIDTH 960 0
DWIDTH 16 0
BBX 16 16 0 -2
BITMAP
0000
0FF8
0808
0808
0FF8
0000
1FFC
1004
1FFC
1004
1FFC
1004
1FFC
0230
0C0C
3002
ENDCHAR
STARTCHAR 3078
ENCODING 12408
SWIDTH 960 0
DWIDTH 16 0
BBX 16 16 0 -2
BITMAP
0000
3FFE
2002
2082
2082
2082
3FFE
2142
2142
2222
2222
2412
280A
2002
3FFE
0000
ENDCHAR
STARTCHAR 3079
ENCODING 12409
SWIDTH 960 0
DWIDTH 16 0
BBX 16 16 0 -2
BITMAP
0800
08FE
0882
0892
7E92
12FE
1292
1292
22AA
24AA
7CAA
06C6
0A82
1082
60FE
0000
ENDCHAR
STARTCHAR 307a
ENCODING 12410
SWIDTH 960 0
DWIDTH 16 0
BBX 16 16 0 -2
BITMAP
0004
7F84
0084
0084
0084
3F84
2004
2004
2004
3F84
0084
0084
0084
0084
0104
0E04
ENDCHAR
STARTCHAR 307b
ENCODING 12411
SWIDTH 960 0
DWIDTH 16 0
BBX 16 16 0 -2
BITMAP
0820
0820
1420
1A20
297F
7E51
2252
3E94
2310
2210
3E28
2828
2444
2644
3A82
6101
ENDCHAR
STARTCHAR 307c
ENCODING 12412
SWIDTH 960 0
DWIDTH 16 0
BBX 16 16 0 -2
BITMAP
1004
0818
0BE2
4242
2124
2128
000C
01F0
0820
0820
17FF
1020
2020
2020
43FE
4000
ENDCHAR
STARTCHAR 307d
ENCODING 12413
SWIDTH 960 0
DWIDTH 16 0
BBX 16 16 0 -2
BITMAP
1084
1084
1724
1144
1084
1134
1FEC
1004
13E4
1224
13E4
1224
13E4
2225
2225
4263
ENDCHAR
STARTCHAR 307e
ENCODING 12414
SWIDTH 960 0
DWIDTH 16 0
BBX 16 16 0 -2
BITMAP
0210
7FFF
0210
0220
3C30
2448
28F4
3303
28F8
2410
25FC
2400
3BFE
2048
2094
21E2
ENDCHAR
STARTCHAR 3121
ENCODING 12577
SWIDTH 960 0
DWIDTH 16 0
BBX 16 16 0 -2
BITMAP
0010
3C10
25FF
2501
2901
30FE
2800
2400
27FF
2448
2448
3448
2888
2089
2109
2207
ENDCHAR
STARTCHAR 3122
ENCODING 12578
SWIDTH 960 0
DWIDTH 16 0
BBX 16 16 0 -2
BITMAP
0020
3C20
2450
2488
2974
3203
29F8
2410
2420
25FC
2400
27FF
3850
2088
27FC
2004
ENDCHAR
STARTCHAR 3123
ENCODING 12579
SWIDTH 960 0
DWIDTH 16 0
BBX 16 16 0 -2
BITMAP
0006
3C1A
27E2
2524
2898
31FE
2802
24FE
2402
25FE
2410
254A
3949
2141
2225
201C
ENDCHAR
STARTCHAR 3124
ENCODING 12580
SWIDTH 960 0
DWIDTH 16 0
BBX 16 16 0 -2
BITMAP
0800
08FC
7F84
2284
12FC
1400
7FFC
0084
3EFC
2284
22FC
3E84
22FC
2248
3E84
0302
ENDCHAR
STARTCHAR 3125
ENCODING 12581
SWIDTH 960 0
DWIDTH 16 0
BBX 16 16 0 -2
BITMAP
0008
0008
7C08
4408
47FF
4408
4508
4488
4448
4448
4408
7C08
0008
0008
0008
0018
ENDCHAR
STARTCHAR 3126
ENCODING 12582
SWIDTH 960 0
DWIDTH 16 0
BBX 16 16 0 -2
BITMAP
0100
0100
0100
7FFE
0200
0200
0200
0400
07F8
0C08
1408
2408
4408
0408
07F8
0000
ENDCHAR
STARTCHAR 3127
ENCODING 12583
SWIDTH 960 0
DWIDTH 16 0
BBX 16 16 0 -2
BITMAP
0100
0100
7FFE
4002
4002
0FF0
0100
0100
0100
7FFE
0100
0100
0100
0100
0100
0300
ENDCHAR
STARTCHAR 3128
ENCODING 12584
SWIDTH 960 0
DWIDTH 16 0
BBX 16 16 0 -2
BITMAP
0080
0100
1FF0
1010
1010
1010
1FF0
1000
1FFF
1000
1FFE
0022
2912
2492
2484
4018
ENDCHAR
STARTCHAR 3129
ENCODING 12585
SWIDTH 960 0
DWIDTH 16 0
BBX 16 16 0 -2
BITMAP
0000
3F7E
0102
0102
1122
0912
0912
0102
0306
050A
1932
61C2
0102
0102
0102
0306
ENDCHAR
STARTCHAR 312a
ENCODING 12586
SWIDTH 960 0
DWIDTH 16 0
BBX 16 16 0 -2
BITMAP
0000
23FC
1020
1020
0020
0020
07FE
7820
0820
0820
0820
0820
0C20
1460
2300
40FF
ENDCHAR
STARTCHAR 312b
ENCODING 12587
SWIDTH 960 0
DWIDTH 16 0
BBX 16 16 0 -2
BITMAP
0000
7FFF
0080
0080
3FFE
2082
28A2
2492
2492
2082
28A2
2492
2492
2082
2082
2006
ENDCHAR
STARTCHAR 312c
ENCODING 12588
SWIDTH 960 0
DWIDTH 16 0
BBX 16 16 0 -2
BITMAP
0200
0C00
307C
2244
2244
2244
2244
2244
2244
2244
3E44
6244
0458
0440
0840
1040
ENDCHAR
STARTCHAR 312d
ENCODING 12589
SWIDTH 960 0
DWIDTH 16 0
BBX 16 16 0 -2
BITMAP
2210
1220
147C
7F44
097C
3F44
287C
2840
3F7F
0940
197E
1952
2EAA
48AA
0902
080C
ENDCHAR
STARTCHAR 312e
ENCODING 12590
SWIDTH 960 0
DWIDTH 16 0
BBX 16 16 0 -2
BITMAP
0100
0100
7FFE
4242
4C7E
3000
08FC
3E84
08FC
0884
7FFC
0884
14FC
1229
20C9
4307
ENDCHAR
STARTCHAR 312f
ENCODING 12591
SWIDTH 960 0
DWIDTH 16 0
BBX 16 16 0 -2
BITMAP
0000
1FF0
0210
0210
0210
0210
0210
7FFE
0410
0410
0410
0410
0410
0410
7FFF
0000
ENDCHAR
STARTCHAR 3130
ENCODING 12592
SWIDTH 960 0
DWIDTH 16 0
BBX 16 16 0 -2
BITMAP
0024
0024
7F48
08FF
0888
0988
1088
1EFE
3288
3288
52FE
1288
1288
1E88
00FF
0000
ENDCHAR
STARTCHAR 3131
ENCODING 12593
SWIDTH 960 0
DWIDTH 16 0
BBX 16 16 0 -2
BITMAP
0080
0300
1C7C
1004
1004
1004
1004
1004
1E7C
1004
1004
1004
1004
1004
1FFC
0000
ENDCHAR
STARTCHAR 3132
ENCODING 12594
SWIDTH 960 0
DWIDTH 16 0
BBX 16 16 0 -2
BITMAP
1000
09F8
0908
0108
0178
4148
2148
23FE
0A02
0AF2
1292
1292
22F2
2202
4202
4206
ENDCHAR
STARTCHAR 3133
ENCODING 12595
SWIDTH 960 0
DWIDTH 16 0
BBX 16 16 0 -2
BITMAP
0020
003E
7820
4BFF
4A42
4A7C
4BC0
4A42
4A3E
4A28
7B2A
44AA
04AC
0828
13FF
0000
ENDCHAR
STARTCHAR 3134
ENCODING 12596
SWIDTH 960 0
DWIDTH 16 0
BBX 16 16 0 -2
BITMAP
0000
007E
3E42
2242
2242
227E
2242
2242
227E
2242
2242
3E42
007E
0024
00C2
0301
ENDCHAR
STARTCHAR 3135
ENCODING 12597
SWIDTH 960 0
DWIDTH 16 0
BBX 16 16 0 -2
BITMAP
1248
7DBF
124C
399A
5669
3FFC
2444
3FFC
1E08
12FF
1E08
1288
1E48
1408
1A08
6118
ENDCHAR
STARTCHAR 3136
ENCODING 12598
SWIDTH 960 0
DWIDTH 16 0
BBX 16 16 0 -2
BITMAP
0420
0420
7FFF
0420
0004
3F84
2084
3FFF
2004
2F44
2024
3FA4
2B04
2A84
5284
060C
ENDCHAR
STARTCHAR 3137
ENCODING 12599
SWIDTH 960 0
DWIDTH 16 0
BBX 16 16 0 -2
BITMAP
0800
0E7C
1244
247C
7F44
297C
2900
3FFE
29AA
29FE
3F00
05FC
3248
2A30
286C
4183
ENDCHAR
STARTCHAR 3138
ENCODING 12600
SWIDTH 960 0
DWIDTH 16 0
BBX 16 16 0 -2
BITMAP
0820
0824
09FC
0828
7E28
1230
13FF
1220
2240
24C4
7D58
4660
0A40
1042
6042
003E
ENDCHAR
STARTCHAR 3139
ENCODING 12601
SWIDTH 960 0
DWIDTH 16 0
BBX 16 16 0 -2
BITMAP
0000
1FFF
1000
17BE
14A8
14A8
17A8
14A8
14FF
1788
1418
1518
24A8
25A9
4649
1887
ENDCHAR
STARTCHAR 313a
ENCODING 12602
SWIDTH 960 0
DWIDTH 16 0
BBX 16 16 0 -2
BITMAP
1024
0822
0FFF
0020
4020
23FE
2222
0222
0BFE
0A22
1222
13FE
2222
2222
4222
4226
ENDCHAR
STARTCHAR 313b
ENCODING 12603
SWIDTH 960 0
DWIDTH 16 0
BBX 16 16 0 -2
BITMAP
0008
0070
1F80
1010
1110
1110
1110
1110
1110
1108
1148
1128
1128
21F4
2E14
4012
ENDCHAR
STARTCHAR 313c
ENCODING 12604
SWIDTH 960 0
DWIDTH 16 0
BBX 16 16 0 -2
BITMAP
0000
7E7E
4242
7E7E
4242
7E7E
4002
4FF2
4102
4102
47E2
4102
4102
5FFA
4002
4006
ENDCHAR
STARTCHAR 313d
ENCODING 12605
SWIDTH 960 0
DWIDTH 16 0
BBX 16 16 0 -2
BITMAP
0108
0090
7FFF
48A0
4BFC
4AA4
4B1C
4BFC
4A04
4BFC
7810
0FFF
0210
0110
0110
0030
ENDCHAR
STARTCHAR 313e
ENCODING 12606
SWIDTH 960 0
DWIDTH 16 0
BBX 16 16 0 -2
BITMAP
0000
0000
1FF8
0000
0000
0000
7FFE
0100
0100
0220
0210
0408
08F8
7F04
0004
0004
ENDCHAR
STARTCHAR 313f
ENCODING 12607
SWIDTH 960 0
DWIDTH 16 0
BBX 16 16 0 -2
BITMAP
0000
27FE
1422
1422
03FC
0020
03FC
7A24
0BFC
0A24
0BFC
0820
17FE
1220
2180
407F
ENDCHAR
STARTCHAR 3140
ENCODING 12608
SWIDTH 960 0
DWIDTH 16 0
BBX 16 16 0 -2
BITMAP
0000
3FFC
0100
7FFE
4102
5D7A
4102
1D78
0000
1FF8
0000
7FFE
0240
0430
3FC8
0004
ENDCHAR
STARTCHAR 3141
ENCODING 12609
SWIDTH 960 0
DWIDTH 16 0
BBX 16 16 0 -2
BITMAP
0220
0220
7FFF
0220
0220
0404
0418
09F0
0810
1810
2BFF
4810
0810
0810
09FE
0800
ENDCHAR
STARTCHAR 3142
ENCODING 12610
SWIDTH 960 0
DWIDTH 16 0
BBX 16 16 0 -2
BITMAP
0800
09FF
1444
1244
2944
7E7C
2244
3E44
227C
2244
3E44
2447
227C
26C4
3904
6104
ENDCHAR
STARTCHAR 3143
ENCODING 12611
SWIDTH 960 0
DWIDTH 16 0
BBX 16 16 0 -2
BITMAP
0800
0F7C
0804
7FA4
40A4
3F24
0524
2CA4
4A14
1F98
3148
5F18
1114
1F24
11C2
1F01
ENDCHAR
STARTCHAR 3144
ENCODING 12612
SWIDTH 960 0
DWIDTH 16 0
BBX 16 16 0 -2
BITMAP
1208
0908
0910
7FFE
4002
4FF2
0810
0810
0FF0
0100
0200
1FF8
1008
1008
1008
1FF8
ENDCHAR
STARTCHAR 3145
ENCODING 12613
SWIDTH 960 0
DWIDTH 16 0
BBX 16 16 0 -2
BITMAP
0000
3E7C
2244
3E7C
2244
3E7C
2244
3E7C
1324
2142
7FFF
0220
0440
0FC0
0360
3C18
ENDCHAR
STARTCHAR 3146
ENCODING 12614
SWIDTH 960 0
DWIDTH 16 0
BBX 16 16 0 -2
BITMAP
0004
1F84
1088
1F88
1092
1FA2
0404
7FC4
0009
1F91
1082
1F82
0404
2484
4448
0C10
ENDCHAR
STARTCHAR 3147
ENCODING 12615
SWIDTH 960 0
DWIDTH 16 0
BBX 16 16 0 -2
BITMAP
0020
0020
7820
49FC
4924
4924
7924
4924
4FFF
4820
4850
7850
4888
0104
0202
0C01
ENDCHAR
STARTCHAR 3148
ENCODING 12616
SWIDTH 960 0
DWIDTH 16 0
BBX 16 16 0 -2
BITMAP
0100
0100
1FF8
1108
1108
1FF8
1108
1108
110C
1FF8
0110
00E0
0182
0E42
7032
000E
ENDCHAR
STARTCHAR 3149
ENCODING 12617
SWIDTH 960 0
DWIDTH 16 0
BBX 16 16 0 -2
BITMAP
2208
1108
0890
08A0
7FFE
4002
4102
0100
7FFE
0380
0540
0920
1118
6106
0100
0100
ENDCHAR
STARTCHAR 314a
ENCODING 12618
SWIDTH 960 0
DWIDTH 16 0
BBX 16 16 0 -2
BITMAP
0300
0080
0040
0780
0084
0084
3EC8
02D0
02A0
04A0
0490
0888
1084
6083
0080
0180
ENDCHAR
STARTCHAR 314b
ENCODING 12619
SWIDTH 960 0
DWIDTH 16 0
BBX 16 16 0 -2
BITMAP
10C0
0820
0810
0000
41E2
2022
2024
07B4
00B8
00B0
1128
1128
2224
2422
4821
4060
ENDCHAR
STARTCHAR 314c
ENCODING 12620
SWIDTH 960 0
DWIDTH 16 0
BBX 16 16 0 -2
BITMAP
1040
0840
0BFC
0A44
4244
23FC
2244
2244
0BFE
0844
1048
1030
2020
20D1
4F0D
4003
ENDCHAR
STARTCHAR 314d
ENCODING 12621
SWIDTH 960 0
DWIDTH 16 0
BBX 16 16 0 -2
BITMAP
0088
0088
7FFF
1088
10A8
1020
11FC
7D24
1124
1124
17FF
1030
1C48
7084
0302
0C01
ENDCHAR
STARTCHAR 314e
ENCODING 12622
SWIDTH 960 0
DWIDTH 16 0
BBX 16 16 0 -2
BITMAP
0000
3FF8
0408
0408
07EE
0A22
0942
1082
235C
4C30
1FFC
1224
1224
1224
7FFF
0000
ENDCHAR
STARTCHAR 314f
ENCODING 12623
SWIDTH 960 0
DWIDTH 16 0
BBX 16 16 0 -2
BITMAP
2000
22FF
3C10
2020
217E
1F42
0042
037E
3C42
047E
7FC2
0E42
157E
24A4
4442
0581
ENDCHAR
STARTCHAR 3150
ENCODING 12624
SWIDTH 960 0
DWIDTH 16 0
BBX 16 16 0 -2
BITMAP
2000
22FF
3C10
2020
217E
1F42
0042
1E7E
0042
7FFE
0442
1642
157E
2524
4442
0D81
ENDCHAR
STARTCHAR 3151
ENCODING 12625
SWIDTH 960 0
DWIDTH 16 0
BBX 16 16 0 -2
BITMAP
0410
0410
7FFF
0410
0490
0080
1FFC
1084
1084
1084
7FFF
0140
0220
0410
180C
6003
ENDCHAR
STARTCHAR 3152
ENCODING 12626
SWIDTH 960 0
DWIDTH 16 0
BBX 16 16 0 -2
BITMAP
0900
0BEE
1120
1120
27F0
4400
0BFF
0A24
13E4
3044
57F4
1144
1144
17F4
1044
104C
ENDCHAR
STARTCHAR 3153
ENCODING 12627
SWIDTH 960 0
DWIDTH 16 0
BBX 16 16 0 -2
BITMAP
0040
3C20
0010
7E02
00E2
3C22
0034
03F4
3C68
0068
3CA4
24A4
2522
2621
3C20
0060
ENDCHAR
STARTCHAR 3154
ENCODING 12628
SWIDTH 960 0
DWIDTH 16 0
BBX 16 16 0 -2
BITMAP
0844
0824
1428
127E
2142
7E42
0842
0842
7F7E
0828
4A28
2A28
2C48
0B49
1C89
6107
ENDCHAR
STARTCHAR 3155
ENCODING 12629
SWIDTH 960 0
DWIDTH 16 0
BBX 16 16 0 -2
BITMAP
1020
0820
0FFF
0090
4090
211C
2124
0334
0D6C
0954
1188
1118
2114
2124
4142
4181
ENDCHAR
STARTCHAR 3156
ENCODING 12630
SWIDTH 960 0
DWIDTH 16 0
BBX 16 16 0 -2
BITMAP
0040
0040
0FFF
4800
29F0
2912
0912
090E
1A00
2FF8
4888
1090
1060
2050
4188
0E06
ENDCHAR
STARTCHAR 3157
ENCODING 12631
SWIDTH 960 0
DWIDTH 16 0
BBX 16 16 0 -2
BITMAP
0810
0410
0220
0240
7FFF
0410
0410
0808
1004
2FFA
4948
0948
0948
0948
7FFE
0000
ENDCHAR
STARTCHAR 3158
ENCODING 12632
SWIDTH 960 0
DWIDTH 16 0
BBX 16 16 0 -2
BITMAP
0000
3FBE
2422
2422
3F22
2422
3F3E
2430
2428
3FA8
14A8
2AA8
2AA4
28C4
4142
0681
ENDCHAR
STARTCHAR 3159
ENCODING 12633
SWIDTH 960 0
DWIDTH 16 0
BBX 16 16 0 -2
BITMAP
0884
0844
0848
08FC
2C84
2A84
2A84
2884
48FC
0850
0850
0850
0890
0892
0912
0A0E
ENDCHAR
STARTCHAR 315a
ENCODING 12634
SWIDTH 960 0
DWIDTH 16 0
BBX 16 16 0 -2
BITMAP
0000
3CFC
0084
7FFC
0084
3E84
00FC
0040
3E7E
00CA
3ED2
2362
224A
223A
3E02
000C
ENDCHAR
STARTCHAR 315b
ENCODING 12635
SWIDTH 960 0
DWIDTH 16 0
BBX 16 16 0 -2
BITMAP
0414
0412
0410
1F7F
0450
0452
3FD2
0452
1454
174C
1469
1595
1C23
24C1
2300
40FF
ENDCHAR
STARTCHAR 315c
ENCODING 12636
SWIDTH 960 0
DWIDTH 16 0
BBX 16 16 0 -2
BITMAP
0000
7E7E
4242
7E7E
4242
7E7E
4442
4282
4FE2
4822
4822
4FE2
4282
4292
4472
4806
ENDCHAR
STARTCHAR 315d
ENCODING 12637
SWIDTH 960 0
DWIDTH 16 0
BBX 16 16 0 -2
BITMAP
0800
0BFF
0820
7EFC
0884
08FC
1C84
1AFC
1A84
29FC
2820
487C
09C8
0830
08CC
0B03
ENDCHAR
STARTCHAR 315e
ENCODING 12638
SWIDTH 960 0
DWIDTH 16 0
BBX 16 16 0 -2
BITMAP
0000
3FFF
2000
2F8A
2889
2F88
28FF
2F88
2008
2F8C
2894
2F94
2894
2FA2
48C2
4981
ENDCHAR
STARTCHAR 315f
ENCODING 12639
SWIDTH 960 0
DWIDTH 16 0
BBX 16 16 0 -2
BITMAP
0000
3FFC
2104
2104
2104
2104
2104
3FFC
2004
2004
2004
2004
2004
2004
2004
200C
ENDCHAR
STARTCHAR 3160
ENCODING 12640
SWIDTH 960 0
DWIDTH 16 0
BBX 16 16 0 -2
BITMAP
0000
3FFE
2082
27F2
2082
3FFE
2002
27F2
2412
27F2
234A
2532
391E
2102
3FFE
2002
ENDCHAR
STARTCHAR 3161
ENCODING 12641
SWIDTH 960 0
DWIDTH 16 0
BBX 16 16 0 -2
BITMAP
1000
13FF
1200
12FC
1284
7EFC
1284
12FC
1220
13FF
1648
1AD0
6238
02C4
03FF
0200
ENDCHAR
STARTCHAR 3162
ENCODING 12642
SWIDTH 960 0
DWIDTH 16 0
BBX 16 16 0 -2
BITMAP
0080
0080
7FFF
0140
0220
0490
1FFC
6893
0890
0FF0
0890
0890
0FF0
0082
0082
007E
ENDCHAR
STARTCHAR 3163
ENCODING 12643
SWIDTH 960 0
DWIDTH 16 0
BBX 16 16 0 -2
BITMAP
0100
0100
7FFE
4002
4FF2
0810
0FF0
0810
0FF0
0100
7FFE
0220
0420
0FC0
0330
3C08
ENDCHAR
STARTCHAR 3164
ENCODING 12644
SWIDTH 960 0
DWIDTH 16 0
BBX 16 16 0 -2
BITMAP
0004
7C18
05F0
0810
0810
1090
3C9E
0490
2490
1490
1490
0890
0FFF
1200
2180
407F
ENDCHAR
STARTCHAR 3165
ENCODING 12645
SWIDTH 960 0
DWIDTH 16 0
BBX 16 16 0 -2
BITMAP
0800
0F7E
0942
1142
324C
4A40
0441
0821
101F
6100
0480
1444
1442
2409
4209
01F8
ENDCHAR
STARTCHAR 3166
ENCODING 12646
SWIDTH 960 0
DWIDTH 16 0
BBX 16 16 0 -2
BITMAP
1020
1020
17FF
1050
7CA8
1124
13FE
1525
1124
1DFC
7124
1124
11FC
1021
1021
301F
ENDCHAR
STARTCHAR 3167
ENCODING 12647
SWIDTH 960 0
DWIDTH 16 0
BBX 16 16 0 -2
BITMAP
100C
13F0
1144
7CA4
10A8
13FE
1040
13FF
1C40
70FC
1184
16C8
1030
1050
118C
3603
ENDCHAR
STARTCHAR 3168
ENCODING 12648
SWIDTH 960 0
DWIDTH 16 0
BBX 16 16 0 -2
BITMAP
1078
0808
0888
0088
4084
2104
2102
2201
0DFC
0904
1104
1104
2104
2104
41FC
4000
ENDCHAR
STARTCHAR 3169
ENCODING 12649
SWIDTH 960 0
DWIDTH 16 0
BBX 16 16 0 -2
BITMAP
1020
0820
0FFF
0401
07FE
4020
23FE
2222
0222
13FE
1222
2222
23FE
208C
4102
4601
ENDCHAR
STARTCHAR 316a
ENCODING 12650
SWIDTH 960 0
DWIDTH 16 0
BBX 16 16 0 -2
BITMAP
0100
0910
0910
1120
2280
0440
1830
610C
0110
0910
0920
1280
2240
0420
1818
6006
ENDCHAR
STARTCHAR 316b
ENCODING 12651
SWIDTH 960 0
DWIDTH 16 0
BBX 16 16 0 -2
BITMAP
0820
0820
083C
0A44
2A48
2A88
2C10
293E
4922
0D22
1522
133E
1322
2122
213E
4122
ENDCHAR
STARTCHAR 316c
ENCODING 12652
SWIDTH 960 0
DWIDTH 16 0
BBX 16 16 0 -2
BITMAP
0800
0BFE
0850
0A50
2BFC
2B54
2D54
2954
49FC
0820
0C20
14FC
1220
1220
23FF
4000
ENDCHAR
STARTCHAR 316d
ENCODING 12653
SWIDTH 960 0
DWIDTH 16 0
BBX 16 16 0 -2
BITMAP
0220
0220
7FFF
0220
0BE8
080A
7BEA
0A2C
0A28
1A29
6BE9
0807
0000
1224
2112
4111
ENDCHAR
STARTCHAR 316e
ENCODING 12654
SWIDTH 960 0
DWIDTH 16 0
BBX 16 16 0 -2
BITMAP
0820
4820
29FC
1020
17FF
2800
49FC
0904
1904
19FC
28A2
4992
0E94
0888
68E4
1303
ENDCHAR
STARTCHAR 316f
ENCODING 12655
SWIDTH 960 0
DWIDTH 16 0
BBX 16 16 0 -2
BITMAP
0800
08F8
0A08
72F8
1408
09FF
0A20
1252
7F94
0938
2C58
2AB4
2A52
2B91
4810
0860
ENDCHAR
STARTCHAR 3170
ENCODING 12656
SWIDTH 960 0
DWIDTH 16 0
BBX 16 16 0 -2
BITMAP
0A10
3F9E
2AA4
3FA4
2AC8
3FFE
004A
7FCA
004A
3F7E
2140
3F40
1240
0C41
7FA1
001F
ENDCHAR
STARTCHAR 3171
ENCODING 12657
SWIDTH 960 0
DWIDTH 16 0
BBX 16 16 0 -2
BITMAP
0210
0210
7FFF
0210
0210
0800
0FBE
08A2
10A2
1922
2522
422C
0220
0421
0811
300F
ENDCHAR
STARTCHAR 3172
ENCODING 12658
SWIDTH 960 0
DWIDTH 16 0
BBX 16 16 0 -2
BITMAP
0410
7FFF
0410
3FFE
2082
27F2
2082
3FFE
2422
27E2
2392
2562
3932
210E
3FFE
0000
ENDCHAR
STARTCHAR 3173
ENCODING 12659
SWIDTH 960 0
DWIDTH 16 0
BBX 16 16 0 -2
BITMAP
0040
2040
13FC
1040
07FE
0000
03FC
7A04
0BFC
08C4
0968
0A50
0C4C
1443
2300
40FF
ENDCHAR
STARTCHAR 3174
ENCODING 12660
SWIDTH 960 0
DWIDTH 16 0
BBX 16 16 0 -2
BITMAP
083C
0804
1424
1224
2244
7F42
0882
0901
7E7C
0844
4A44
2C44
2944
0E44
187C
6000
ENDCHAR
STARTCHAR 3175
ENCODING 12661
SWIDTH 960 0
DWIDTH 16 0
BBX 16 16 0 -2
BITMAP
0800
0FFC
3144
0A58
0D42
723E
0FF0
0810
0FF0
0810
0FFF
0800
0FFE
2922
2492
400C
ENDCHAR
STARTCHAR 3176
ENCODING 12662
SWIDTH 960 0
DWIDTH 16 0
BBX 16 16 0 -2
BITMAP
0100
1100
11FE
1200
13F8
7D08
1508
11F8
1000
13FC
1694
1A94
6294
0294
0FFF
0000
ENDCHAR
STARTCHAR 3177
ENCODING 12663
SWIDTH 960 0
DWIDTH 16 0
BBX 16 16 0 -2
BITMAP
1010
1010
1010
7F28
1028
1044
1E64
12A2
1311
1210
1240
1220
2210
2210
4208
0C08
ENDCHAR
STARTCHAR 3178
ENCODING 12664
SWIDTH 960 0
DWIDTH 16 0
BBX 16 16 0 -2
BITMAP
1000
0BFC
0840
0040
0040
4FFF
2080
2080
0880
09FC
1104
1004
2004
2004
4008
4030
ENDCHAR
STARTCHAR 3179
ENCODING 12665
SWIDTH 960 0
DWIDTH 16 0
BBX 16 16 0 -2
BITMAP
0800
09FC
2924
2924
3FFC
2924
4924
09FC
3E20
0BFE
0822
0842
0E42
7082
0102
060C
ENDCHAR
STARTCHAR 317a
ENCODING 12666
SWIDTH 960 0
DWIDTH 16 0
BBX 16 16 0 -2
BITMAP
0000
3E3E
2222
2222
2222
2222
2222
2222
23E2
2002
2002
2002
2002
3FFE
0000
0000
ENDCHAR
STARTCHAR 317b
ENCODING 12667
SWIDTH 960 0
DWIDTH 16 0
BBX 16 16 0 -2
BITMAP
0080
0080
0080
1FFC
1084
1084
1084
1084
7FFF
0080
0140
0140
0220
0410
180C
6003
ENDCHAR
STARTCHAR 317c
ENCODING 12668
SWIDTH 960 0
DWIDTH 16 0
BBX 16 16 0 -2
BITMAP
0100
0200
1FFC
1084
1494
12A4
1FFC
11C4
12A4
149C
1884
1104
7FFF
0140
0630
780E
ENDCHAR
STARTCHAR 317d
ENCODING 12669
SWIDTH 960 0
DWIDTH 16 0
BBX 16 16 0 -2
BITMAP
0840
0820
1020
13FE
2420
4420
0820
0820
11FC
3020
5020
1020
1020
1020
13FF
1000
ENDCHAR
STARTCHAR 317e
ENCODING 12670
SWIDTH 960 0
DWIDTH 16 0
BBX 16 16 0 -2
BITMAP
0040
0040
1FFF
1080
1040
1020
1090
1090
1484
1482
1481
2481
2881
2884
5044
003C
ENDCHAR
STARTCHAR 3221
ENCODING 12833
SWIDTH 960 0
DWIDTH 16 0
BBX 16 16 0 -2
BITMAP
1000
11FE
1122
1122
7D22
11FE
1122
1122
1122
1DFE
7020
1020
1020
1020
1020
3020
ENDCHAR
STARTCHAR 3222
ENCODING 12834
SWIDTH 960 0
DWIDTH 16 0
BBX 16 16 0 -2
BITMAP
0000
7DFE
4420
4420
4420
4420
7C20
45FE
4420
4420
4420
4420
7C20
0020
07FF
0000
ENDCHAR
STARTCHAR 3223
ENCODING 12835
SWIDTH 960 0
DWIDTH 16 0
BBX 16 16 0 -2
BITMAP
0888
0888
0BFE
7E88
0888
0BFF
1C20
1BFC
1924
29FC
2924
4924
09FC
0890
090C
0E02
ENDCHAR
STARTCHAR 3224
ENCODING 12836
SWIDTH 960 0
DWIDTH 16 0
BBX 16 16 0 -2
BITMAP
0020
3FA0
2120
213F
3151
2A52
2694
2210
2610
2530
2928
2928
3044
3FC4
0082
0101
ENDCHAR
STARTCHAR 3225
ENCODING 12837
SWIDTH 960 0
DWIDTH 16 0
BBX 16 16 0 -2
BITMAP
0000
3FBC
2124
2124
3225
2A45
2683
22FC
2644
2544
2928
2928
3010
3FA8
00C4
0303
ENDCHAR
STARTCHAR 3226
ENCODING 12838
SWIDTH 960 0
DWIDTH 16 0
BBX 16 16 0 -2
BITMAP
0000
3FFE
0080
0080
0080
0080
0080
1FFC
0080
0080
0080
0080
0080
0080
7FFF
0000
ENDCHAR
STARTCHAR 3227
ENCODING 12839
SWIDTH 960 0
DWIDTH 16 0
BBX 16 16 0 -2
BITMAP
05F0
0410
0888
1084
6163
0218
3FE4
0000
3FFC
1124
0914
030C
0D34
31C4
0104
030C
ENDCHAR
STARTCHAR 3228
ENCODING 12840
SWIDTH 960 0
DWIDTH 16 0
BBX 16 16 0 -2
BITMAP
1020
1040
11FC
7D24
05AC
0974
09FC
1524
1574
39AC
5524
13FF
1020
1050
1188
1606
ENDCHAR
STARTCHAR 3229
ENCODING 12841
SWIDTH 960 0
DWIDTH 16 0
BBX 16 16 0 -2
BITMAP
1108
0890
7FFE
4202
4FF2
0810
0FF0
0810
0FF0
0800
0FFE
0800
0FFC
2924
2494
4018
ENDCHAR
STARTCHAR 322a
ENCODING 12842
SWIDTH 960 0
DWIDTH 16 0
BBX 16 16 0 -2
BITMAP
0020
7F40
42FC
4284
62FC
5484
4CFC
4480
4CFF
4A80
52FE
522A
6196
7F52
0142
020C
ENDCHAR
STARTCHAR 322b
ENCODING 12843
SWIDTH 960 0
DWIDTH 16 0
BBX 16 16 0 -2
BITMAP
0220
0220
1FFC
0220
0220
7FFF
0080
0FF8
0888
0888
0FF8
0888
0888
0FF8
0418
3806
ENDCHAR
STARTCHAR 322c
ENCODING 12844
SWIDTH 960 0
DWIDTH 16 0
BBX 16 16 0 -2
BITMAP
0000
3FFE
2022
2422
2222
2242
3FFE
2082
2492
2492
2492
2492
27F2
2002
2002
2006
ENDCHAR
STARTCHAR 322d
ENCODING 12845
SWIDTH 960 0
DWIDTH 16 0
BBX 16 16 0 -2
BITMAP
1020
0820
0820
03FE
4222
2222
2222
0222
0BFE
0820
1020
1020
2020
2020
4020
4020
ENDCHAR
STARTCHAR 322e
ENCODING 12846
SWIDTH 960 0
DWIDTH 16 0
BBX 16 16 0 -2
BITMAP
0210
0210
7FFF
0210
0400
2410
1812
0892
1494
2490
0D10
1428
2428
0444
0582
1E01
ENDCHAR
STARTCHAR 322f
ENCODING 12847
SWIDTH 960 0
DWIDTH 16 0
BBX 16 16 0 -2
BITMAP
0420
0420
07FE
0904
0888
17FF
1000
31FC
5104
11FC
1104
11FC
12A2
1291
1485
107C
ENDCHAR
STARTCHAR 3230
ENCODING 12848
SWIDTH 960 0
DWIDTH 16 0
BBX 16 16 0 -2
BITMAP
0000
1FFC
1004
1004
1FFC
1000
1FFE
10B0
130C
1FFA
1040
17FC
2040
2040
5FFF
0000
ENDCHAR
STARTCHAR 3231
ENCODING 12849
SWIDTH 960 0
DWIDTH 16 0
BBX 16 16 0 -2
BITMAP
1040
1040
17FC
1108
3090
37FF
3800
55FC
5104
11FC
1104
11FC
12A0
1292
1489
1078
ENDCHAR
STARTCHAR 3232
ENCODING 12850
SWIDTH 960 0
DWIDTH 16 0
BBX 16 16 0 -2
BITMAP
0020
3C20
27FE
2484
2448
3FFF
2400
24FC
2484
3CFC
2484
24FC
2520
2556
2645
4C3C
ENDCHAR
STARTCHAR 3233
ENCODING 12851
SWIDTH 960 0
DWIDTH 16 0
BBX 16 16 0 -2
BITMAP
0800
09FC
0808
7E50
0820
09FE
1D22
1B22
29FE
2922
4922
09FE
0922
0922
0922
0906
ENDCHAR
STARTCHAR 3234
ENCODING 12852
SWIDTH 960 0
DWIDTH 16 0
BBX 16 16 0 -2
BITMAP
0410
1410
1410
1410
1F10
14FE
2410
4410
0410
0710
3C10
0410
0410
0410
05FF
0400
ENDCHAR
STARTCHAR 3235
ENCODING 12853
SWIDTH 960 0
DWIDTH 16 0
BBX 16 16 0 -2
BITMAP
0000
1FF8
0010
0060
0080
0100
0200
0400
0800
1000
1000
2004
2004
2004
1FFC
0000
ENDCHAR
STARTCHAR 3236
ENCODING 12854
SWIDTH 960 0
DWIDTH 16 0
BBX 16 16 0 -2
BITMAP
0440
0440
07FF
08A0
08D0
1148
13FC
364A
5A49
13F8
1248
1248
13F8
1042
1042
103E
ENDCHAR
STARTCHAR 3237
ENCODING 12855
SWIDTH 960 0
DWIDTH 16 0
BBX 16 16 0 -2
BITMAP
1000
103E
1FA2
1422
2422
4422
7FE2
0422
2422
27A2
2422
2422
27BC
3C20
6020
0020
ENDCHAR
STARTCHAR 3238
ENCODING 12856
SWIDTH 960 0
DWIDTH 16 0
BBX 16 16 0 -2
BITMAP
0000
1FFC
1084
1084
1FFC
1144
1234
1C0C
1FFC
0080
1240
1224
1222
2209
4109
00F8
ENDCHAR
STARTCHAR 3239
ENCODING 12857
SWIDTH 960 0
DWIDTH 16 0
BBX 16 16 0 -2
BITMAP
1000
09FC
0904
01FC
4104
2104
21FC
0000
0800
0BFE
1252
1252
2252
2252
4FFF
4000
ENDCHAR
STARTCHAR 323a
ENCODING 12858
SWIDTH 960 0
DWIDTH 16 0
BBX 16 16 0 -2
BITMAP
0404
0838
7BC2
0922
08A4
09FC
7E04
08FC
1C04
1AFC
1A20
2954
2952
4955
0A45
083C
ENDCHAR
STARTCHAR 323b
ENCODING 12859
SWIDTH 960 0
DWIDTH 16 0
BBX 16 16 0 -2
BITMAP
0080
0080
3FFE
0410
0210
0220
7FFF
0000
07F0
0410
0410
07F0
0410
0410
07F0
0000
ENDCHAR
STARTCHAR 323c
ENCODING 12860
SWIDTH 960 0
DWIDTH 16 0
BBX 16 16 0 -2
BITMAP
0000
7FFF
0080
0080
0080
00C0
00A0
0090
0088
0088
0080
0080
0080
0080
0080
0080
ENDCHAR
STARTCHAR 323d
ENCODING 12861
SWIDTH 960 0
DWIDTH 16 0
BBX 16 16 0 -2
BITMAP
0240
0240
0242
0442
0444
0844
0848
1850
2860
4840
0840
0840
0841
0841
0821
081F
ENDCHAR
STARTCHAR 323e
ENCODING 12862
SWIDTH 960 0
DWIDTH 16 0
BBX 16 16 0 -2
BITMAP
0400
05FE
0500
0900
0900
11FC
1184
3144
5148
1128
1230
1210
1428
1444
1982
1601
ENDCHAR
STARTCHAR 323f
ENCODING 12863
SWIDTH 960 0
DWIDTH 16 0
BBX 16 16 0 -2
BITMAP
0400
0400
07FF
0804
0804
13E4
1224
3224
5224
1224
13E4
1004
1004
1004
1004
100C
ENDCHAR
STARTCHAR 3240
ENCODING 12864
SWIDTH 960 0
DWIDTH 16 0
BBX 16 16 0 -2
BITMAP
0A00
0A00
0A1E
1212
1FD2
1252
3252
3252
5252
1252
1252
1252
1452
145E
1980
1000
ENDCHAR
STARTCHAR 3241
ENCODING 12865
SWIDTH 960 0
DWIDTH 16 0
BBX 16 16 0 -2
BITMAP
0400
0400
07FF
0850
0850
1050
13FE
3252
5252
1252
1252
1252
1252
1252
13FE
1000
ENDCHAR
STARTCHAR 3242
ENCODING 12866
SWIDTH 960 0
DWIDTH 16 0
BBX 16 16 0 -2
BITMAP
0420
0420
05FC
0820
0820
1820
2BFE
2820
4820
0820
09FC
0820
0820
0820
0BFE
0800
ENDCHAR
STARTCHAR 3243
ENCODING 12867
SWIDTH 960 0
DWIDTH 16 0
BBX 16 16 0 -2
BITMAP
0800
0800
083E
0822
7FA2
08A2
08A2
08A2
08A2
08A2
08A2
08A2
10A2
10BE
2080
4300
ENDCHAR
STARTCHAR 3244
ENCODING 12868
SWIDTH 960 0
DWIDTH 16 0
BBX 16 16 0 -2
BITMAP
0000
0000
7FFF
0008
0008
0FC8
0848
0848
0848
0848
0FC8
0008
0008
0008
0008
0018
ENDCHAR
STARTCHAR 3245
ENCODING 12869
SWIDTH 960 0
DWIDTH 16 0
BBX 16 16 0 -2
BITMAP
0080
0080
7FFF
0080
1FFC
0000
0FF8
0808
0FF8
0220
7FFF
0800
3F7C
0944
117C
6600
ENDCHAR
STARTCHAR 3246
ENCODING 12870
SWIDTH 960 0
DWIDTH 16 0
BBX 16 16 0 -2
BITMAP
0000
3FFE
0080
0FF8
0808
0FF8
0808
0FF8
0808
0FF8
0200
07F8
0A20
31C0
0670
780E
ENDCHAR
STARTCHAR 3247
ENCODING 12871
SWIDTH 960 0
DWIDTH 16 0
BBX 16 16 0 -2
BITMAP
0820
0820
09FE
0902
7E00
13FC
1240
12A2
252A
245C
7894
0D34
1452
2091
4310
0060
ENDCHAR
STARTCHAR 3248
ENCODING 12872
SWIDTH 960 0
DWIDTH 16 0
BBX 16 16 0 -2
BITMAP
0100
0100
7FFE
4002
4002
1FF0
0204
0D44
31C8
02B0
0CA0
3190
0288
0C84
7082
0300
ENDCHAR
STARTCHAR 3249
ENCODING 12873
SWIDTH 960 0
DWIDTH 16 0
BBX 16 16 0 -2
BITMAP
0100
0100
7FFE
4002
5FFA
0100
0FF0
0810
0FF0
0810
7FFE
0410
1FFC
6113
0610
1860
ENDCHAR
STARTCHAR 324a
ENCODING 12874
SWIDTH 960 0
DWIDTH 16 0
BBX 16 16 0 -2
BITMAP
0104
0644
3C24
0414
0414
0484
7F44
0424
0E24
0D07
14BC
15C4
2404
4404
0404
0404
ENDCHAR
STARTCHAR 324b
ENCODING 12875
SWIDTH 960 0
DWIDTH 16 0
BBX 16 16 0 -2
BITMAP
0000
03DE
7A42
4A42
4A42
4BDE
4A00
7A3E
4BE2
4A14
4A14
4A08
7BC8
0214
0222
0241
ENDCHAR
STARTCHAR 324c
ENCODING 12876
SWIDTH 960 0
DWIDTH 16 0
BBX 16 16 0 -2
BITMAP
0000
1FF8
1108
1108
1FF8
1108
1108
1FF8
0100
7FFE
0380
0540
0920
1118
6106
0100
ENDCHAR
STARTCHAR 324d
ENCODING 12877
SWIDTH 960 0
DWIDTH 16 0
BBX 16 16 0 -2
BITMAP
0800
087C
7F44
0944
0944
1144
117C
2600
4100
0100
7FFE
0340
0520
1918
6106
0100
ENDCHAR
STARTCHAR 324e
ENCODING 12878
SWIDTH 960 0
DWIDTH 16 0
BBX 16 16 0 -2
BITMAP
0040
7FC0
0240
3A7F
2A52
2A54
3A90
0690
7F10
0210
3A28
2A28
2A44
3A44
0282
0701
ENDCHAR
STARTCHAR 324f
ENCODING 12879
SWIDTH 960 0
DWIDTH 16 0
BBX 16 16 0 -2
BITMAP
1000
0BFF
0804
0004
43E4
2224
2224
0224
0A24
0BE4
1004
1004
2004
2004
4004
400C
ENDCHAR
STARTCHAR 3250
ENCODING 12880
SWIDTH 960 0
DWIDTH 16 0
BBX 16 16 0 -2
BITMAP
0080
0080
0084
0084
0884
0888
0888
0890
1080
2140
0140
0220
0210
0408
1804
6003
ENDCHAR
STARTCHAR 3251
ENCODING 12881
SWIDTH 960 0
DWIDTH 16 0
BBX 16 16 0 -2
BITMAP
0000
7FFF
1004
1004
11E4
1124
7D24
1124
1124
1124
11E4
1004
1C04
7004
0004
000C
ENDCHAR
STARTCHAR 3252
ENCODING 12882
SWIDTH 960 0
DWIDTH 16 0
BBX 16 16 0 -2
BITMAP
0800
08FC
0884
7EBC
02A4
04A4
04A4
09FE
1D02
2B7A
494A
094A
097A
0902
0902
0906
ENDCHAR
STARTCHAR 3253
ENCODING 12883
SWIDTH 960 0
DWIDTH 16 0
BBX 16 16 0 -2
BITMAP
0008
0070
1F80
0080
0080
0080
7FFF
0080
01C0
02A0
0490
188C
6083
0080
0080
0080
ENDCHAR
STARTCHAR 3254
ENCODING 12884
SWIDTH 960 0
DWIDTH 16 0
BBX 16 16 0 -2
BITMAP
0220
0C20
79FE
0902
0900
09FC
7E44
0864
19A8
1C58
1A94
2B34
2852
4991
0810
0860
ENDCHAR
STARTCHAR 3255
ENCODING 12885
SWIDTH 960 0
DWIDTH 16 0
BBX 16 16 0 -2
BITMAP
1020
1020
3FBF
2450
4288
3FFC
2104
2104
3FFC
2104
27E4
2424
27E4
2004
3FFC
0000
ENDCHAR
STARTCHAR 3256
ENCODING 12886
SWIDTH 960 0
DWIDTH 16 0
BBX 16 16 0 -2
BITMAP
0420
0420
7FFE
0420
0620
0240
0444
0444
0848
1850
2860
4840
0840
0841
0841
083F
ENDCHAR
STARTCHAR 3257
ENCODING 12887
SWIDTH 960 0
DWIDTH 16 0
BBX 16 16 0 -2
BITMAP
0210
0210
7FFF
0210
0210
0000
7FFE
0008
0FC8
0848
0848
0848
0FC8
0008
0008
0018
ENDCHAR
STARTCHAR 3258
ENCODING 12888
SWIDTH 960 0
DWIDTH 16 0
BBX 16 16 0 -2
BITMAP
0420
0420
7FFE
0420
0420
0800
087C
7F44
0944
0944
0944
0944
1144
117C
2100
4600
ENDCHAR
STARTCHAR 3259
ENCODING 12889
SWIDTH 960 0
DWIDTH 16 0
BBX 16 16 0 -2
BITMAP
0210
0210
7FFF
0210
0210
0400
07FF
0804
09E4
1924
2924
4924
09E4
0804
0804
080C
ENDCHAR
STARTCHAR 325a
ENCODING 12890
SWIDTH 960 0
DWIDTH 16 0
BBX 16 16 0 -2
BITMAP
0410
0410
7FFF
0410
1FFC
0888
0888
7FFF
0888
0888
1FFC
0080
0080
3FFE
0080
0080
ENDCHAR
STARTCHAR 325b
ENCODING 12891
SWIDTH 960 0
DWIDTH 16 0
BBX 16 16 0 -2
BITMAP
0220
0220
7FFF
0220
0FF8
0888
0FF8
0888
0FF8
0080
7FFF
02A0
0490
188C
6083
0080
ENDCHAR
STARTCHAR 325c
ENCODING 12892
SWIDTH 960 0
DWIDTH 16 0
BBX 16 16 0 -2
BITMAP
0800
08EE
08A2
08A2
3EA2
2AEE
2A80
2A9E
3EEA
088A
088A
0CE4
0A84
0E8A
7292
01A1
ENDCHAR
STARTCHAR 325d
ENCODING 12893
SWIDTH 960 0
DWIDTH 16 0
BBX 16 16 0 -2
BITMAP
0000
3EFE
0092
7F92
00FE
3E92
0092
00FE
3E10
01FF
3E38
2254
2254
2292
3F11
0010
ENDCHAR
STARTCHAR 325e
ENCODING 12894
SWIDTH 960 0
DWIDTH 16 0
BBX 16 16 0 -2
BITMAP
0088
0088
7FFF
4888
4BFE
4924
4924
4FFF
4924
4924
4BFE
7820
0020
07FF
0020
0020
ENDCHAR
STARTCHAR 325f
ENCODING 12895
SWIDTH 960 0
DWIDTH 16 0
BBX 16 16 0 -2
BITMAP
0240
0444
0C78
1440
6442
043E
0FF8
0808
0FF8
0808
0FF8
0808
0808
0FF8
0C18
3004
ENDCHAR
STARTCHAR 3260
ENCODING 12896
SWIDTH 960 0
DWIDTH 16 0
BBX 16 16 0 -2
BITMAP
0100
2100
111E
17D2
0152
0152
0152
7952
0952
0A52
0A52
0C5E
0980
1400
2300
40FF
ENDCHAR
STARTCHAR 3261
ENCODING 12897
SWIDTH 960 0
DWIDTH 16 0
BBX 16 16 0 -2
BITMAP
0000
21FC
1104
113C
0124
0124
03FE
7A02
0AFA
0A8A
0A8A
0AFA
0A02
1406
2300
40FF
ENDCHAR
STARTCHAR 3262
ENCODING 12898
SWIDTH 960 0
DWIDTH 16 0
BBX 16 16 0 -2
BITMAP
0000
3FFC
0080
7FFE
4082
5CBA
4E9E
0000
3EFC
2204
3EFC
2000
3EF8
2048
3E30
21CE
ENDCHAR
STARTCHAR 3263
ENCODING 12899
SWIDTH 960 0
DWIDTH 16 0
BBX 16 16 0 -2
BITMAP
0810
0810
0810
3FFF
2944
2944
2944
2944
3F28
0828
0C10
0A10
0A28
0D48
7084
0102
ENDCHAR
STARTCHAR 3264
ENCODING 12900
SWIDTH 960 0
DWIDTH 16 0
BBX 16 16 0 -2
BITMAP
0450
0494
0712
0912
0910
1FFF
1110
3112
5152
1194
1708
111A
112A
1146
1186
1302
ENDCHAR
STARTCHAR 3265
ENCODING 12901
SWIDTH 960 0
DWIDTH 16 0
BBX 16 16 0 -2
BITMAP
1050
1094
1392
5492
5490
57FF
5490
5492
54D2
5594
5688
7C9A
44AA
40C6
0086
0302
ENDCHAR
STARTCHAR 3266
ENCODING 12902
SWIDTH 960 0
DWIDTH 16 0
BBX 16 16 0 -2
BITMAP
0140
0250
0C48
3444
0440
0440
7FFF
0424
0424
0728
0C18
7410
0429
0445
0583
0C01
ENDCHAR
STARTCHAR 3267
ENCODING 12903
SWIDTH 960 0
DWIDTH 16 0
BBX 16 16 0 -2
BITMAP
0000
07FC
0410
0410
0410
0410
0410
7FFF
0050
0090
0110
0210
0410
1810
6010
0030
ENDCHAR
STARTCHAR 3268
ENCODING 12904
SWIDTH 960 0
DWIDTH 16 0
BBX 16 16 0 -2
BITMAP
0000
7FFF
0080
0080
27F2
2492
2492
2492
27F2
2492
2492
2492
27F2
2002
3FFE
0000
ENDCHAR
STARTCHAR 3269
ENCODING 12905
SWIDTH 960 0
DWIDTH 16 0
BBX 16 16 0 -2
BITMAP
0010
3F90
2410
2410
2410
3F10
2110
2128
2128
3F28
2428
2444
2444
3F84
0102
0201
ENDCHAR
STARTCHAR 326a
ENCODING 12906
SWIDTH 960 0
DWIDTH 16 0
BBX 16 16 0 -2
BITMAP
0220
0220
7FFF
0220
0000
1FFC
0420
0420
0420
7FFF
0060
00A0
0320
0C20
7020
0060
ENDCHAR
STARTCHAR 326b
ENCODING 12907
SWIDTH 960 0
DWIDTH 16 0
BBX 16 16 0 -2
BITMAP
0828
0848
09CC
3E4A
2A4A
2BFF
2A48
2A4A
3E4A
0864
0DC4
0A4C
0A4D
1F53
6163
00C1
ENDCHAR
STARTCHAR 326c
ENCODING 12908
SWIDTH 960 0
DWIDTH 16 0
BBX 16 16 0 -2
BITMAP
0800
087E
7F42
0942
0942
117E
2600
4FF8
0808
0FF8
0808
0FF8
0808
0FF8
0618
3806
ENDCHAR
STARTCHAR 326d
ENCODING 12909
SWIDTH 960 0
DWIDTH 16 0
BBX 16 16 0 -2
BITMAP
0024
3F24
1248
127F
12C8
1248
7FC8
0A7E
0A48
0A48
0A7E
1248
1248
2248
427F
0640
ENDCHAR
STARTCHAR 326e
ENCODING 12910
SWIDTH 960 0
DWIDTH 16 0
BBX 16 16 0 -2
BITMAP
0828
084C
15CA
1A4A
2848
7FFF
2248
3E4A
226A
224A
3EC4
2944
244D
2C4B
3253
62E1
ENDCHAR
STARTCHAR 326f
ENCODING 12911
SWIDTH 960 0
DWIDTH 16 0
BBX 16 16 0 -2
BITMAP
0800
7F7E
0942
0942
117E
2600
4FF8
0880
0FF0
0880
0FF0
0880
0FFE
2922
2492
400C
ENDCHAR
STARTCHAR 3270
ENCODING 12912
SWIDTH 960 0
DWIDTH 16 0
BBX 16 16 0 -2
BITMAP
0080
0080
0140
0220
0410
180C
6413
0410
0410
0410
0410
0410
0810
0810
1010
2010
ENDCHAR
STARTCHAR 3271
ENCODING 12913
SWIDTH 960 0
DWIDTH 16 0
BBX 16 16 0 -2
BITMAP
0080
0080
0140
0220
0410
180C
67F3
0000
0000
3FFE
0100
0120
0210
0468
3F84
0004
ENDCHAR
STARTCHAR 3272
ENCODING 12914
SWIDTH 960 0
DWIDTH 16 0
BBX 16 16 0 -2
BITMAP
0800
0EFE
1212
2412
7F22
294C
2990
3F50
297E
2990
3F10
21FF
2110
2110
2110
4310
ENDCHAR
STARTCHAR 3273
ENCODING 12915
SWIDTH 960 0
DWIDTH 16 0
BBX 16 16 0 -2
BITMAP
0000
3FFE
2002
2002
2002
23E2
2222
2222
2222
2222
23E2
2002
2002
2002
3FFE
0000
ENDCHAR
STARTCHAR 3274
ENCODING 12916
SWIDTH 960 0
DWIDTH 16 0
BBX 16 16 0 -2
BITMAP
0020
1040
11FC
1124
1124
7FFC
1124
1124
11FC
1054
1654
189A
609F
0110
0611
180F
ENDCHAR
STARTCHAR 3275
ENCODING 12917
SWIDTH 960 0
DWIDTH 16 0
BBX 16 16 0 -2
BITMAP
0020
1020
13FE
1020
11FC
7F54
1154
11FC
1020
13FF
1444
18A8
6190
0688
00E4
0383
ENDCHAR
STARTCHAR 3276
ENCODING 12918
SWIDTH 960 0
DWIDTH 16 0
BBX 16 16 0 -2
BITMAP
0000
3DFE
0502
0902
097A
114A
3D4A
054A
057A
2502
1502
09FE
0C00
1300
20E0
401F
ENDCHAR
STARTCHAR 3277
ENCODING 12919
SWIDTH 960 0
DWIDTH 16 0
BBX 16 16 0 -2
BITMAP
0820
0820
0820
09FC
2C24
2A24
2A24
2824
4BFF
0820
0850
0850
0888
0888
0904
0A02
ENDCHAR
STARTCHAR 3278
ENCODING 12920
SWIDTH 960 0
DWIDTH 16 0
BBX 16 16 0 -2
BITMAP
0800
0BFC
0888
0848
0850
2C20
2A50
2A8C
2B23
4820
09FC
0820
0820
0820
0BFE
0800
ENDCHAR
STARTCHAR 3279
ENCODING 12921
SWIDTH 960 0
DWIDTH 16 0
BBX 16 16 0 -2
BITMAP
0900
0900
09FE
0900
2A00
2AFC
2CA4
2CA4
4BFF
0924
0924
0924
0BFF
0A04
0808
0830
ENDCHAR
STARTCHAR 327a
ENCODING 12922
SWIDTH 960 0
DWIDTH 16 0
BBX 16 16 0 -2
BITMAP
0800
09FF
0900
0910
2D12
2B52
2954
2954
4950
0990
0918
0928
0A24
0A44
0D82
0E01
ENDCHAR
STARTCHAR 327b
ENCODING 12923
SWIDTH 960 0
DWIDTH 16 0
BBX 16 16 0 -2
BITMAP
0820
0820
0BFF
0820
29FC
2D54
2D54
2BFC
4820
0BFF
0844
08A4
0998
0A88
08E4
0983
ENDCHAR
STARTCHAR 327c
ENCODING 12924
SWIDTH 960 0
DWIDTH 16 0
BBX 16 16 0 -2
BITMAP
0048
0044
0044
7FFF
0040
0944
0944
0928
7FE8
0930
0910
1130
112A
214A
4086
0102
ENDCHAR
STARTCHAR 327d
ENCODING 12925
SWIDTH 960 0
DWIDTH 16 0
BBX 16 16 0 -2
BITMAP
0800
08FC
0884
0884
7E84
08FC
0800
0800
09FE
0E22
7822
0822
0842
0842
0882
190C
ENDCHAR
STARTCHAR 327e
ENCODING 12926
SWIDTH 960 0
DWIDTH 16 0
BBX 16 16 0 -2
BITMAP
0040
0040
7E40
027F
0244
0244
7EA4
42A4
4128
4028
4010
4218
4228
3E44
0082
0301
ENDCHAR
STARTCHAR 3321
ENCODING 13089
SWIDTH 960 0
DWIDTH 16 0
BBX 16 16 0 -2
BITMAP
0804
1044
3F24
2514
2594
3F44
2524
2524
3F07
0CFC
0C84
0D44
17C4
1406
2202
41FE
ENDCHAR
STARTCHAR 3322
ENCODING 13090
SWIDTH 960 0
DWIDTH 16 0
BBX 16 16 0 -2
BITMAP
0080
0080
78FF
4900
4900
4AFC
4CA4
78A4
4FFF
4924
4924
4924
7BFF
0204
0008
0030
ENDCHAR
STARTCHAR 3323
ENCODING 13091
SWIDTH 960 0
DWIDTH 16 0
BBX 16 16 0 -2
BITMAP
0810
0814
0812
7FFF
0810
0952
1952
1D52
1BF4
2954
294C
4948
0A5A
0A26
0C46
0882
ENDCHAR
STARTCHAR 3324
ENCODING 13092
SWIDTH 960 0
DWIDTH 16 0
BBX 16 16 0 -2
BITMAP
1080
0880
08FE
0100
4100
23FC
24A4
00A4
0FFF
0924
1124
1124
23FF
2204
4008
4030
ENDCHAR
STARTCHAR 3325
ENCODING 13093
SWIDTH 960 0
DWIDTH 16 0
BBX 16 16 0 -2
BITMAP
0000
1FFE
1000
1040
1044
1244
1244
1248
1450
1440
10A0
10A0
2110
2208
4C04
3003
ENDCHAR
STARTCHAR 3326
ENCODING 13094
SWIDTH 960 0
DWIDTH 16 0
BBX 16 16 0 -2
BITMAP
0000
1FFC
1084
1084
1FFC
1084
1084
1FFC
0140
0630
1A1C
6213
0410
0410
0810
1010
ENDCHAR
STARTCHAR 3327
ENCODING 13095
SWIDTH 960 0
DWIDTH 16 0
BBX 16 16 0 -2
BITMAP
1020
1026
1FB8
1020
1021
1321
1C9F
6100
0FF8
0808
0808
0FF8
0808
0808
0FF8
0000
ENDCHAR
STARTCHAR 3328
ENCODING 13096
SWIDTH 960 0
DWIDTH 16 0
BBX 16 16 0 -2
BITMAP
0810
0810
0A28
7228
1444
0882
0D7D
1200
7E00
09FE
2C20
2A28
2A44
2A5C
49E2
0802
ENDCHAR
STARTCHAR 3329
ENCODING 13097
SWIDTH 960 0
DWIDTH 16 0
BBX 16 16 0 -2
BITMAP
0410
0410
7FFF
0410
0490
0080
0140
0220
0410
1A1C
6213
0210
0210
0410
0410
0810
ENDCHAR
STARTCHAR 332a
ENCODING 13098
SWIDTH 960 0
DWIDTH 16 0
BBX 16 16 0 -2
BITMAP
1000
1EFE
2422
7F46
29A8
3F3E
2948
3FFF
2108
4308
1FF0
1110
1FF0
0108
01FC
7E02
ENDCHAR
STARTCHAR 332b
ENCODING 13099
SWIDTH 960 0
DWIDTH 16 0
BBX 16 16 0 -2
BITMAP
0000
7E7E
4242
7E7E
4242
4242
7E7E
4002
4FF2
4242
4242
7FFA
4242
4442
4842
4006
ENDCHAR
STARTCHAR 332c
ENCODING 13100
SWIDTH 960 0
DWIDTH 16 0
BBX 16 16 0 -2
BITMAP
0110
3D12
25FC
2510
2910
3111
29CF
2720
24FE
2482
2482
24FE
3882
2082
20FE
2000
ENDCHAR
STARTCHAR 332d
ENCODING 13101
SWIDTH 960 0
DWIDTH 16 0
BBX 16 16 0 -2
BITMAP
0000
0FF8
0808
0808
0808
0FF8
0808
0808
0808
0FF8
0808
0808
0FF8
0230
0C08
3004
ENDCHAR
STARTCHAR 332e
ENCODING 13102
SWIDTH 960 0
DWIDTH 16 0
BBX 16 16 0 -2
BITMAP
0800
293C
2924
3F24
0024
7FA4
0024
3F24
2124
2124
3F24
2224
1224
15C5
0E45
7083
ENDCHAR
STARTCHAR 332f
ENCODING 13103
SWIDTH 960 0
DWIDTH 16 0
BBX 16 16 0 -2
BITMAP
0410
0410
0410
7FFE
0812
0A12
7212
1492
0C92
0912
1122
2222
0522
08C2
1082
610C
ENDCHAR
STARTCHAR 3330
ENCODING 13104
SWIDTH 960 0
DWIDTH 16 0
BBX 16 16 0 -2
BITMAP
0420
0420
07A0
08A0
08A0
10A0
1930
252C
4322
0221
0220
0420
0420
0820
1020
2020
ENDCHAR
STARTCHAR 3331
ENCODING 13105
SWIDTH 960 0
DWIDTH 16 0
BBX 16 16 0 -2
BITMAP
0020
0020
7C20
47FF
4440
4448
4490
4790
4464
4444
4488
7F10
0028
0044
0182
0602
ENDCHAR
STARTCHAR 3332
ENCODING 13106
SWIDTH 960 0
DWIDTH 16 0
BBX 16 16 0 -2
BITMAP
0100
0100
7FFE
4102
4102
3FFC
0100
1FF8
0100
7FFE
0000
1FF8
1008
1008
1FF8
0000
ENDCHAR
STARTCHAR 3333
ENCODING 13107
SWIDTH 960 0
DWIDTH 16 0
BBX 16 16 0 -2
BITMAP
1084
1084
1FFC
0000
1FFF
1040
17FC
1040
1040
1FFE
1040
17FC
2040
2040
5FFF
0000
ENDCHAR
STARTCHAR 3334
ENCODING 13108
SWIDTH 960 0
DWIDTH 16 0
BBX 16 16 0 -2
BITMAP
1000
13FF
1244
1254
33D4
3A54
3654
33FF
5304
128C
128C
124C
12D4
1355
1C25
1043
ENDCHAR
STARTCHAR 3335
ENCODING 13109
SWIDTH 960 0
DWIDTH 16 0
BBX 16 16 0 -2
BITMAP
1000
13FF
1244
1254
7FD4
1254
1254
3BFF
3704
328C
528C
124C
12D4
1355
1C25
1043
ENDCHAR
STARTCHAR 3336
ENCODING 13110
SWIDTH 960 0
DWIDTH 16 0
BBX 16 16 0 -2
BITMAP
1000
0BFE
0A10
0210
42FE
2210
2210
03FF
0A10
0A10
12FE
1210
2410
2410
4BFF
4000
ENDCHAR
STARTCHAR 3337
ENCODING 13111
SWIDTH 960 0
DWIDTH 16 0
BBX 16 16 0 -2
BITMAP
0000
7F7C
0844
087C
0844
1044
1E7C
3200
33FE
5204
13FF
1284
1E44
0044
0004
000C
ENDCHAR
STARTCHAR 3338
ENCODING 13112
SWIDTH 960 0
DWIDTH 16 0
BBX 16 16 0 -2
BITMAP
0410
0410
7FFF
0490
1FFC
0080
7FFF
0220
0418
3FF4
0002
1FF8
1248
1248
7FFF
0000
ENDCHAR
STARTCHAR 3339
ENCODING 13113
SWIDTH 960 0
DWIDTH 16 0
BBX 16 16 0 -2
BITMAP
0900
091E
17E0
1100
2100
4900
0FFF
1104
1104
37E4
5104
1104
1164
1384
1C04
100C
ENDCHAR
STARTCHAR 333a
ENCODING 13114
SWIDTH 960 0
DWIDTH 16 0
BBX 16 16 0 -2
BITMAP
0010
3E10
0010
7FFF
0010
3E14
00E4
0028
3E1A
0012
3E24
2244
2288
2214
3E62
0182
ENDCHAR
STARTCHAR 333b
ENCODING 13115
SWIDTH 960 0
DWIDTH 16 0
BBX 16 16 0 -2
BITMAP
0810
0892
1492
12FE
2100
7EFF
0800
087C
7F44
0844
4A7C
2C44
2824
0E28
19FF
6000
ENDCHAR
STARTCHAR 333c
ENCODING 13116
SWIDTH 960 0
DWIDTH 16 0
BBX 16 16 0 -2
BITMAP
0010
3E10
2210
2EFF
2A10
2A14
7F64
4128
7F12
6212
3E24
22C4
3E08
2214
2222
26C2
ENDCHAR
STARTCHAR 333d
ENCODING 13117
SWIDTH 960 0
DWIDTH 16 0
BBX 16 16 0 -2
BITMAP
1000
0BFC
0A24
0224
43FC
2224
2224
0224
0BFC
0820
1020
17FE
2020
2020
4FFF
4000
ENDCHAR
STARTCHAR 333e
ENCODING 13118
SWIDTH 960 0
DWIDTH 16 0
BBX 16 16 0 -2
BITMAP
043C
3F25
0447
7FFC
2524
3F18
2064
4F83
0080
7FFF
02A0
07F0
1C1C
67F3
0410
07F0
ENDCHAR
STARTCHAR 333f
ENCODING 13119
SWIDTH 960 0
DWIDTH 16 0
BBX 16 16 0 -2
BITMAP
0810
0810
087E
3F10
2910
2910
29FF
2900
3F10
0810
0CFE
0A10
0E10
1910
61FF
0000
ENDCHAR
STARTCHAR 3340
ENCODING 13120
SWIDTH 960 0
DWIDTH 16 0
BBX 16 16 0 -2
BITMAP
0800
09FE
0800
0800
7EFC
0884
0884
08FC
0884
0884
0E84
18FC
6000
0000
07FF
0000
ENDCHAR
STARTCHAR 3341
ENCODING 13121
SWIDTH 960 0
DWIDTH 16 0
BBX 16 16 0 -2
BITMAP
0820
0820
0820
7FFF
0820
0820
19FE
1D22
1B22
2922
2922
4922
092C
0920
0820
0820
ENDCHAR
STARTCHAR 3342
ENCODING 13122
SWIDTH 960 0
DWIDTH 16 0
BBX 16 16 0 -2
BITMAP
0800
08FF
0880
3E80
2AFF
2A90
2A90
2A9E
3E92
0892
0C92
0A92
0F22
1922
6242
048C
ENDCHAR
STARTCHAR 3343
ENCODING 13123
SWIDTH 960 0
DWIDTH 16 0
BBX 16 16 0 -2
BITMAP
0820
0820
1420
123E
2142
7E62
08A2
0922
7F32
084A
4A7A
2CCA
2802
0B02
1C04
6018
ENDCHAR
STARTCHAR 3344
ENCODING 13124
SWIDTH 960 0
DWIDTH 16 0
BBX 16 16 0 -2
BITMAP
0402
3F92
0492
7FF2
0492
3F92
0412
1F12
7FD2
2492
3F92
2492
3F82
0002
7FC2
0006
ENDCHAR
STARTCHAR 3345
ENCODING 13125
SWIDTH 960 0
DWIDTH 16 0
BBX 16 16 0 -2
BITMAP
0108
0108
77FE
5108
5108
5108
5FFF
5294
5294
5AD6
7AB5
0AB5
1294
04A4
04A4
09CC
ENDCHAR
STARTCHAR 3346
ENCODING 13126
SWIDTH 960 0
DWIDTH 16 0
BBX 16 16 0 -2
BITMAP
0200
0200
07F8
0410
0A20
1140
20C0
0320
0410
180C
6FFB
0808
0808
0808
0FF8
0000
ENDCHAR
STARTCHAR 3347
ENCODING 13127
SWIDTH 960 0
DWIDTH 16 0
BBX 16 16 0 -2
BITMAP
0080
0080
1FFF
1100
1FFE
1012
1794
1498
1794
1012
1792
1112
21D2
2F1C
4110
0310
ENDCHAR
STARTCHAR 3348
ENCODING 13128
SWIDTH 960 0
DWIDTH 16 0
BBX 16 16 0 -2
BITMAP
1010
1010
1010
11FF
7D00
1110
1110
1110
1110
1D10
7124
1224
1242
125E
15E1
3801
ENDCHAR
STARTCHAR 3349
ENCODING 13129
SWIDTH 960 0
DWIDTH 16 0
BBX 16 16 0 -2
BITMAP
1244
1124
1128
17FE
7C02
15FA
1108
11F8
1D08
71F8
1108
11F8
1050
1091
1311
3C0F
ENDCHAR
STARTCHAR 334a
ENCODING 13130
SWIDTH 960 0
DWIDTH 16 0
BBX 16 16 0 -2
BITMAP
0840
0840
087C
7F84
08C8
08A8
1D30
1A28
1A44
2882
29FD
4A84
0884
0884
08FC
0800
ENDCHAR
STARTCHAR 334b
ENCODING 13131
SWIDTH 960 0
DWIDTH 16 0
BBX 16 16 0 -2
BITMAP
0820
0820
0820
7FFF
0820
0828
19C8
1C52
1A24
2824
2848
4990
0828
0844
0882
0B02
ENDCHAR
STARTCHAR 334c
ENCODING 13132
SWIDTH 960 0
DWIDTH 16 0
BBX 16 16 0 -2
BITMAP
0800
083C
7F24
0824
0825
3E45
0083
7FFC
4084
5EA4
1224
1218
1288
1314
2262
4181
ENDCHAR
STARTCHAR 334d
ENCODING 13133
SWIDTH 960 0
DWIDTH 16 0
BBX 16 16 0 -2
BITMAP
0448
47FF
2848
1090
11FE
2910
4BFC
1910
15FC
2510
47FE
0488
0450
0820
28D8
1306
ENDCHAR
STARTCHAR 334e
ENCODING 13134
SWIDTH 960 0
DWIDTH 16 0
BBX 16 16 0 -2
BITMAP
0020
7F20
09FF
0921
0925
0848
1E7F
12C8
3348
327E
5248
127E
1248
1E48
007F
0000
ENDCHAR
STARTCHAR 334f
ENCODING 13135
SWIDTH 960 0
DWIDTH 16 0
BBX 16 16 0 -2
BITMAP
0244
05FF
7848
08FE
0890
09FE
7E90
08FE
1C90
1AFE
2A00
29FE
4848
0830
084C
0B83
ENDCHAR
STARTCHAR 3350
ENCODING 13136
SWIDTH 960 0
DWIDTH 16 0
BBX 16 16 0 -2
BITMAP
1108
0888
0890
7FFE
4002
4FF2
0810
0FF0
0810
0FF0
0810
0FF0
0240
0441
1841
603F
ENDCHAR
STARTCHAR 3351
ENCODING 13137
SWIDTH 960 0
DWIDTH 16 0
BBX 16 16 0 -2
BITMAP
0200
03E0
0420
1840
7FFC
1084
1084
1FFC
1084
1084
1FFC
1004
1004
2004
2004
400C
ENDCHAR
STARTCHAR 3352
ENCODING 13138
SWIDTH 960 0
DWIDTH 16 0
BBX 16 16 0 -2
BITMAP
0410
0410
3F7E
0410
0410
0410
7FFF
0A28
0B2C
2AAC
2AEA
2A6A
4AAA
1248
1248
2698
ENDCHAR
STARTCHAR 3353
ENCODING 13139
SWIDTH 960 0
DWIDTH 16 0
BBX 16 16 0 -2
BITMAP
0810
0810
7F10
09FF
3E44
2A44
2A82
3F45
2A44
2A28
3E28
0810
7F28
0844
0882
0901
ENDCHAR
STARTCHAR 3354
ENCODING 13140
SWIDTH 960 0
DWIDTH 16 0
BBX 16 16 0 -2
BITMAP
0400
043E
7FE2
0022
1FA4
10A4
1FA8
0024
3FA2
0122
0221
03B1
7E29
0226
0220
0620
ENDCHAR
STARTCHAR 3355
ENCODING 13141
SWIDTH 960 0
DWIDTH 16 0
BBX 16 16 0 -2
BITMAP
0000
7E7E
4242
7E7E
4242
7E7E
4102
43E2
4E42
4182
4662
581A
47E2
4422
47E2
4006
ENDCHAR
STARTCHAR 3356
ENCODING 13142
SWIDTH 960 0
DWIDTH 16 0
BBX 16 16 0 -2
BITMAP
0000
3DFE
2400
24FC
2884
30FC
2800
25FE
252A
252A
254E
2582
39FE
2112
2112
2116
ENDCHAR
STARTCHAR 3357
ENCODING 13143
SWIDTH 960 0
DWIDTH 16 0
BBX 16 16 0 -2
BITMAP
0220
0220
3FFE
0220
0220
03E0
0080
0FF8
0888
0888
0FF8
0080
7FFF
0080
0080
0080
ENDCHAR
STARTCHAR 3358
ENCODING 13144
SWIDTH 960 0
DWIDTH 16 0
BBX 16 16 0 -2
BITMAP
1108
0888
0890
7FFE
4002
4002
1FF0
0020
00C0
0100
7FFE
0100
0100
0100
0100
0300
ENDCHAR
STARTCHAR 3359
ENCODING 13145
SWIDTH 960 0
DWIDTH 16 0
BBX 16 16 0 -2
BITMAP
0010
0060
0780
0400
07FC
0410
0410
0410
7FFF
0080
1084
1084
1084
1084
1FFC
0000
ENDCHAR
STARTCHAR 335a
ENCODING 13146
SWIDTH 960 0
DWIDTH 16 0
BBX 16 16 0 -2
BITMAP
0040
2082
13E2
0A24
0A28
03E0
0228
0E26
33E1
0080
7FFF
01C0
02A0
0C98
7087
0080
ENDCHAR
STARTCHAR 335b
ENCODING 13147
SWIDTH 960 0
DWIDTH 16 0
BBX 16 16 0 -2
BITMAP
0800
08FF
7F10
4120
497E
1E42
2242
547E
0C42
0A7E
1142
3EC2
527E
1224
1EC2
1301
ENDCHAR
STARTCHAR 335c
ENCODING 13148
SWIDTH 960 0
DWIDTH 16 0
BBX 16 16 0 -2
BITMAP
0000
77FF
5510
5520
777E
0042
3E7E
0042
7F42
107E
1042
3E42
227E
0224
0262
0CC1
ENDCHAR
STARTCHAR 335d
ENCODING 13149
SWIDTH 960 0
DWIDTH 16 0
BBX 16 16 0 -2
BITMAP
1084
1084
13E4
1084
7C84
1084
17F6
1085
1C85
73E4
1084
1084
10B4
11C4
1604
3004
ENDCHAR
STARTCHAR 335e
ENCODING 13150
SWIDTH 960 0
DWIDTH 16 0
BBX 16 16 0 -2
BITMAP
0810
0810
1FBF
2428
4244
0284
0080
3FFE
0008
0808
0410
0210
0220
0040
7FFF
0000
ENDCHAR
STARTCHAR 335f
ENCODING 13151
SWIDTH 960 0
DWIDTH 16 0
BBX 16 16 0 -2
BITMAP
1000
13C0
12BE
7E92
13D2
124C
1BC8
3694
32A2
33C1
5020
11FC
1020
1020
17FF
1000
ENDCHAR
STARTCHAR 3360
ENCODING 13152
SWIDTH 960 0
DWIDTH 16 0
BBX 16 16 0 -2
BITMAP
0800
0BFF
0800
7FFC
0924
19FC
1D24
1BFF
2A00
29FC
4924
09FC
0924
09FC
0800
0BFF
ENDCHAR
STARTCHAR 3361
ENCODING 13153
SWIDTH 960 0
DWIDTH 16 0
BBX 16 16 0 -2
BITMAP
0800
09FE
0902
7F02
09FE
0904
1D18
1BE0
1920
29FE
2920
49FF
0A20
0A21
0C21
081F
ENDCHAR
STARTCHAR 3362
ENCODING 13154
SWIDTH 960 0
DWIDTH 16 0
BBX 16 16 0 -2
BITMAP
0828
0E48
1388
248A
7E9A
2BFA
2A9C
3EA8
2AC8
2BC8
3EAC
0294
3494
2AA2
2AC2
4081
ENDCHAR
STARTCHAR 3363
ENCODING 13155
SWIDTH 960 0
DWIDTH 16 0
BBX 16 16 0 -2
BITMAP
1040
0880
0B38
0208
43B8
2208
2208
03F8
0880
08FE
1102
1612
234A
22A2
4482
480C
ENDCHAR
STARTCHAR 3364
ENCODING 13156
SWIDTH 960 0
DWIDTH 16 0
BBX 16 16 0 -2
BITMAP
0402
7FD2
4052
4452
3F92
0412
3F92
0412
7FD2
0012
1F92
1092
1082
1082
1F82
0006
ENDCHAR
STARTCHAR 3365
ENCODING 13157
SWIDTH 960 0
DWIDTH 16 0
BBX 16 16 0 -2
BITMAP
0000
01F8
7908
4908
49F8
4908
4908
49F8
4840
48FE
7912
03E2
0502
0112
00F2
000C
ENDCHAR
STARTCHAR 3366
ENCODING 13158
SWIDTH 960 0
DWIDTH 16 0
BBX 16 16 0 -2
BITMAP
0820
0820
0850
0850
0C88
2A84
2902
2AFD
4C00
0800
08FC
0884
0884
0884
08FC
0800
ENDCHAR
STARTCHAR 3367
ENCODING 13159
SWIDTH 960 0
DWIDTH 16 0
BBX 16 16 0 -2
BITMAP
1004
1018
11E0
1020
7C20
1020
13FF
1020
1C20
7020
11FC
1104
1104
1104
11FC
3000
ENDCHAR
STARTCHAR 3368
ENCODING 13160
SWIDTH 960 0
DWIDTH 16 0
BBX 16 16 0 -2
BITMAP
1004
0818
09E0
0020
0020
4020
27FF
2020
0820
0820
11FC
1104
2104
2104
41FC
4000
ENDCHAR
STARTCHAR 3369
ENCODING 13161
SWIDTH 960 0
DWIDTH 16 0
BBX 16 16 0 -2
BITMAP
1000
09F8
0908
01F8
4108
2108
21F8
0040
08FE
0912
1322
15C2
210A
20FA
4004
4018
ENDCHAR
STARTCHAR 336a
ENCODING 13162
SWIDTH 960 0
DWIDTH 16 0
BBX 16 16 0 -2
BITMAP
1000
09F8
0908
0138
0128
47FE
2402
25FA
0108
09F8
1108
11F8
2108
2108
4108
4118
ENDCHAR
STARTCHAR 336b
ENCODING 13163
SWIDTH 960 0
DWIDTH 16 0
BBX 16 16 0 -2
BITMAP
0420
0420
7FFE
0420
0FF0
0810
0FF0
0810
0FF0
0200
07FE
1C62
6782
0412
03F2
000C
ENDCHAR
STARTCHAR 336c
ENCODING 13164
SWIDTH 960 0
DWIDTH 16 0
BBX 16 16 0 -2
BITMAP
0800
08FC
0884
7EFC
0284
0484
04FC
0A20
1A3E
2C4A
4AD2
0B62
084A
083A
0802
080C
ENDCHAR
STARTCHAR 336d
ENCODING 13165
SWIDTH 960 0
DWIDTH 16 0
BBX 16 16 0 -2
BITMAP
0810
0810
7FFE
0882
3E92
2AFE
2A10
3E7C
2A10
2AFF
3E00
087C
7F44
0844
087C
0800
ENDCHAR
STARTCHAR 336e
ENCODING 13166
SWIDTH 960 0
DWIDTH 16 0
BBX 16 16 0 -2
BITMAP
0000
0FF0
0810
0810
0810
0FF0
0810
0810
0810
0FF0
0810
0810
0810
0810
7FFE
0000
ENDCHAR
STARTCHAR 336f
ENCODING 13167
SWIDTH 960 0
DWIDTH 16 0
BBX 16 16 0 -2
BITMAP
0800
0EF0
12BE
24AA
7EFA
2A9A
2AF4
3EA6
2AAA
2AF1
3E10
057C
3290
2A10
29FF
4000
ENDCHAR
STARTCHAR 3370
ENCODING 13168
SWIDTH 960 0
DWIDTH 16 0
BBX 16 16 0 -2
BITMAP
0010
0010
3E10
2210
2210
2210
23FF
2210
2210
2210
2210
3E10
0010
0010
0010
0010
ENDCHAR
STARTCHAR 3371
ENCODING 13169
SWIDTH 960 0
DWIDTH 16 0
BBX 16 16 0 -2
BITMAP
0888
0888
0BFF
7E88
0888
0850
1C50
1A92
1894
2998
2A90
4890
0890
0891
0891
088F
ENDCHAR
STARTCHAR 3372
ENCODING 13170
SWIDTH 960 0
DWIDTH 16 0
BBX 16 16 0 -2
BITMAP
0848
0848
0BFF
7C48
0BFE
08A4
1CA4
1BFF
18A4
28A4
2BFE
4820
0BFF
0820
0820
0820
ENDCHAR
STARTCHAR 3373
ENCODING 13171
SWIDTH 960 0
DWIDTH 16 0
BBX 16 16 0 -2
BITMAP
1220
1220
7F20
127E
1242
1E7A
088A
3F0A
297A
2942
3F42
084C
7FC0
0841
0841
083F
ENDCHAR
STARTCHAR 3374
ENCODING 13172
SWIDTH 960 0
DWIDTH 16 0
BBX 16 16 0 -2
BITMAP
0810
0890
0890
7E90
09FE
0910
1D10
1A10
1BFF
2830
2858
4858
0894
0912
0A11
0810
ENDCHAR
STARTCHAR 3375
ENCODING 13173
SWIDTH 960 0
DWIDTH 16 0
BBX 16 16 0 -2
BITMAP
0480
0900
33DC
2244
2244
23C4
2244
2244
3BDC
0000
0240
0240
0242
0442
1842
603E
ENDCHAR
STARTCHAR 3376
ENCODING 13174
SWIDTH 960 0
DWIDTH 16 0
BBX 16 16 0 -2
BITMAP
0100
7FFE
4922
17DE
6100
7FFE
0910
0FF0
0910
1FF8
1108
1FF8
1108
1FFA
0102
00FE
ENDCHAR
STARTCHAR 3377
ENCODING 13175
SWIDTH 960 0
DWIDTH 16 0
BBX 16 16 0 -2
BITMAP
0220
0220
7FFF
0228
1824
07FE
0020
61FC
1124
01FC
0924
09FC
1124
1124
2124
412C
ENDCHAR
STARTCHAR 3378
ENCODING 13176
SWIDTH 960 0
DWIDTH 16 0
BBX 16 16 0 -2
BITMAP
0220
0418
0A24
3142
0080
0360
0C18
77F7
0080
0080
7FFF
0888
0488
0490
3FFE
0000
ENDCHAR
STARTCHAR 3379
ENCODING 13177
SWIDTH 960 0
DWIDTH 16 0
BBX 16 16 0 -2
BITMAP
0888
0850
17FF
1250
21FC
7E54
0854
09FF
7E54
09FC
4858
2CD4
28D2
0F51
1A50
6050
ENDCHAR
STARTCHAR 337a
ENCODING 13178
SWIDTH 960 0
DWIDTH 16 0
BBX 16 16 0 -2
BITMAP
0020
0120
793E
4920
4920
4FFF
4A22
4AAA
4A72
4BFE
4A22
7A72
02AA
0322
03FE
0000
ENDCHAR
STARTCHAR 337b
ENCODING 13179
SWIDTH 960 0
DWIDTH 16 0
BBX 16 16 0 -2
BITMAP
0020
7E40
4AFC
4A84
4AFC
7E84
4AFC
4A80
4AFF
7E80
08FE
082A
0996
0952
0A42
0C0C
ENDCHAR
STARTCHAR 337c
ENCODING 13180
SWIDTH 960 0
DWIDTH 16 0
BBX 16 16 0 -2
BITMAP
0800
0BFF
0820
7E20
0840
08FC
1C84
1A84
1A84
28FC
2884
4884
0884
0884
08FC
0800
ENDCHAR
STARTCHAR 337d
ENCODING 13181
SWIDTH 960 0
DWIDTH 16 0
BBX 16 16 0 -2
BITMAP
0210
0210
7FFF
0210
0FF8
0010
0320
00C0
7FFE
00C4
0148
0240
0440
1840
6040
00C0
ENDCHAR
STARTCHAR 337e
ENCODING 13182
SWIDTH 960 0
DWIDTH 16 0
BBX 16 16 0 -2
BITMAP
0820
0820
7FFE
0820
0100
7FFE
4002
5FFA
0000
0FF0
0810
0FF0
0810
0FF0
0000
7FFE
ENDCHAR
STARTCHAR 3421
ENCODING 13345
SWIDTH 960 0
DWIDTH 16 0
BBX 16 16 0 -2
BITMAP
0000
789E
0CA2
0AA2
0AC2
388E
27F8
2088
39CE
09C2
0AA2
0AA2
0C92
0882
1084
6018
ENDCHAR
STARTCHAR 3422
ENCODING 13346
SWIDTH 960 0
DWIDTH 16 0
BBX 16 16 0 -2
BITMAP
0102
0122
0122
0122
2122
1122
0A22
0622
0222
0522
0522
0882
0882
1082
2002
4006
ENDCHAR
STARTCHAR 3423
ENCODING 13347
SWIDTH 960 0
DWIDTH 16 0
BBX 16 16 0 -2
BITMAP
0210
0210
7FFF
0210
0212
0102
3122
0922
0622
0222
0522
0522
0882
1082
2082
4006
ENDCHAR
STARTCHAR 3424
ENCODING 13348
SWIDTH 960 0
DWIDTH 16 0
BBX 16 16 0 -2
BITMAP
0000
3FFE
0200
0200
0200
03F0
0210
0210
0310
0290
0490
0410
0410
05D2
0E12
700E
ENDCHAR
STARTCHAR 3425
ENCODING 13349
SWIDTH 960 0
DWIDTH 16 0
BBX 16 16 0 -2
BITMAP
0840
0840
7F40
087F
3E40
2280
22FC
3F04
2208
2210
3E20
0820
7FC2
0842
0842
083E
ENDCHAR
STARTCHAR 3426
ENCODING 13350
SWIDTH 960 0
DWIDTH 16 0
BBX 16 16 0 -2
BITMAP
0400
05FC
0504
0904
0904
11FC
1000
3124
5124
1124
1124
1124
1124
1225
1225
1403
ENDCHAR
STARTCHAR 3427
ENCODING 13351
SWIDTH 960 0
DWIDTH 16 0
BBX 16 16 0 -2
BITMAP
0000
7FFE
4002
4002
3F08
0008
00FE
7F08
1288
1248
1248
1208
1208
221A
2102
40FE
ENDCHAR
STARTCHAR 3428
ENCODING 13352
SWIDTH 960 0
DWIDTH 16 0
BBX 16 16 0 -2
BITMAP
0100
0100
7FFE
4002
4442
1FF8
0440
1FF8
0440
7FFE
0420
1998
6046
0F00
00E0
0010
ENDCHAR
STARTCHAR 3429
ENCODING 13353
SWIDTH 960 0
DWIDTH 16 0
BBX 16 16 0 -2
BITMAP
0002
3FA2
0422
0422
0422
0422
7FE2
0422
0422
0422
0422
0402
0402
0402
0402
0406
ENDCHAR
STARTCHAR 342a
ENCODING 13354
SWIDTH 960 0
DWIDTH 16 0
BBX 16 16 0 -2
BITMAP
1110
1110
7F90
1110
1F7E
1112
1F12
1112
7F92
2A12
2A12
2AA2
31A2
2022
3F42
008C
ENDCHAR
STARTCHAR 342b
ENCODING 13355
SWIDTH 960 0
DWIDTH 16 0
BBX 16 16 0 -2
BITMAP
1010
1010
1F90
2410
247E
5F92
0912
1212
3F92
5212
1F22
1222
1F22
1242
1FC2
008C
ENDCHAR
STARTCHAR 342c
ENCODING 13356
SWIDTH 960 0
DWIDTH 16 0
BBX 16 16 0 -2
BITMAP
0888
0488
0490
1FFE
0080
0140
7FFF
0220
07F0
181C
6013
07F0
0400
0408
0408
03F8
ENDCHAR
STARTCHAR 342d
ENCODING 13357
SWIDTH 960 0
DWIDTH 16 0
BBX 16 16 0 -2
BITMAP
0080
00F8
7910
4A20
4FFC
4AA4
4AA4
4AAC
4A9C
4B04
7A24
4FFF
0020
0050
018C
0E03
ENDCHAR
STARTCHAR 342e
ENCODING 13358
SWIDTH 960 0
DWIDTH 16 0
BBX 16 16 0 -2
BITMAP
0084
1084
13FF
1084
10FC
7C84
10FC
1084
1084
17FF
1250
1652
1A8E
6300
03FF
0000
ENDCHAR
STARTCHAR 342f
ENCODING 13359
SWIDTH 960 0
DWIDTH 16 0
BBX 16 16 0 -2
BITMAP
0100
0100
3FFC
0220
0440
0F80
0270
3C08
0410
7FFF
0924
0924
3DF4
0618
0B2C
70C2
ENDCHAR
STARTCHAR 3430
ENCODING 13360
SWIDTH 960 0
DWIDTH 16 0
BBX 16 16 0 -2
BITMAP
0100
0100
7FFE
4002
4002
1FF8
0000
0000
7FFE
0240
0240
0240
0442
0842
1022
601E
ENDCHAR
STARTCHAR 3431
ENCODING 13361
SWIDTH 960 0
DWIDTH 16 0
BBX 16 16 0 -2
BITMAP
0100
0100
7FFE
4002
4FF2
0810
0810
0FF0
0800
0800
0FF8
0808
0808
0808
0FF8
0000
ENDCHAR
STARTCHAR 3432
ENCODING 13362
SWIDTH 960 0
DWIDTH 16 0
BBX 16 16 0 -2
BITMAP
0100
0100
7FFE
4422
5FFA
0420
0FF0
0810
0FF0
0810
0FF0
0810
0FF2
0242
0C42
703E
ENDCHAR
STARTCHAR 3433
ENCODING 13363
SWIDTH 960 0
DWIDTH 16 0
BBX 16 16 0 -2
BITMAP
0000
1FFC
0080
0080
0080
0080
0080
7FFF
0080
0080
0080
0080
0080
0080
0080
0080
ENDCHAR
STARTCHAR 3434
ENCODING 13364
SWIDTH 960 0
DWIDTH 16 0
BBX 16 16 0 -2
BITMAP
0810
0810
7F28
0828
3E44
2282
237D
3E10
2210
2210
3FFF
0810
7F10
0810
0810
0810
ENDCHAR
STARTCHAR 3435
ENCODING 13365
SWIDTH 960 0
DWIDTH 16 0
BBX 16 16 0 -2
BITMAP
0100
0100
3FF8
2108
3FF8
0100
3FF8
2108
3FF8
0100
0100
1488
1484
2412
4212
01F0
ENDCHAR
STARTCHAR 3436
ENCODING 13366
SWIDTH 960 0
DWIDTH 16 0
BBX 16 16 0 -2
BITMAP
0048
0044
1FFF
1040
1FA4
1024
1798
1490
17AA
2046
4082
1244
1242
2209
4109
00F8
ENDCHAR
STARTCHAR 3437
ENCODING 13367
SWIDTH 960 0
DWIDTH 16 0
BBX 16 16 0 -2
BITMAP
0800
08FE
0892
0BFF
0924
2DFC
2A00
2BFC
4904
09FC
0904
09FC
0904
09FC
084C
0B83
ENDCHAR
STARTCHAR 3438
ENCODING 13368
SWIDTH 960 0
DWIDTH 16 0
BBX 16 16 0 -2
BITMAP
0814
0812
09FF
0910
29F2
2D0A
2BEC
29A4
4AED
0A93
0C21
0950
0952
0A45
0C45
083C
ENDCHAR
STARTCHAR 3439
ENCODING 13369
SWIDTH 960 0
DWIDTH 16 0
BBX 16 16 0 -2
BITMAP
1040
107C
1088
7D10
13FE
1652
1252
1252
1E8E
7322
1222
17FF
1060
1090
110C
3603
ENDCHAR
STARTCHAR 343a
ENCODING 13370
SWIDTH 960 0
DWIDTH 16 0
BBX 16 16 0 -2
BITMAP
0020
3FA0
0420
043F
7FA4
1144
1164
1FA4
1114
1F14
1118
1188
1F14
7124
0142
0181
ENDCHAR
STARTCHAR 343b
ENCODING 13371
SWIDTH 960 0
DWIDTH 16 0
BBX 16 16 0 -2
BITMAP
0844
0844
0844
7F44
09FF
0844
1C44
1A44
1944
297C
2844
4844
0844
0844
087C
0800
ENDCHAR
STARTCHAR 343c
ENCODING 13372
SWIDTH 960 0
DWIDTH 16 0
BBX 16 16 0 -2
BITMAP
0800
09FE
0800
7E00
08FC
0884
1C84
1AFC
1A84
2884
2884
48FC
0800
0800
0BFF
0800
ENDCHAR
STARTCHAR 343d
ENCODING 13373
SWIDTH 960 0
DWIDTH 16 0
BBX 16 16 0 -2
BITMAP
0820
0820
0BFE
7E02
0A02
08FA
1C88
1A88
1AF8
2880
2880
48FC
0884
0884
08FC
0800
ENDCHAR
STARTCHAR 343e
ENCODING 13374
SWIDTH 960 0
DWIDTH 16 0
BBX 16 16 0 -2
BITMAP
0820
0820
7F20
083F
0842
3F54
0090
3F10
0010
7F90
0828
2A28
2924
4944
0882
1901
ENDCHAR
STARTCHAR 343f
ENCODING 13375
SWIDTH 960 0
DWIDTH 16 0
BBX 16 16 0 -2
BITMAP
1020
1020
1FA0
243F
4421
7FD2
0954
1290
1F90
3210
5F28
1228
1F24
1244
1F82
0101
ENDCHAR
STARTCHAR 3440
ENCODING 13376
SWIDTH 960 0
DWIDTH 16 0
BBX 16 16 0 -2
BITMAP
1000
0BFE
0820
0020
0020
4020
2020
27FF
0820
0820
1020
1020
2020
2020
4020
4020
ENDCHAR
STARTCHAR 3441
ENCODING 13377
SWIDTH 960 0
DWIDTH 16 0
BBX 16 16 0 -2
BITMAP
1088
0888
0FFF
0088
4000
23FE
2222
0222
0BFE
0820
13FC
1020
27FF
2050
418C
4603
ENDCHAR
STARTCHAR 3442
ENCODING 13378
SWIDTH 960 0
DWIDTH 16 0
BBX 16 16 0 -2
BITMAP
1000
0BDE
0A52
03DE
4252
2252
23DE
0202
0AFA
0A8A
12FA
128A
228A
22FA
4202
4206
ENDCHAR
STARTCHAR 3443
ENCODING 13379
SWIDTH 960 0
DWIDTH 16 0
BBX 16 16 0 -2
BITMAP
2100
1100
11FE
0140
4240
23FF
2488
0110
03FE
0D10
11FC
1110
21FC
2110
41FF
4000
ENDCHAR
STARTCHAR 3444
ENCODING 13380
SWIDTH 960 0
DWIDTH 16 0
BBX 16 16 0 -2
BITMAP
0000
01FC
7F54
1154
11FC
1000
17FF
7C00
11FC
1104
11FC
14E2
1954
764C
0043
0040
ENDCHAR
STARTCHAR 3445
ENCODING 13381
SWIDTH 960 0
DWIDTH 16 0
BBX 16 16 0 -2
BITMAP
0410
0410
0410
0410
7FFF
0410
0410
0410
0410
07F0
0410
0410
0410
0410
07F0
0000
ENDCHAR
STARTCHAR 3446
ENCODING 13382
SWIDTH 960 0
DWIDTH 16 0
BBX 16 16 0 -2
BITMAP
0020
3F20
2420
243F
3F40
2140
3FBE
2400
3F00
0000
1FFC
1224
1224
1224
7FFF
0000
ENDCHAR
STARTCHAR 3447
ENCODING 13383
SWIDTH 960 0
DWIDTH 16 0
BBX 16 16 0 -2
BITMAP
0008
0070
0F80
0080
1FFC
0100
7FFF
0200
07F8
0A08
13F8
2208
03F8
0208
03F8
0000
ENDCHAR
STARTCHAR 3448
ENCODING 13384
SWIDTH 960 0
DWIDTH 16 0
BBX 16 16 0 -2
BITMAP
0820
0820
1FBF
2448
4284
0000
1FFC
0080
0080
0080
7FFF
0080
0080
0080
0080
0080
ENDCHAR
STARTCHAR 3449
ENCODING 13385
SWIDTH 960 0
DWIDTH 16 0
BBX 16 16 0 -2
BITMAP
0810
0810
1FBF
2448
4284
7FFE
4002
4FF2
0810
0810
0FF0
0800
0FF8
0808
0808
0FF8
ENDCHAR
STARTCHAR 344a
ENCODING 13386
SWIDTH 960 0
DWIDTH 16 0
BBX 16 16 0 -2
BITMAP
1020
1FBF
2450
4288
3F7E
2142
3F7E
2142
3F7E
2002
27E2
2422
27E2
2422
27E2
2006
ENDCHAR
STARTCHAR 344b
ENCODING 13387
SWIDTH 960 0
DWIDTH 16 0
BBX 16 16 0 -2
BITMAP
0804
081A
0BE2
7224
1494
0858
0DFE
1240
7DFF
0840
2C7C
2AA4
2A98
2B10
486C
0983
ENDCHAR
STARTCHAR 344c
ENCODING 13388
SWIDTH 960 0
DWIDTH 16 0
BBX 16 16 0 -2
BITMAP
0800
0800
0800
0FFC
1080
1080
2080
4080
7FFF
0080
1084
1084
1084
1084
1FFC
0000
ENDCHAR
STARTCHAR 344d
ENCODING 13389
SWIDTH 960 0
DWIDTH 16 0
BBX 16 16 0 -2
BITMAP
0810
0810
7F28
0844
3E82
23FF
2222
3F32
22AA
22AA
3E22
0866
7FAA
0932
0822
0866
ENDCHAR
STARTCHAR 344e
ENCODING 13390
SWIDTH 960 0
DWIDTH 16 0
BBX 16 16 0 -2
BITMAP
0000
3EFE
2210
2210
2210
3E10
2210
23FF
2210
3E10
2210
2210
2210
2210
2210
4610
ENDCHAR
STARTCHAR 344f
ENCODING 13391
SWIDTH 960 0
DWIDTH 16 0
BBX 16 16 0 -2
BITMAP
0404
08F4
1EA4
12A7
12F8
1A90
16F0
17AF
1AF0
7200
1AFE
16AA
16AA
22AA
23FF
4600
ENDCHAR
STARTCHAR 3450
ENCODING 13392
SWIDTH 960 0
DWIDTH 16 0
BBX 16 16 0 -2
BITMAP
0410
0410
7FFF
0410
0080
7FFE
4002
4FF2
0000
0000
7FFE
0240
0240
0442
1842
603E
ENDCHAR
STARTCHAR 3451
ENCODING 13393
SWIDTH 960 0
DWIDTH 16 0
BBX 16 16 0 -2
BITMAP
1000
107E
3F42
2842
487E
7FC2
1242
147E
3F42
6442
3F7E
2428
3F28
2449
3F89
2107
ENDCHAR
STARTCHAR 3452
ENCODING 13394
SWIDTH 960 0
DWIDTH 16 0
BBX 16 16 0 -2
BITMAP
0010
3C10
01FF
7F10
00FC
3E94
0094
00FC
3E94
0094
3EFC
2238
2254
2292
3F11
2210
ENDCHAR
STARTCHAR 3453
ENCODING 13395
SWIDTH 960 0
DWIDTH 16 0
BBX 16 16 0 -2
BITMAP
0000
0FF8
0888
7FFF
1110
1FF0
0000
0FF8
0808
0FF8
0808
0FF8
0808
0FF8
0418
3806
ENDCHAR
STARTCHAR 3454
ENCODING 13396
SWIDTH 960 0
DWIDTH 16 0
BBX 16 16 0 -2
BITMAP
0000
23FC
1294
13FC
0000
0FFF
0000
79F8
0908
09F8
08C2
0964
1658
1247
21C0
407F
ENDCHAR
STARTCHAR 3455
ENCODING 13397
SWIDTH 960 0
DWIDTH 16 0
BBX 16 16 0 -2
BITMAP
0804
08F4
14A4
12A7
20F8
7E90
08F0
08AF
7FF0
0800
4AFE
2CAA
29AA
0EAA
19FF
6000
ENDCHAR
STARTCHAR 3456
ENCODING 13398
SWIDTH 960 0
DWIDTH 16 0
BBX 16 16 0 -2
BITMAP
0000
7E7E
4242
7E7E
4242
4242
7E7E
4002
47E2
4422
47E2
4422
4422
47E2
4002
4006
ENDCHAR
STARTCHAR 3457
ENCODING 13399
SWIDTH 960 0
DWIDTH 16 0
BBX 16 16 0 -2
BITMAP
0000
7E7E
4242
7E7E
4242
7E7E
4102
4102
5FF2
4102
4382
4542
4922
5112
4102
4006
ENDCHAR
STARTCHAR 3458
ENCODING 13400
SWIDTH 960 0
DWIDTH 16 0
BBX 16 16 0 -2
BITMAP
0000
7E7E
4242
7E7E
4242
7E7E
4422
4242
4FF2
4102
4102
5FFA
4142
4222
4412
4806
ENDCHAR
STARTCHAR 3459
ENCODING 13401
SWIDTH 960 0
DWIDTH 16 0
BBX 16 16 0 -2
BITMAP
0020
3C20
243C
2444
2848
3088
2810
293E
2522
2522
253E
2522
3922
2122
213E
2100
ENDCHAR
STARTCHAR 345a
ENCODING 13402
SWIDTH 960 0
DWIDTH 16 0
BBX 16 16 0 -2
BITMAP
0810
08FC
7F24
0824
3FFF
2200
22FC
3E84
22FE
2208
3E7E
0848
7F48
09FF
0808
0808
ENDCHAR
STARTCHAR 345b
ENCODING 13403
SWIDTH 960 0
DWIDTH 16 0
BBX 16 16 0 -2
BITMAP
0810
0810
14FF
1281
2981
7E7C
2244
3E44
227C
2240
3E40
247E
2242
2642
397E
6000
ENDCHAR
STARTCHAR 345c
ENCODING 13404
SWIDTH 960 0
DWIDTH 16 0
BBX 16 16 0 -2
BITMAP
0810
0810
15FF
1301
2101
5E7C
0844
0844
7F7C
0840
3E40
227E
2242
2242
3E7E
0000
ENDCHAR
STARTCHAR 345d
ENCODING 13405
SWIDTH 960 0
DWIDTH 16 0
BBX 16 16 0 -2
BITMAP
0200
0200
0200
0200
7FF0
0210
0210
0A10
0610
0210
0510
0490
0892
1012
2012
400E
ENDCHAR
STARTCHAR 345e
ENCODING 13406
SWIDTH 960 0
DWIDTH 16 0
BBX 16 16 0 -2
BITMAP
0080
0080
0140
0220
07F0
180C
6003
0FF0
0010
0020
0040
0FF8
0808
0808
0FF8
0000
ENDCHAR
STARTCHAR 345f
ENCODING 13407
SWIDTH 960 0
DWIDTH 16 0
BBX 16 16 0 -2
BITMAP
0080
1084
1084
1FFC
0000
1FFF
1000
17FC
1040
1040
1FFF
1040
2040
2040
4040
0040
ENDCHAR
STARTCHAR 3460
ENCODING 13408
SWIDTH 960 0
DWIDTH 16 0
BBX 16 16 0 -2
BITMAP
1042
1042
1FFE
0508
1FFF
1790
1210
1FDF
14A4
17A4
14D4
1788
1488
2794
2CA2
40C1
ENDCHAR
STARTCHAR 3461
ENCODING 13409
SWIDTH 960 0
DWIDTH 16 0
BBX 16 16 0 -2
BITMAP
0000
00FC
7E00
1000
1000
1000
13FF
7C48
1048
1048
1048
1648
1888
6089
0107
0200
ENDCHAR
STARTCHAR 3462
ENCODING 13410
SWIDTH 960 0
DWIDTH 16 0
BBX 16 16 0 -2
BITMAP
0040
0040
0FFE
4800
29F8
2908
09F8
0800
1F9E
2C92
4FDE
1040
1444
2444
47FC
0000
ENDCHAR
STARTCHAR 3463
ENCODING 13411
SWIDTH 960 0
DWIDTH 16 0
BBX 16 16 0 -2
BITMAP
0000
3CFC
2484
2484
24FC
3C84
2484
24FE
3C92
2494
2494
2488
3C88
00B4
00C2
0381
ENDCHAR
STARTCHAR 3464
ENCODING 13412
SWIDTH 960 0
DWIDTH 16 0
BBX 16 16 0 -2
BITMAP
0080
1084
1084
1084
1FFC
0000
0000
7FFF
0200
0400
0FF8
1408
6408
0408
07F8
0000
ENDCHAR
STARTCHAR 3465
ENCODING 13413
SWIDTH 960 0
DWIDTH 16 0
BBX 16 16 0 -2
BITMAP
0000
7FBE
0880
4C80
2A80
1980
6EFF
1994
0814
3F14
2114
3F14
2114
2125
3F25
0043
ENDCHAR
STARTCHAR 3466
ENCODING 13414
SWIDTH 960 0
DWIDTH 16 0
BBX 16 16 0 -2
BITMAP
0000
1FFE
1248
12FE
1590
1EFC
1490
17FF
1208
13F8
1208
13F8
2208
23F8
4318
1C06
ENDCHAR
STARTCHAR 3467
ENCODING 13415
SWIDTH 960 0
DWIDTH 16 0
BBX 16 16 0 -2
BITMAP
0000
1FFF
1120
1124
1148
127E
12C8
1748
1A7E
1248
1248
127E
2248
2248
427F
0200
ENDCHAR
STARTCHAR 3468
ENCODING 13416
SWIDTH 960 0
DWIDTH 16 0
BBX 16 16 0 -2
BITMAP
0000
01FF
3E10
0020
00FE
0082
7F82
14FE
1482
14FE
1482
1582
26FE
2424
40C2
0301
ENDCHAR
STARTCHAR 3469
ENCODING 13417
SWIDTH 960 0
DWIDTH 16 0
BBX 16 16 0 -2
BITMAP
0800
08FF
7F10
2220
147E
3F42
2242
247E
2942
227E
2442
28C2
217E
4224
0C42
3181
ENDCHAR
STARTCHAR 346a
ENCODING 13418
SWIDTH 960 0
DWIDTH 16 0
BBX 16 16 0 -2
BITMAP
0000
3FFF
2208
2410
2FBE
28A2
2FA2
28BE
28A2
2FBE
2222
2B22
2ABE
4A54
5222
06C1
ENDCHAR
STARTCHAR 346b
ENCODING 13419
SWIDTH 960 0
DWIDTH 16 0
BBX 16 16 0 -2
BITMAP
0080
0080
0140
0220
0410
188C
6083
0080
08FC
0880
0880
0880
0880
0880
7FFF
0000
ENDCHAR
STARTCHAR 346c
ENCODING 13420
SWIDTH 960 0
DWIDTH 16 0
BBX 16 16 0 -2
BITMAP
0420
0420
0420
0FFF
0820
1820
1820
2BFC
4884
0848
0848
0830
0830
0848
0884
0B03
ENDCHAR
STARTCHAR 346d
ENCODING 13421
SWIDTH 960 0
DWIDTH 16 0
BBX 16 16 0 -2
BITMAP
0400
07F0
0820
1040
3FFE
5000
1000
13F8
1208
1208
1208
1230
2202
2202
4102
00FE
ENDCHAR
STARTCHAR 346e
ENCODING 13422
SWIDTH 960 0
DWIDTH 16 0
BBX 16 16 0 -2
BITMAP
0100
7FFE
0100
3FFC
0000
1FF8
1008
1FF8
0810
0420
FFFF
0000
1FF8
1008
1FF8
0000
ENDCHAR
STARTCHAR 346f
ENCODING 13423
SWIDTH 960 0
DWIDTH 16 0
BBX 16 16 0 -2
BITMAP
0000
1F7C
1144
1144
1F7C
0080
0080
7FFF
0140
0630
180C
7F7F
1144
1144
1F7C
0000
ENDCHAR
STARTCHAR 3470
ENCODING 13424
SWIDTH 960 0
DWIDTH 16 0
BBX 16 16 0 -2
BITMAP
0410
0410
3FFE
0410
07F0
0410
07F0
0410
7FFF
0490
0888
17F4
6083
0080
3FFE
0000
ENDCHAR
STARTCHAR 3471
ENCODING 13425
SWIDTH 960 0
DWIDTH 16 0
BBX 16 16 0 -2
BITMAP
0080
0080
3FFE
0140
0220
0C18
0000
7FFF
0008
0FC8
0848
0848
0FC8
0008
0008
0018
ENDCHAR
STARTCHAR 3472
ENCODING 13426
SWIDTH 960 0
DWIDTH 16 0
BBX 16 16 0 -2
BITMAP
0810
09FF
0810
08FE
7E00
12FE
1282
12FE
2244
2428
7DFF
0600
0AFE
1082
60FE
0000
ENDCHAR
STARTCHAR 3473
ENCODING 13427
SWIDTH 960 0
DWIDTH 16 0
BBX 16 16 0 -2
BITMAP
0100
0100
7FFE
4102
5FFA
0180
0240
0C30
7FFE
0010
1F90
1090
1090
1F90
0010
0030
ENDCHAR
STARTCHAR 3474
ENCODING 13428
SWIDTH 960 0
DWIDTH 16 0
BBX 16 16 0 -2
BITMAP
1020
1020
13FF
5420
5420
5420
57FC
5484
5488
5448
5450
7C30
0030
0048
0184
0603
ENDCHAR
STARTCHAR 3475
ENCODING 13429
SWIDTH 960 0
DWIDTH 16 0
BBX 16 16 0 -2
BITMAP
0604
0198
0060
03B0
3C88
0100
7FFF
0240
0440
0FFE
1442
2442
4442
0442
044C
0040
ENDCHAR
STARTCHAR 3476
ENCODING 13430
SWIDTH 960 0
DWIDTH 16 0
BBX 16 16 0 -2
BITMAP
0890
0890
32E4
0A94
0488
0A94
0E9C
31F2
0088
7FFF
0440
0644
0928
0832
10CA
2306
ENDCHAR
STARTCHAR 3477
ENCODING 13431
SWIDTH 960 0
DWIDTH 16 0
BBX 16 16 0 -2
BITMAP
0000
1FF0
0010
0010
1FF0
1000
1008
1008
0FF8
0080
1244
1222
1221
2209
4108
00F8
ENDCHAR
STARTCHAR 3478
ENCODING 13432
SWIDTH 960 0
DWIDTH 16 0
BBX 16 16 0 -2
BITMAP
1000
13FE
1222
1222
7DFE
1020
11FC
1124
1DFC
7124
1124
11FC
1020
17FF
1020
3020
ENDCHAR
STARTCHAR 3479
ENCODING 13433
SWIDTH 960 0
DWIDTH 16 0
BBX 16 16 0 -2
BITMAP
0800
0878
0848
7F48
0848
0848
1C48
1A48
1A48
2848
2888
4888
0908
0909
0A09
0C07
ENDCHAR
STARTCHAR 347a
ENCODING 13434
SWIDTH 960 0
DWIDTH 16 0
BBX 16 16 0 -2
BITMAP
0840
0840
087F
7E80
1144
13FF
1044
1E7C
1244
127C
1244
13FF
2208
2224
4242
0D82
ENDCHAR
STARTCHAR 347b
ENCODING 13435
SWIDTH 960 0
DWIDTH 16 0
BBX 16 16 0 -2
BITMAP
0000
3EFE
2248
2248
3E48
2248
2248
3FFF
2018
2418
2218
2228
2D28
3149
6089
0307
ENDCHAR
STARTCHAR 347c
ENCODING 13436
SWIDTH 960 0
DWIDTH 16 0
BBX 16 16 0 -2
BITMAP
1100
113E
7FE2
1122
1122
1F3E
1122
1122
1F22
113E
1122
7FE2
1222
1142
2142
4086
ENDCHAR
STARTCHAR 347d
ENCODING 13437
SWIDTH 960 0
DWIDTH 16 0
BBX 16 16 0 -2
BITMAP
0844
0844
09FF
7F44
0844
087C
1C44
1A44
197C
2844
2844
4BFF
0808
0844
0882
0B02
ENDCHAR
STARTCHAR 347e
ENCODING 13438
SWIDTH 960 0
DWIDTH 16 0
BBX 16 16 0 -2
BITMAP
0080
7FFF
0130
020C
1FFA
0888
7FFF
0888
0FF8
0080
7FFF
02A0
0490
188C
6083
0080
ENDCHAR
STARTCHAR 3521
ENCODING 13601
SWIDTH 960 0
DWIDTH 16 0
BBX 16 16 0 -2
BITMAP
08A4
08A4
0B78
7CA4
08AA
097D
1BE4
1C22
1BFF
2894
2894
48C8
0929
0915
0A23
0C41
ENDCHAR
STARTCHAR 3522
ENCODING 13602
SWIDTH 960 0
DWIDTH 16 0
BBX 16 16 0 -2
BITMAP
0800
09FC
0804
28FC
2804
29FC
2800
2BFF
2A21
4A21
09FC
0924
0924
1124
112C
2020
ENDCHAR
STARTCHAR 3523
ENCODING 13603
SWIDTH 960 0
DWIDTH 16 0
BBX 16 16 0 -2
BITMAP
0400
043C
3FA4
1124
0A25
7FA5
0843
1480
257C
0B24
1324
2694
0A48
1214
2262
0D81
ENDCHAR
STARTCHAR 3524
ENCODING 13604
SWIDTH 960 0
DWIDTH 16 0
BBX 16 16 0 -2
BITMAP
0800
0800
0FFE
1000
17F8
2000
4000
1FF8
0048
0C48
0288
0188
0245
0425
1803
6001
ENDCHAR
STARTCHAR 3525
ENCODING 13605
SWIDTH 960 0
DWIDTH 16 0
BBX 16 16 0 -2
BITMAP
1100
0900
09FE
0200
02F8
4400
2000
27F8
0008
0808
1008
1008
2005
2005
4003
4001
ENDCHAR
STARTCHAR 3526
ENCODING 13606
SWIDTH 960 0
DWIDTH 16 0
BBX 16 16 0 -2
BITMAP
0890
0A94
32E4
0C98
0488
0A94
3EBE
0152
7FFF
1F48
1548
1F30
1512
152A
1F46
0182
ENDCHAR
STARTCHAR 3527
ENCODING 13607
SWIDTH 960 0
DWIDTH 16 0
BBX 16 16 0 -2
BITMAP
0804
0818
08E0
7E80
0280
04FF
0488
0888
1C88
2A88
4988
0888
0908
0908
0A08
0808
ENDCHAR
STARTCHAR 3528
ENCODING 13608
SWIDTH 960 0
DWIDTH 16 0
BBX 16 16 0 -2
BITMAP
0008
0030
1FC0
0080
7FFF
01C0
02A0
0C98
7087
07F0
0040
0080
7FFF
0080
0080
0180
ENDCHAR
STARTCHAR 3529
ENCODING 13609
SWIDTH 960 0
DWIDTH 16 0
BBX 16 16 0 -2
BITMAP
0204
0C64
7818
09E4
0820
7FFF
0850
1C50
1AFE
18D2
2952
2A52
4852
085C
0850
0810
ENDCHAR
STARTCHAR 352a
ENCODING 13610
SWIDTH 960 0
DWIDTH 16 0
BBX 16 16 0 -2
BITMAP
0800
087E
0A02
7202
1402
0802
0C7E
1240
7D40
0940
2840
2A40
2941
2921
481F
0800
ENDCHAR
STARTCHAR 352b
ENCODING 13611
SWIDTH 960 0
DWIDTH 16 0
BBX 16 16 0 -2
BITMAP
0910
0D50
1550
17DF
2124
4924
0AD4
1694
1154
37D4
5128
1588
154C
1514
1922
1141
ENDCHAR
STARTCHAR 352c
ENCODING 13612
SWIDTH 960 0
DWIDTH 16 0
BBX 16 16 0 -2
BITMAP
0800
08FC
0884
3F84
08FC
0884
0884
7FFC
0884
0C84
14FC
1250
1250
2091
2109
4607
ENDCHAR
STARTCHAR 352d
ENCODING 13613
SWIDTH 960 0
DWIDTH 16 0
BBX 16 16 0 -2
BITMAP
0000
3E7E
0002
7F82
0002
3F02
007E
3F40
0040
0040
3F40
2140
2141
2121
3F1F
0000
ENDCHAR
STARTCHAR 352e
ENCODING 13614
SWIDTH 960 0
DWIDTH 16 0
BBX 16 16 0 -2
BITMAP
0080
0FF0
0890
0FF0
0080
7FFE
0000
0FF0
0810
0FF0
0810
0FF0
0810
0FF0
0618
3804
ENDCHAR
STARTCHAR 352f
ENCODING 13615
SWIDTH 960 0
DWIDTH 16 0
BBX 16 16 0 -2
BITMAP
0400
043E
3F82
0402
0402
0402
7FFE
0420
1420
17A0
1421
1C11
140F
2600
21C0
403F
ENDCHAR
STARTCHAR 3530
ENCODING 13616
SWIDTH 960 0
DWIDTH 16 0
BBX 16 16 0 -2
BITMAP
0420
0420
7FA0
0420
3FFC
2524
2524
3F24
2524
2524
3F24
0424
7FC4
0445
0485
0503
ENDCHAR
STARTCHAR 3531
ENCODING 13617
SWIDTH 960 0
DWIDTH 16 0
BBX 16 16 0 -2
BITMAP
0800
08FF
4A91
2A91
2AFE
2C10
087E
7F52
147E
1452
1452
157E
2610
25FF
4010
0010
ENDCHAR
STARTCHAR 3532
ENCODING 13618
SWIDTH 960 0
DWIDTH 16 0
BBX 16 16 0 -2
BITMAP
0400
0478
0A48
0948
14C8
3F48
5148
1F48
1148
1148
1F48
1448
1249
1349
1C87
3100
ENDCHAR
STARTCHAR 3533
ENCODING 13619
SWIDTH 960 0
DWIDTH 16 0
BBX 16 16 0 -2
BITMAP
0010
3F10
24FE
2410
3F28
2444
2480
3FFF
2402
243A
3FAA
14AA
2ABA
2A82
2082
4306
ENDCHAR
STARTCHAR 3534
ENCODING 13620
SWIDTH 960 0
DWIDTH 16 0
BBX 16 16 0 -2
BITMAP
0100
0200
1FF8
1108
1108
1FF8
1108
1108
1FF8
0290
0290
04A8
04F8
088A
1042
603E
ENDCHAR
STARTCHAR 3535
ENCODING 13621
SWIDTH 960 0
DWIDTH 16 0
BBX 16 16 0 -2
BITMAP
0200
07F0
0820
1FF8
6888
0FF8
0888
0FF8
0080
1FFC
1084
1FFC
1084
1FFD
0081
007F
ENDCHAR
STARTCHAR 3536
ENCODING 13622
SWIDTH 960 0
DWIDTH 16 0
BBX 16 16 0 -2
BITMAP
0A20
0920
0920
0BF8
1048
1048
10FC
3084
5104
11FE
1212
154A
1AAA
12A2
1402
100C
ENDCHAR
STARTCHAR 3537
ENCODING 13623
SWIDTH 960 0
DWIDTH 16 0
BBX 16 16 0 -2
BITMAP
0908
0890
1BFE
1020
11F8
3020
37FF
5058
1394
1110
17FF
1112
11CC
170A
1116
1362
ENDCHAR
STARTCHAR 3538
ENCODING 13624
SWIDTH 960 0
DWIDTH 16 0
BBX 16 16 0 -2
BITMAP
0810
0810
09FF
0810
7F10
1210
12FC
1244
2244
2428
7C28
0610
0928
1044
6082
0301
ENDCHAR
STARTCHAR 3539
ENCODING 13625
SWIDTH 960 0
DWIDTH 16 0
BBX 16 16 0 -2
BITMAP
0100
0100
7FFC
4004
4004
0FE0
0820
0820
0FE0
0820
0820
0FE0
0820
0820
7FFE
0000
ENDCHAR
STARTCHAR 353a
ENCODING 13626
SWIDTH 960 0
DWIDTH 16 0
BBX 16 16 0 -2
BITMAP
0818
0F14
0814
3FD3
289C
2E72
3892
2792
2A14
2A94
2B08
3A08
2A95
2B25
4C43
3001
ENDCHAR
STARTCHAR 353b
ENCODING 13627
SWIDTH 960 0
DWIDTH 16 0
BBX 16 16 0 -2
BITMAP
1020
1020
1020
13FF
7C20
1020
1020
13FC
1084
1C88
7048
1030
1030
1048
1184
3603
ENDCHAR
STARTCHAR 353c
ENCODING 13628
SWIDTH 960 0
DWIDTH 16 0
BBX 16 16 0 -2
BITMAP
1200
127E
1382
1214
7A48
11FF
1209
13CA
1528
792E
17E8
1128
11B8
1268
1444
3883
ENDCHAR
STARTCHAR 353d
ENCODING 13629
SWIDTH 960 0
DWIDTH 16 0
BBX 16 16 0 -2
BITMAP
1120
1120
7FA0
113F
1122
1F54
1150
1190
1F10
1110
1118
7FA8
1224
1144
2082
4301
ENDCHAR
STARTCHAR 353e
ENCODING 13630
SWIDTH 960 0
DWIDTH 16 0
BBX 16 16 0 -2
BITMAP
0884
0848
29FE
2820
3EFC
2820
2BFF
4824
09CA
0C48
1BFF
684A
0864
0BCD
0873
08C1
ENDCHAR
STARTCHAR 353f
ENCODING 13631
SWIDTH 960 0
DWIDTH 16 0
BBX 16 16 0 -2
BITMAP
2000
227E
3C24
2118
2108
1FFF
1012
1F14
2450
445E
3FD0
0450
0A70
0990
108C
2103
ENDCHAR
STARTCHAR 3540
ENCODING 13632
SWIDTH 960 0
DWIDTH 16 0
BBX 16 16 0 -2
BITMAP
0804
0818
08F0
7E90
0290
0490
0490
08FF
1C90
2A88
4988
0888
0884
08B5
08C3
0B01
ENDCHAR
STARTCHAR 3541
ENCODING 13633
SWIDTH 960 0
DWIDTH 16 0
BBX 16 16 0 -2
BITMAP
0410
0220
3FFE
0080
1FFC
0080
7FFF
0328
3C24
0420
7FFF
0412
0794
7C09
0435
0CC3
ENDCHAR
STARTCHAR 3542
ENCODING 13634
SWIDTH 960 0
DWIDTH 16 0
BBX 16 16 0 -2
BITMAP
0844
0828
08FE
0810
3EFE
2A10
2BFF
2A2C
3FCA
0848
0DFF
0A4A
0A6A
0FC5
794B
00D1
ENDCHAR
STARTCHAR 3543
ENCODING 13635
SWIDTH 960 0
DWIDTH 16 0
BBX 16 16 0 -2
BITMAP
0020
3C20
01FE
7F02
0102
3CFC
0084
0084
3CFC
0084
3C84
24FC
2484
2484
3FFF
0000
ENDCHAR
STARTCHAR 3544
ENCODING 13636
SWIDTH 960 0
DWIDTH 16 0
BBX 16 16 0 -2
BITMAP
0044
3C28
00FE
7E10
00FC
3C10
03FF
002C
3DCA
0048
3DFF
244A
246A
25C5
3C4B
00D1
ENDCHAR
STARTCHAR 3545
ENCODING 13637
SWIDTH 960 0
DWIDTH 16 0
BBX 16 16 0 -2
BITMAP
1100
1100
1100
11FE
7E02
124A
1552
1142
1BFE
7042
10E2
10D2
114A
1242
1044
3018
ENDCHAR
STARTCHAR 3546
ENCODING 13638
SWIDTH 960 0
DWIDTH 16 0
BBX 16 16 0 -2
BITMAP
0420
0420
7FFF
0420
0800
0FFE
1902
1522
2542
7FFA
0382
0542
0922
3112
0104
0018
ENDCHAR
STARTCHAR 3547
ENCODING 13639
SWIDTH 960 0
DWIDTH 16 0
BBX 16 16 0 -2
BITMAP
1440
1440
7EFE
1482
152A
1EAA
08B2
3FFE
2A22
2A72
3E6A
08A6
7FA2
0922
0824
0818
ENDCHAR
STARTCHAR 3548
ENCODING 13640
SWIDTH 960 0
DWIDTH 16 0
BBX 16 16 0 -2
BITMAP
0080
0080
0080
7FFF
0080
0080
0080
1FFC
0000
0000
0FF8
0808
0808
0808
0FF8
0000
ENDCHAR
STARTCHAR 3549
ENCODING 13641
SWIDTH 960 0
DWIDTH 16 0
BBX 16 16 0 -2
BITMAP
0080
0080
7880
49FF
4900
4900
4AFC
4C08
4810
4820
4840
7880
0102
0102
0102
00FE
ENDCHAR
STARTCHAR 354a
ENCODING 13642
SWIDTH 960 0
DWIDTH 16 0
BBX 16 16 0 -2
BITMAP
0100
013E
7FCA
490A
490A
4FCA
4912
49D2
4E2C
4840
7FFF
4840
00A0
0110
060C
1803
ENDCHAR
STARTCHAR 354b
ENCODING 13643
SWIDTH 960 0
DWIDTH 16 0
BBX 16 16 0 -2
BITMAP
0820
0820
0820
7FFF
0820
0820
1C20
1BFE
1A00
2800
28FC
4884
0884
0884
08FC
0800
ENDCHAR
STARTCHAR 354c
ENCODING 13644
SWIDTH 960 0
DWIDTH 16 0
BBX 16 16 0 -2
BITMAP
0800
08FC
0848
7E30
09FE
0854
1890
1D30
1BFE
2952
2956
499E
097A
094A
097A
0906
ENDCHAR
STARTCHAR 354d
ENCODING 13645
SWIDTH 960 0
DWIDTH 16 0
BBX 16 16 0 -2
BITMAP
0020
3E20
0020
7FFF
0020
3E20
0020
01FE
3E00
0000
3EFC
2284
2284
2284
3EFC
0000
ENDCHAR
STARTCHAR 354e
ENCODING 13646
SWIDTH 960 0
DWIDTH 16 0
BBX 16 16 0 -2
BITMAP
0020
7F20
0820
0820
083E
0820
1E20
1220
3220
32FC
5284
1284
1E84
0084
00FC
0000
ENDCHAR
STARTCHAR 354f
ENCODING 13647
SWIDTH 960 0
DWIDTH 16 0
BBX 16 16 0 -2
BITMAP
0840
0840
0840
7E7E
0890
0890
1D10
1A10
1BFF
2810
2810
4810
0810
0810
0810
0810
ENDCHAR
STARTCHAR 3550
ENCODING 13648
SWIDTH 960 0
DWIDTH 16 0
BBX 16 16 0 -2
BITMAP
0008
0070
1F80
0080
7FFF
02A0
0C98
7147
0220
0C98
748F
0290
03E0
0C98
3086
0180
ENDCHAR
STARTCHAR 3551
ENCODING 13649
SWIDTH 960 0
DWIDTH 16 0
BBX 16 16 0 -2
BITMAP
0400
043E
3FA2
0422
0422
0422
0422
7FE2
0822
0A22
0922
1122
13AC
7CA0
00A0
0020
ENDCHAR
STARTCHAR 3552
ENCODING 13650
SWIDTH 960 0
DWIDTH 16 0
BBX 16 16 0 -2
BITMAP
0100
0100
7FFE
4202
43E2
0420
0A40
3180
0240
0420
1FF8
6816
0810
0810
0FF0
0000
ENDCHAR
STARTCHAR 3553
ENCODING 13651
SWIDTH 960 0
DWIDTH 16 0
BBX 16 16 0 -2
BITMAP
0080
3C9E
2492
27F2
2492
3C92
2492
27F2
2492
3C92
24D2
2552
257C
27B0
2430
4C10
ENDCHAR
STARTCHAR 3554
ENCODING 13652
SWIDTH 960 0
DWIDTH 16 0
BBX 16 16 0 -2
BITMAP
0040
007E
0040
1FFE
1104
11F8
1F02
11FE
1000
17FC
1400
17FC
2400
2400
47FE
0400
ENDCHAR
STARTCHAR 3555
ENCODING 13653
SWIDTH 960 0
DWIDTH 16 0
BBX 16 16 0 -2
BITMAP
0108
2088
1090
17FF
0020
0124
0124
7924
0924
09FC
0924
0820
0C40
1480
2300
40FF
ENDCHAR
STARTCHAR 3556
ENCODING 13654
SWIDTH 960 0
DWIDTH 16 0
BBX 16 16 0 -2
BITMAP
0010
00E0
0F00
0800
0800
0800
0FFC
0820
0820
0820
0820
0820
0820
0820
7FFE
0000
ENDCHAR
STARTCHAR 3557
ENCODING 13655
SWIDTH 960 0
DWIDTH 16 0
BBX 16 16 0 -2
BITMAP
0100
0100
01F0
0210
0210
0420
0820
1040
0040
00C0
00A0
0120
0210
0408
1804
6003
ENDCHAR
STARTCHAR 3558
ENCODING 13656
SWIDTH 960 0
DWIDTH 16 0
BBX 16 16 0 -2
BITMAP
0480
0480
0480
0880
08F0
0F90
1090
3090
5090
1090
1090
1112
1112
1212
140E
1800
ENDCHAR
STARTCHAR 3559
ENCODING 13657
SWIDTH 960 0
DWIDTH 16 0
BBX 16 16 0 -2
BITMAP
0840
0840
0840
0840
17FE
10E0
10E0
3150
5150
1248
1244
1442
1841
1040
1040
1040
ENDCHAR
STARTCHAR 355a
ENCODING 13658
SWIDTH 960 0
DWIDTH 16 0
BBX 16 16 0 -2
BITMAP
0000
3FE0
0420
0440
0440
06F0
0610
0510
0510
08A0
0860
0840
10A0
1110
2208
4C06
ENDCHAR
STARTCHAR 355b
ENCODING 13659
SWIDTH 960 0
DWIDTH 16 0
BBX 16 16 0 -2
BITMAP
0000
01F8
7C88
4490
4490
44BC
44C4
44C4
44A4
4528
7D28
0110
0228
0244
0482
0901
ENDCHAR
STARTCHAR 355c
ENCODING 13660
SWIDTH 960 0
DWIDTH 16 0
BBX 16 16 0 -2
BITMAP
0100
0100
7FFE
4002
4FF2
0810
0810
0FF0
0100
0200
1FF8
1008
1008
1008
1FF8
0000
ENDCHAR
STARTCHAR 355d
ENCODING 13661
SWIDTH 960 0
DWIDTH 16 0
BBX 16 16 0 -2
BITMAP
0000
3FF0
0010
0010
0010
1FF0
1000
1000
1000
1FF8
0008
0008
0008
0008
0010
00E0
ENDCHAR
STARTCHAR 355e
ENCODING 13662
SWIDTH 960 0
DWIDTH 16 0
BBX 16 16 0 -2
BITMAP
0100
03E0
0440
0880
3FF8
0008
0008
0FF8
0008
1FF8
0080
1244
1242
2249
4209
01F8
ENDCHAR
STARTCHAR 355f
ENCODING 13663
SWIDTH 960 0
DWIDTH 16 0
BBX 16 16 0 -2
BITMAP
0520
04A0
0420
7FBF
0424
44A4
2544
2544
0EA4
0E28
1518
1510
24A8
4444
0482
0D01
ENDCHAR
STARTCHAR 3560
ENCODING 13664
SWIDTH 960 0
DWIDTH 16 0
BBX 16 16 0 -2
BITMAP
0800
0BFF
0820
7E20
0820
0840
1C7C
1A84
1A84
2804
2804
4804
0804
0804
0808
0830
ENDCHAR
STARTCHAR 3561
ENCODING 13665
SWIDTH 960 0
DWIDTH 16 0
BBX 16 16 0 -2
BITMAP
0090
0088
0088
7FFF
0080
1084
08C4
04C4
04A8
00A8
0190
0288
0484
1882
6081
0180
ENDCHAR
STARTCHAR 3562
ENCODING 13666
SWIDTH 960 0
DWIDTH 16 0
BBX 16 16 0 -2
BITMAP
1000
0BF8
0888
0088
4090
209C
2084
00C4
0948
0928
1130
1110
2228
2244
4482
4B01
ENDCHAR
STARTCHAR 3563
ENCODING 13667
SWIDTH 960 0
DWIDTH 16 0
BBX 16 16 0 -2
BITMAP
1020
1020
0820
0BFE
4008
4108
2108
2088
0088
0888
1090
1090
2090
2020
47FF
4000
ENDCHAR
STARTCHAR 3564
ENCODING 13668
SWIDTH 960 0
DWIDTH 16 0
BBX 16 16 0 -2
BITMAP
0200
03F0
0420
1840
00C0
0320
0C18
7087
0488
0488
0890
1140
0220
0410
180C
6003
ENDCHAR
STARTCHAR 3565
ENCODING 13669
SWIDTH 960 0
DWIDTH 16 0
BBX 16 16 0 -2
BITMAP
0024
0022
7C22
13FF
1020
1222
1132
7CB4
10B4
1028
1268
14A4
1922
6621
0020
0060
ENDCHAR
STARTCHAR 3566
ENCODING 13670
SWIDTH 960 0
DWIDTH 16 0
BBX 16 16 0 -2
BITMAP
0100
0100
7FFE
4442
4442
0444
083C
1100
2100
1FE0
0120
0220
0222
0422
0822
301E
ENDCHAR
STARTCHAR 3567
ENCODING 13671
SWIDTH 960 0
DWIDTH 16 0
BBX 16 16 0 -2
BITMAP
0100
0100
7FFE
4442
187E
6400
1F7C
1104
1F7C
1140
1F7C
1104
7F04
0504
1904
6318
ENDCHAR
STARTCHAR 3568
ENCODING 13672
SWIDTH 960 0
DWIDTH 16 0
BBX 16 16 0 -2
BITMAP
0820
0820
1FBF
1450
2288
4000
3FF0
0220
0278
0308
0490
0460
0860
1190
260C
5803
ENDCHAR
STARTCHAR 3569
ENCODING 13673
SWIDTH 960 0
DWIDTH 16 0
BBX 16 16 0 -2
BITMAP
0800
09FC
0A44
7248
1448
085E
0C62
1262
7D54
0854
2C98
2A88
2A94
2924
4A42
0881
ENDCHAR
STARTCHAR 356a
ENCODING 13674
SWIDTH 960 0
DWIDTH 16 0
BBX 16 16 0 -2
BITMAP
0808
0848
0A48
7248
1448
0848
0C48
1248
7D48
084F
2C78
2BC8
2A08
2A08
4808
0808
ENDCHAR
STARTCHAR 356b
ENCODING 13675
SWIDTH 960 0
DWIDTH 16 0
BBX 16 16 0 -2
BITMAP
0810
0810
0A28
7228
1444
0882
0D7D
1200
7D00
097C
2844
2A44
2944
2944
487C
0800
ENDCHAR
STARTCHAR 356c
ENCODING 13676
SWIDTH 960 0
DWIDTH 16 0
BBX 16 16 0 -2
BITMAP
2000
23FC
2204
2204
2204
2204
2204
23FC
2204
2204
2204
2204
2204
2204
23FC
2000
ENDCHAR
STARTCHAR 356d
ENCODING 13677
SWIDTH 960 0
DWIDTH 16 0
BBX 16 16 0 -2
BITMAP
0080
0480
0480
0480
0FFC
0880
1080
2080
0080
7FFF
0080
0080
0080
0080
0080
0080
ENDCHAR
STARTCHAR 356e
ENCODING 13678
SWIDTH 960 0
DWIDTH 16 0
BBX 16 16 0 -2
BITMAP
0080
0080
0080
1FFC
0080
0080
0080
0080
7FFF
0100
0120
0210
0208
04F8
3F04
0004
ENDCHAR
STARTCHAR 356f
ENCODING 13679
SWIDTH 960 0
DWIDTH 16 0
BBX 16 16 0 -2
BITMAP
0000
1FFC
1004
1004
1FFC
1040
1040
1FFF
1040
1040
17FC
1404
2404
2404
47FC
0000
ENDCHAR
STARTCHAR 3570
ENCODING 13680
SWIDTH 960 0
DWIDTH 16 0
BBX 16 16 0 -2
BITMAP
0000
3FFC
2000
2000
2000
3FF0
2010
2010
2010
3FF0
2000
2000
2000
2000
3FFC
0000
ENDCHAR
STARTCHAR 3571
ENCODING 13681
SWIDTH 960 0
DWIDTH 16 0
BBX 16 16 0 -2
BITMAP
0800
08FE
0880
0880
7E80
08FC
0884
0884
0884
0EFC
7880
0880
0880
0880
08FF
1800
ENDCHAR
STARTCHAR 3572
ENCODING 13682
SWIDTH 960 0
DWIDTH 16 0
BBX 16 16 0 -2
BITMAP
1100
111C
1114
1114
7FD4
1254
1254
1554
1494
18A4
71A5
1145
1243
1420
1818
3007
ENDCHAR
STARTCHAR 3573
ENCODING 13683
SWIDTH 960 0
DWIDTH 16 0
BBX 16 16 0 -2
BITMAP
0904
0484
0488
7FFF
0220
0430
18CC
6F83
0080
1FFC
0080
0080
3FFE
0080
0080
0180
ENDCHAR
STARTCHAR 3574
ENCODING 13684
SWIDTH 960 0
DWIDTH 16 0
BBX 16 16 0 -2
BITMAP
0000
19FE
0500
31FC
0904
0104
05FC
1900
61FE
0080
7FFF
01C0
02A0
0C98
7087
0080
ENDCHAR
STARTCHAR 3575
ENCODING 13685
SWIDTH 960 0
DWIDTH 16 0
BBX 16 16 0 -2
BITMAP
0080
00FE
0080
1FFF
1102
1134
1FC0
1102
10FE
1120
1924
1524
2528
2120
5FFF
0000
ENDCHAR
STARTCHAR 3576
ENCODING 13686
SWIDTH 960 0
DWIDTH 16 0
BBX 16 16 0 -2
BITMAP
0040
3E40
0040
7F7E
0090
3E90
0110
3E10
03FF
0010
3E10
2210
2210
2210
3E10
0010
ENDCHAR
STARTCHAR 3577
ENCODING 13687
SWIDTH 960 0
DWIDTH 16 0
BBX 16 16 0 -2
BITMAP
0000
3EFE
2280
2280
2280
22FC
3E84
0884
2884
2EFC
2880
2880
2880
2F80
38FF
6000
ENDCHAR
STARTCHAR 3578
ENCODING 13688
SWIDTH 960 0
DWIDTH 16 0
BBX 16 16 0 -2
BITMAP
0800
08FE
1482
1282
20FE
7E88
0888
08FF
7F88
0888
4ABE
2CA2
28A2
0F22
193E
6200
ENDCHAR
STARTCHAR 3579
ENCODING 13689
SWIDTH 960 0
DWIDTH 16 0
BBX 16 16 0 -2
BITMAP
1040
0840
08F8
0110
0620
41FC
2124
2124
09FC
0924
1124
11FC
2200
2292
4449
4849
ENDCHAR
STARTCHAR 357a
ENCODING 13690
SWIDTH 960 0
DWIDTH 16 0
BBX 16 16 0 -2
BITMAP
1200
13DE
2D12
4FF2
1112
35D2
5512
15DC
1610
17F8
0000
3FFF
02B0
0C8C
3082
0180
ENDCHAR
STARTCHAR 357b
ENCODING 13691
SWIDTH 960 0
DWIDTH 16 0
BBX 16 16 0 -2
BITMAP
0200
0200
03F0
0420
1840
6FF8
0888
0888
0FF8
0888
0888
0FF8
1008
1444
2222
4222
ENDCHAR
STARTCHAR 357c
ENCODING 13692
SWIDTH 960 0
DWIDTH 16 0
BBX 16 16 0 -2
BITMAP
0080
0080
7FFF
0000
0FF8
0808
0FF8
0000
3FFC
0008
0030
00C0
0080
0080
0080
0180
ENDCHAR
STARTCHAR 357d
ENCODING 13693
SWIDTH 960 0
DWIDTH 16 0
BBX 16 16 0 -2
BITMAP
0080
0080
7FFF
0000
0FF8
0808
0FF8
0000
1FF8
0020
0040
7FFE
0080
0080
0080
0180
ENDCHAR
STARTCHAR 357e
ENCODING 13694
SWIDTH 960 0
DWIDTH 16 0
BBX 16 16 0 -2
BITMAP
0080
0080
0080
7FFF
0000
0FF8
0808
0808
0808
0FF8
0080
04B0
0888
1084
6082
0180
ENDCHAR
STARTCHAR 3621
ENCODING 13857
SWIDTH 960 0
DWIDTH 16 0
BBX 16 16 0 -2
BITMAP
0488
0488
0488
0888
0BFE
1888
1888
2888
4888
0FFF
0800
0888
0884
0904
0A02
0C02
ENDCHAR
STARTCHAR 3622
ENCODING 13858
SWIDTH 960 0
DWIDTH 16 0
BBX 16 16 0 -2
BITMAP
0440
0440
07FE
0840
0A48
1148
1148
3150
5040
1FFF
1060
10A0
1090
1108
1204
1C02
ENDCHAR
STARTCHAR 3623
ENCODING 13859
SWIDTH 960 0
DWIDTH 16 0
BBX 16 16 0 -2
BITMAP
040C
05F0
0440
0FFF
0888
11FC
168B
30F8
5000
13FE
1202
12FA
128A
12FA
1202
1206
ENDCHAR
STARTCHAR 3624
ENCODING 13860
SWIDTH 960 0
DWIDTH 16 0
BBX 16 16 0 -2
BITMAP
0020
1028
1648
1148
1088
1148
1228
1C28
1008
1FF8
0240
0240
0440
0842
1022
601E
ENDCHAR
STARTCHAR 3625
ENCODING 13861
SWIDTH 960 0
DWIDTH 16 0
BBX 16 16 0 -2
BITMAP
0410
0410
3FFE
1144
0A28
7FFF
0000
1F7C
1144
1144
1F7C
0A28
0A28
12A9
2349
4287
ENDCHAR
STARTCHAR 3626
ENCODING 13862
SWIDTH 960 0
DWIDTH 16 0
BBX 16 16 0 -2
BITMAP
0420
0420
0420
0420
3FFC
0420
0420
0420
0420
7FFF
0000
0420
0410
0808
1004
2004
ENDCHAR
STARTCHAR 3627
ENCODING 13863
SWIDTH 960 0
DWIDTH 16 0
BBX 16 16 0 -2
BITMAP
0000
0010
2012
2012
2622
21A2
2042
2062
2092
2112
220A
240A
2802
2002
3FFE
0000
ENDCHAR
STARTCHAR 3628
ENCODING 13864
SWIDTH 960 0
DWIDTH 16 0
BBX 16 16 0 -2
BITMAP
1040
1040
13FC
1044
1044
7C84
1118
1208
1208
1FFF
1249
1249
1249
1449
1451
19A6
ENDCHAR
STARTCHAR 3629
ENCODING 13865
SWIDTH 960 0
DWIDTH 16 0
BBX 16 16 0 -2
BITMAP
0000
3FFE
2000
2000
2FF8
2080
2080
27F0
2080
2080
2080
2FFC
2000
2000
3FFE
0000
ENDCHAR
STARTCHAR 362a
ENCODING 13866
SWIDTH 960 0
DWIDTH 16 0
BBX 16 16 0 -2
BITMAP
0400
0BDE
3252
2A52
2BD2
2A52
2A52
2BD2
2A12
2B12
3A92
6A52
0BDC
1630
1010
2010
ENDCHAR
STARTCHAR 362b
ENCODING 13867
SWIDTH 960 0
DWIDTH 16 0
BBX 16 16 0 -2
BITMAP
0004
0004
3E44
2244
2244
2244
2244
2244
2244
2244
2247
3E7C
03C4
0004
0004
0004
ENDCHAR
STARTCHAR 362c
ENCODING 13868
SWIDTH 960 0
DWIDTH 16 0
BBX 16 16 0 -2
BITMAP
0038
1FC0
0100
7FFE
0220
07F0
1A2C
63E2
0000
1FFC
1004
13E4
1224
13E4
1004
100C
ENDCHAR
STARTCHAR 362d
ENCODING 13869
SWIDTH 960 0
DWIDTH 16 0
BBX 16 16 0 -2
BITMAP
0020
1020
17FE
1108
1090
7FFF
1000
11FC
1104
11FC
1504
19FC
6050
0091
0311
0C0F
ENDCHAR
STARTCHAR 362e
ENCODING 13870
SWIDTH 960 0
DWIDTH 16 0
BBX 16 16 0 -2
BITMAP
1010
1010
11FE
5410
5492
5452
5454
5410
57FF
5410
5410
7C28
4428
0044
0082
0301
ENDCHAR
STARTCHAR 362f
ENCODING 13871
SWIDTH 960 0
DWIDTH 16 0
BBX 16 16 0 -2
BITMAP
0040
7C50
048C
07FA
0421
3C20
21FC
2124
3D24
0524
05FC
0424
0422
043E
0BC1
3001
ENDCHAR
STARTCHAR 3630
ENCODING 13872
SWIDTH 960 0
DWIDTH 16 0
BBX 16 16 0 -2
BITMAP
0000
7FFF
0400
05FC
0524
3DFC
2124
23FE
3C00
05FC
0524
05FC
0524
05FC
0800
33FF
ENDCHAR
STARTCHAR 3631
ENCODING 13873
SWIDTH 960 0
DWIDTH 16 0
BBX 16 16 0 -2
BITMAP
0820
0820
0820
09FC
2C20
2A20
2A20
2820
4BFF
0820
0820
0848
0844
08BC
0BC2
0802
ENDCHAR
STARTCHAR 3632
ENCODING 13874
SWIDTH 960 0
DWIDTH 16 0
BBX 16 16 0 -2
BITMAP
0000
7FF8
1108
1108
1148
1528
192A
620A
0406
0100
0480
1448
1444
2412
4212
01F0
ENDCHAR
STARTCHAR 3633
ENCODING 13875
SWIDTH 960 0
DWIDTH 16 0
BBX 16 16 0 -2
BITMAP
0220
0220
1FFC
0220
0220
0220
7FFF
0410
0908
1104
6103
0948
0924
1124
2100
0300
ENDCHAR
STARTCHAR 3634
ENCODING 13876
SWIDTH 960 0
DWIDTH 16 0
BBX 16 16 0 -2
BITMAP
1020
1020
13FE
1020
7E24
1124
10A4
10A8
1FFF
7020
1050
1050
1088
1104
1202
3401
ENDCHAR
STARTCHAR 3635
ENCODING 13877
SWIDTH 960 0
DWIDTH 16 0
BBX 16 16 0 -2
BITMAP
0420
04A0
3FA0
04A0
053F
7FE2
0222
3F62
0954
1294
6408
0788
7C14
0424
04C2
0F01
ENDCHAR
STARTCHAR 3636
ENCODING 13878
SWIDTH 960 0
DWIDTH 16 0
BBX 16 16 0 -2
BITMAP
080C
09F0
0820
7FFF
0848
08FC
194B
1C78
2A00
2BFE
4902
097A
094A
097A
0902
0906
ENDCHAR
STARTCHAR 3637
ENCODING 13879
SWIDTH 960 0
DWIDTH 16 0
BBX 16 16 0 -2
BITMAP
1000
0BFC
0A04
0204
4204
2204
23FC
0090
0890
0890
1090
1110
2110
2211
4411
480F
ENDCHAR
STARTCHAR 3638
ENCODING 13880
SWIDTH 960 0
DWIDTH 16 0
BBX 16 16 0 -2
BITMAP
0400
45FE
2820
1020
1020
2820
4820
09FC
1820
1820
2820
4820
0820
0820
6FFF
1000
ENDCHAR
STARTCHAR 3639
ENCODING 13881
SWIDTH 960 0
DWIDTH 16 0
BBX 16 16 0 -2
BITMAP
0420
4420
2BFE
1020
3224
5124
08A4
08A8
1FFF
1820
2850
4850
0888
0904
6A02
1401
ENDCHAR
STARTCHAR 363a
ENCODING 13882
SWIDTH 960 0
DWIDTH 16 0
BBX 16 16 0 -2
BITMAP
100C
11F0
1020
3FFF
2848
48FC
094B
7E78
0800
09FE
1502
137A
234A
217A
4102
0106
ENDCHAR
STARTCHAR 363b
ENCODING 13883
SWIDTH 960 0
DWIDTH 16 0
BBX 16 16 0 -2
BITMAP
0080
3C80
2480
24FE
2512
3D92
276A
252A
255A
3D5A
258A
250A
25FA
2402
2404
4C18
ENDCHAR
STARTCHAR 363c
ENCODING 13884
SWIDTH 960 0
DWIDTH 16 0
BBX 16 16 0 -2
BITMAP
0080
0FF0
0310
1C60
0810
7FFE
1122
66CC
0FF8
0808
0FF8
0808
0FF8
0808
0808
0818
ENDCHAR
STARTCHAR 363d
ENCODING 13885
SWIDTH 960 0
DWIDTH 16 0
BBX 16 16 0 -2
BITMAP
0400
0800
37FE
2412
27F2
3C1E
25D2
2552
3D5E
25D2
2552
2412
7FFF
0430
180C
6002
ENDCHAR
STARTCHAR 363e
ENCODING 13886
SWIDTH 960 0
DWIDTH 16 0
BBX 16 16 0 -2
BITMAP
0220
7FFF
0220
0FF8
0080
7FFF
0220
07F0
1A2C
63E3
0000
1FFC
13E4
1224
13E4
100C
ENDCHAR
STARTCHAR 363f
ENCODING 13887
SWIDTH 960 0
DWIDTH 16 0
BBX 16 16 0 -2
BITMAP
0800
0BDE
1252
1652
67D4
1A58
0A54
0FD2
1611
2691
7A51
0A59
12B6
1330
2610
4010
ENDCHAR
ENDFONT
